<?xml version="1.0" encoding="utf-8"?>
<!-- Generator: Adobe Illustrator 22.0.0, SVG Export Plug-In . SVG Version: 6.00 Build 0)  -->
<svg version="1.1" id="Layer_1" xmlns="http://www.w3.org/2000/svg" xmlns:xlink="http://www.w3.org/1999/xlink" x="0px" y="0px"
	 viewBox="0 0 458.6 377.5" style="enable-background:new 0 0 458.6 377.5;" xml:space="preserve">
<style type="text/css">
	.st0{fill:#DCEDF9;}
	.st1{fill:#0077EB;}
	.st2{fill:#0059D3;}
	.st3{fill:#008EFF;}
	.st4{fill:#FFAA01;}
	.st5{fill:#F88800;}
	.st6{fill:#FDCC50;}
	.st7{fill:#F9AF8B;}
	.st8{fill:#FFFFFF;}
	.st9{fill:#2E3052;}
	.st10{fill:#001030;}
	.st11{fill:#524E84;}
	.st12{fill:#1F2232;}
	.st13{fill:#FC8664;}
	.st14{fill:#FD664D;}
	.st15{fill:#000B29;}
	.st16{display:none;}
	.st17{display:inline;}
	.st18{fill:#112129;}
</style>
<g id="BACKGROUND">
</g>
<g id="OBJECTS">
	<g>
		<g>
			<path class="st0" d="M407.1,361.1c-22.7-17.3-61.6-60.1-10.4-127.3c63.3-83.2-12.5-117.3-85.1-113.7
				c-58.4,2.9-124.2-70.6-189.8-57.5C34.6,80,91.1,155,32.1,195.4c-50.4,34.5-28.7,139.5,36.8,165.7L407.1,361.1L407.1,361.1z"/>
		</g>
		<path class="st0" d="M448.1,208.6c-0.4-12.3-11.8-17.1-19.5-8.2c-4.4,5.1-8.6,12.5-9.4,22.3c-1.8,22,17.5,15.6,24.7,3.8
			C446.9,221.6,448.3,214.9,448.1,208.6z"/>
		<path class="st0" d="M236.4,58.2c-12.1-2.3-19.2,7.9-12.2,17.3c4.1,5.4,10.3,11.1,19.8,13.9c21.1,6.4,19-13.7,9-23.3
			C248.8,62.1,242.6,59.4,236.4,58.2z"/>
		<path class="st0" d="M36.1,171.2c4.8-11.3-3.6-20.5-14.3-15.6c-6.1,2.8-13,7.7-17.9,16.3c-10.8,19.2,9.3,21.5,20.8,13.8
			C29.6,182.5,33.6,177,36.1,171.2z"/>
	</g>
	<g>
		<ellipse class="st0" cx="229.2" cy="364.5" rx="207.8" ry="13.7"/>
	</g>
	<g>
		<g>
			<g>
				<g>
					<path class="st1" d="M431.4,252.3c-12.7,12.7,1.5,13.8-7.9,23.4c-8.5,8.8-21.1,0.2-20.2,21.6c0.2,4.7-3.2,8.1-8,9.9
						c-7.9,2.9-15.5,0.2-20.3-5.2c-0.4-0.4-0.8-0.9-1.1-1.4c-3.6-4.9-4.9-11.5-2.2-18.1c2.2-5.3,6-10.6,12.8-12.7
						c15.9-4.9,7.1-26,20.5-26.9c16.2-1.1,16.8-7.1,28.3-15.1C445.5,219.4,448.6,235.1,431.4,252.3z"/>
				</g>
				<g>
					<g>
						<path class="st2" d="M425.7,245.3c-0.4,0.4-29.9,30.8-50.7,56.7c-0.4-0.4-0.8-0.9-1.1-1.4c20.9-26,50.2-56.2,50.5-56.6
							c0.3-0.3,0.9-0.3,1.2,0C426,244.5,426,245,425.7,245.3z"/>
					</g>
				</g>
			</g>
			<g>
				<g>
					<path class="st3" d="M434.7,294.7c-19.9,11.7-2.6,17.6-17.3,26.6c-13.4,8.2-26.3-6.5-32.1,20.4c-1.3,5.9-6.6,9.1-13.1,9.8
						c-10.7,1.1-19.4-4.7-23.6-12.9c-0.3-0.7-0.6-1.3-0.9-2c-2.9-7.3-2.4-16,3.1-23.3c4.4-6,10.9-11.3,20-11.7
						c21.4-1,17.2-30.1,34.2-26.9c20.5,3.8,23.2-3.4,40.1-9.7C462.8,258.3,461.7,278.8,434.7,294.7z"/>
				</g>
				<g>
					<g>
						<path class="st1" d="M429.8,284.3c-0.6,0.3-47.1,28.7-81.3,54.3c-0.3-0.7-0.6-1.3-0.9-2c34.3-25.6,80.6-53.8,81.1-54.1
							c0.5-0.3,1.2-0.1,1.5,0.4S430.3,283.9,429.8,284.3z"/>
					</g>
				</g>
			</g>
		</g>
		<g>
			<g>
				<g>
					<path class="st1" d="M46,107c6.8,16.6-6.7,12.2-1.8,24.6c4.5,11.4,19.3,8.3,10.3,27.7c-2,4.2-0.2,8.8,3.6,12.2
						c6.1,5.7,14.3,6.2,20.7,3.1c0.5-0.3,1-0.5,1.5-0.8c5.2-3.1,9-8.8,9.1-15.9c0.1-5.8-1.4-12.1-6.9-16.6
						c-12.8-10.7,3.5-26.7-8.6-32.7c-14.5-7.3-12.8-13-20.3-24.8C45.7,71.2,36.7,84.5,46,107z"/>
				</g>
				<g>
					<g>
						<path class="st2" d="M53.9,102.8c0.2,0.5,15.7,39.9,24.9,71.9c0.5-0.3,1-0.5,1.5-0.8c-9.3-32-24.6-71.2-24.8-71.7
							c-0.2-0.4-0.7-0.7-1.1-0.5C54,101.9,53.8,102.4,53.9,102.8z"/>
					</g>
				</g>
			</g>
			<g>
				<g>
					<path class="st3" d="M26.5,150.5c14.4,18.1-3.9,17.4,6.7,31c9.6,12.4,26.9,3.3,22.7,30.5c-0.9,5.9,2.9,10.9,8.8,13.8
						c9.6,4.9,19.8,2.5,26.7-3.7c0.6-0.5,1.1-1,1.6-1.6c5.3-5.7,7.9-14,5.5-22.8c-2-7.1-6.1-14.4-14.5-18.1
						c-19.6-8.6-5.3-34.2-22.3-37.3c-20.6-3.8-20.4-11.4-34-23.3C13.3,106.4,7,126,26.5,150.5z"/>
				</g>
				<g>
					<g>
						<path class="st1" d="M34.8,142.4c0.4,0.5,33.7,43.6,56.6,79.8c0.6-0.5,1.1-1,1.6-1.6c-22.9-36.2-56-79-56.4-79.5
							s-1.1-0.6-1.5-0.2C34.5,141.3,34.4,141.9,34.8,142.4z"/>
					</g>
				</g>
			</g>
		</g>
		<g>
			<path class="st3" d="M123.8,134.7c5.8-4,20.4,5.8,28,17.8l-6.7-18.9c-2.4-2.1-6.7-5.1-13.4-7.5c-10.4-3.7-20.8-9.5-15-13.4
				c5.5-3.7,18.6,4.7,26.5,15.6l-8.7-24.3c-1.6-1.2-4.1-2.7-7.6-4c-6.6-2.3-13.1-6-9.4-8.5c3.2-2.2,10.5,2.2,15.5,8.3l-2.8-7.9
				c-1.3-2.3-3.1-5.6-6-8.5c-6.7-6.9-11.7-14.7-6.6-15.8c5.2-1.1,13.6,12.4,14.9,24.6l1.4,4c-1.1-8.9,2.1-19.7,6.5-20
				c4.4-0.4,1.7,6.6-1.9,12.5c-2.7,4.5-3.5,8.1-3.7,10l6.8,19.1c-1.7-14.1,3.3-31.1,10.4-31.7c7-0.6,2.6,10.5-3.1,19.9
				c-4.3,7.1-5.5,12.8-5.9,15.8l8.2,22.9c-1.5-13.9,3.5-30.8,10.5-30.9c5.4,0,3.7,7.5-2.7,18.2c-4.3,7.3-5.7,13.8-6.2,17.2l3.9,10.8
				c-0.6,0.5-1.3,0.7-2,0.7l-1.5-4.3c-2.2-2.1-6.7-5.7-14.4-8.4C128.4,144.5,118,138.7,123.8,134.7z"/>
		</g>
		<g>
			<path class="st3" d="M72.7,295c-6,3.7-2.7,21,5.2,32.7L63.2,314c-1-3.1-2-8.2-1.5-15.3c0.8-11-0.4-22.9-6.4-19.1
				c-5.6,3.5-3.1,18.9,3.8,30.5l-18.8-17.6c-0.5-2-0.9-4.8-0.7-8.5c0.5-6.9-0.3-14.4-4-12c-3.3,2.1-2.2,10.5,1.5,17.6l-6.1-5.7
				c-1.6-2.1-3.9-5.1-5.4-8.9c-3.7-8.9-8.8-16.6-11.9-12.3c-3.1,4.3,6,17.4,16.7,23.5l3.1,2.9c-7.7-4.6-18.9-5.9-21-2
				s5.4,4.1,12.3,3.2c5.2-0.7,8.8,0,10.6,0.6l14.8,13.9c-12.2-7.2-29.8-9.3-33.2-3.1c-3.3,6.2,8.6,6.6,19.5,5.1
				c8.3-1.1,13.9,0,16.8,0.9L71,324.2c-12.2-6.9-29.7-9-32.5-2.7c-2.2,4.9,5.4,6.4,17.8,4.8c8.4-1.1,14.9,0.2,18.2,1.2l8.4,7.8
				c0.7-0.4,1.2-0.9,1.4-1.5l-3.3-3.1c-1.1-2.8-2.5-8.4-2-16.6C79.8,303.1,78.7,291.2,72.7,295z"/>
		</g>
	</g>
	<g>
		<rect x="55.4" y="140.4" class="st4" width="318.1" height="219.7"/>
		<polygon class="st5" points="373.5,140.4 373.5,154.5 214.4,295.5 55.4,154.5 55.4,140.4 214.4,281.8 		"/>
		<g>
			<polygon class="st5" points="183.8,254.1 64.6,360.1 55.4,360.1 55.4,354.5 176.9,246.4 			"/>
		</g>
		<g>
			<g>
				<polygon class="st5" points="373.5,355.3 373.5,360.1 363.4,360.1 244.2,254.1 251.1,246.4 				"/>
			</g>
		</g>
		<polygon class="st6" points="55.4,140.4 214.4,281.8 373.5,140.4 		"/>
	</g>
	<g>
		<g>
			<g>
				<polygon class="st7" points="285.7,120.6 289.8,129.3 281.2,129.4 277.9,121.5 				"/>
				<g>
					<g>
						<g>
							<path class="st3" d="M287.1,128.8c0,0,1.8-2.4,3.2-2.3c1.4,0.1,12.2,8.7,15.9,9.4c3.7,0.7,3.4,4.5,1.8,4.5
								c-4.5,0-29.1,0-29.1,0s-0.7-8.8,0.2-11.4C280,126.3,284.2,129.4,287.1,128.8z"/>
						</g>
						<g>
							<g>
								<path class="st8" d="M293,134.7c-0.1,0-0.3,0-0.4,0c-0.2-0.1-0.3-0.5-0.2-0.7c0-0.1,1.2-2,2.7-2.8c2-1,3.6,0.1,3.7,0.2
									c0.2,0.2,0.3,0.5,0.1,0.7c-0.2,0.2-0.5,0.3-0.7,0.1c0,0-1.1-0.8-2.6-0.1c-1.2,0.6-2.3,2.4-2.3,2.4
									C293.3,134.6,293.2,134.7,293,134.7z"/>
							</g>
							<g>
								<path class="st8" d="M291.5,133.3c-0.1,0-0.3,0-0.4,0c-0.2-0.1-0.3-0.5-0.2-0.7c0-0.1,1.2-2,2.7-2.8c2-1,3.6,0.1,3.7,0.2
									c0.2,0.2,0.3,0.5,0.1,0.7c-0.2,0.2-0.5,0.3-0.7,0.1c0,0-1.1-0.8-2.6-0.1c-1.2,0.6-2.3,2.4-2.3,2.4
									C291.7,133.2,291.6,133.2,291.5,133.3z"/>
							</g>
							<g>
								<path class="st8" d="M295.1,135.9c-0.1,0-0.3,0-0.4,0c-0.2-0.1-0.3-0.5-0.2-0.7c0-0.1,1.2-2,2.7-2.8c2-1,3.6,0.1,3.7,0.2
									c0.2,0.2,0.3,0.5,0.1,0.7c-0.2,0.2-0.5,0.3-0.7,0.1c0,0-1.1-0.8-2.6-0.1c-1.2,0.6-2.3,2.4-2.3,2.4
									C295.4,135.8,295.2,135.9,295.1,135.9z"/>
							</g>
						</g>
					</g>
				</g>
			</g>
			<g>
				<g>
					<g>
						<g>
							<g>
								<path class="st9" d="M288.2,123.4l-3.8,1.2l-2.1,0.1l-3.6,0.2c-4.8-3.8-17.7-15.2-20.3-22c0,0-16.7,38.7-39.7,38.7
									c-1.5,0,2.5-19.3,6.2-23.3c0,0,21.2-39.6,35-35.4C266,85,272.2,94,288.2,123.4z"/>
							</g>
						</g>
					</g>
				</g>
				<g>
					<path class="st10" d="M284.3,124.7l-2.1,0.1c-14.1-10.7-20.7-19.8-23.7-25.6c-0.1-0.2-0.3-0.3-0.4-0.3s-0.2,0.1-0.2,0.2
						c-6.8,15.9-14.9,25.5-20.5,30.7c-6.1,5.7-10.6,7.6-10.8,7.6l-0.3-0.6l-0.3-0.6c0,0,4.5-1.9,10.4-7.4
						c5.5-5.1,13.5-14.5,20.1-30.2c0.3-0.6,0.8-1,1.4-1c0.7,0,1.3,0.4,1.6,1C262.8,104.5,269.5,113.7,284.3,124.7z"/>
				</g>
				<path class="st11" d="M274.8,122.4c0.6,1.1,1.6,2.7,2.6,3.5c0,0,8.1-0.4,12.1-2.4l-1.8-4.1C287.7,119.4,281.3,121.8,274.8,122.4
					z"/>
			</g>
		</g>
		<g>
			<g>
				<g>
					<path class="st1" d="M285.4,66.9c-11.6,4.7-20.8,7.1-28.7,8.1l0,0c-0.1,0-2,0.2-2.7,0.1c-2.1-0.1-5-0.6-7.9-1.9
						c-2.1-1-5-3.5-8.1-6.4c-3.8-3.7-7.9-8.1-10.7-11.3c-2.2-2.5-3.6-4.2-3.6-4.2c1.9-2.9,6.2-5.5,9.9-6.9c0,0,7.8,12.9,19.5,19.3
						c0.6,0.3,1.3,0.7,2,1c2.7-0.4,9.9-0.8,13.1-1c8.5-0.6,15.5-2.1,15.5-2.1L285.4,66.9z"/>
				</g>
			</g>
			<g>
				<g>
					<g>
						<path class="st7" d="M283.4,61.1c0,0,1.6-4.1,3.8-5.2c2.2-1.2,8.4-5.2,9.8-4c1.3,1.2,1.1,7.1-4.5,12c-3.6,3.1-7.1,3-7.1,3
							L283.4,61.1z"/>
					</g>
					<g>
						<g>
							<path class="st10" d="M297.4,55.6l-9.2,8.6c-0.3,0.3-1,0.4-1.4,0.2l-5.6-2.7c-0.2-0.1-0.3-0.2-0.3-0.3l0,0l-0.3-0.9l1.5-0.6
								l14.5-5.5l0.8-0.3l0.3,1v0.1l0,0C297.6,55.3,297.6,55.4,297.4,55.6z"/>
						</g>
						<g>
							<path class="st12" d="M296.5,54.3L282,59.8l8.2-7.7c0.3-0.3,1-0.4,1.4-0.2L296.5,54.3z"/>
						</g>
						<g>
							<g>
								<path class="st9" d="M286.5,63.5l-5.6-2.7c-0.4-0.2-0.5-0.6-0.1-1l9.2-8.6c0.3-0.3,1-0.4,1.4-0.2l5.6,2.7
									c0.4,0.2,0.5,0.6,0.1,1l-9.2,8.6C287.6,63.6,286.9,63.7,286.5,63.5z"/>
							</g>
						</g>
						<g>
							<path class="st9" d="M287.2,61.9l-4.4-2.1c-0.4-0.2-0.5-0.6-0.1-1l7.2-6.7c0.3-0.3,1-0.4,1.4-0.2l4.4,2.1
								c0.4,0.2,0.5,0.6,0.1,1l-7.2,6.7C288.2,62,287.6,62.1,287.2,61.9z"/>
						</g>
						<g>
							<path class="st12" d="M297.6,55.1L297.6,55.1L297.6,55.1L297.6,55.1z"/>
						</g>
					</g>
					<g>
						<path class="st7" d="M287.1,53.8c0,0,1.3,0.2,1.4,1.3s-1.1,0.7-1.9,0.4c-0.8-0.2-1.5,0-1.6,0.1
							C284.7,56.1,284.8,53.5,287.1,53.8z"/>
					</g>
					<g>
						<path class="st7" d="M292.9,60c0,0,2.1-3.4,3.6-5.2c1.1-1.2,1.6,0.6,0.9,1.8C296.7,57.8,295.3,60.3,292.9,60z"/>
					</g>
				</g>
			</g>
		</g>
		<g>
			<g>
				<g>
					<g>
						<g>
							<path class="st3" d="M197.1,120.9l-4.6-29.4l-0.3-1.7v-1.3l1-41.6l11.6-3.9l0.6-0.2l2.6-0.9l2.1-0.7l12.2,1.7l2,0.3l0.7,0.1
								l8.7,1.2c0.1,27.6-2.6,33.6,2.5,56C238.8,108.9,229.4,138.9,197.1,120.9z"/>
						</g>
					</g>
				</g>
			</g>
			<g>
				<g>
					<path class="st1" d="M203.6,113.4L203.6,113.4c9.1-2.6,15.8-8.9,19.8-13.7c4.3-5.2,6.5-9.9,6.5-10c0.1-0.2,0-0.5-0.2-0.6
						s-0.5,0-0.6,0.2c0,0-2.2,4.7-6.4,9.8c-3.9,4.7-10.4,10.9-19.3,13.4c-0.2,0.1-0.4,0.3-0.3,0.6
						C203.1,113.3,203.3,113.5,203.6,113.4z"/>
				</g>
			</g>
			<g>
				<g>
					<path class="st1" d="M213.9,113.9c7.9-2.2,14.6-8.9,14.9-9.2c0.2-0.2,0.2-0.5,0-0.6c-0.2-0.2-0.5-0.2-0.6,0
						c-0.1,0.1-7.9,8-16.4,9.4c-0.3,0-0.4,0.3-0.4,0.5s0.3,0.4,0.5,0.4C212.6,114.2,213.3,114.1,213.9,113.9z"/>
				</g>
			</g>
			<g>
				<g>
					<path class="st1" d="M208.3,55.2c7.9-2.2,14.6-8.9,14.9-9.2c0.2-0.2,0.2-0.5,0-0.6c-0.2-0.2-0.5-0.2-0.6,0
						c-0.1,0.1-7.9,8-16.4,9.4c-0.3,0-0.4,0.3-0.4,0.5s0.3,0.4,0.5,0.4C207,55.5,207.7,55.4,208.3,55.2z"/>
				</g>
			</g>
		</g>
		<g>
			<g>
				<polygon class="st7" points="277.9,197 281.1,204.1 274.6,206.9 270.8,199.6 				"/>
				<g>
					<g>
						<g>
							<path class="st3" d="M279.7,204c0,0,0.7-2.9,2-3.3c1.3-0.5,14.7,3.1,18.3,2.3c3.7-0.8,4.1,2,4,3.5s-27.3,11.3-27.3,11.3
								s-4.2-7.6-4.3-10.3C272.3,204.6,277.3,205.7,279.7,204z"/>
						</g>
						<g>
							<g>
								<path class="st8" d="M287.6,207.1c-0.1,0.1-0.2,0.1-0.4,0.1c-0.3,0-0.5-0.3-0.5-0.6c0-0.1,0.3-2.3,1.4-3.7
									c1.4-1.7,3.3-1.3,3.4-1.3c0.3,0.1,0.5,0.3,0.4,0.6s-0.3,0.5-0.6,0.4c-0.1,0-1.4-0.3-2.4,1c-0.9,1.1-1.1,3.1-1.1,3.1
									C287.7,206.9,287.7,207,287.6,207.1z"/>
							</g>
							<g>
								<path class="st8" d="M285.6,206.4c-0.1,0.1-0.2,0.1-0.4,0.1c-0.3,0-0.5-0.3-0.5-0.6c0-0.1,0.3-2.3,1.4-3.7
									c1.4-1.7,3.3-1.3,3.4-1.3c0.3,0.1,0.5,0.3,0.4,0.6s-0.3,0.5-0.6,0.4c-0.1,0-1.4-0.3-2.4,1c-0.9,1.1-1.1,3.1-1.1,3.1
									C285.7,206.1,285.7,206.3,285.6,206.4z"/>
							</g>
							<g>
								<path class="st8" d="M290,207.3c-0.1,0.1-0.2,0.1-0.4,0.1c-0.3,0-0.5-0.3-0.5-0.6c0-0.1,0.3-2.3,1.4-3.7
									c1.4-1.7,3.3-1.3,3.4-1.3c0.3,0.1,0.5,0.3,0.4,0.6s-0.3,0.5-0.6,0.4c-0.1,0-1.4-0.3-2.4,1c-0.9,1.1-1.1,3.1-1.1,3.1
									C290.1,207.1,290.1,207.2,290,207.3z"/>
							</g>
						</g>
					</g>
				</g>
			</g>
			<g>
				<g>
					<g>
						<g>
							<g>
								<path class="st9" d="M279.6,198.4c-0.7,0.8-2.8,1.9-5.1,3c-0.4,0.2-0.8,0.4-1.3,0.5c-0.7,0.3-1.5,0.6-2.2,0.8
									c0,0-15.5-28.6-21.5-49.4c0,0-52.6-6.5-54.4-24.9c-0.1-0.6-0.1-1.2,0-1.9c0.2-1.8,0.8-3.6,1.9-5.6
									c1.2-2.1,19.2-0.1,28.9,2.7c0,0,26.4,10.3,36.1,20.9C267,149.8,279.6,198.4,279.6,198.4z"/>
							</g>
						</g>
					</g>
					<g>
						<path class="st10" d="M274.5,201.3c-0.4,0.2-0.8,0.4-1.3,0.5c-7.9-13-18.8-43.4-21.2-50.7c-0.2-0.5-0.6-0.9-1.1-1
							c-25.6-4.8-40.3-11.5-48.1-16.3c-3.5-2.1-5.9-4-7.7-5.6c-0.1-0.6-0.1-1.2,0-1.9c1.7,1.6,4.4,3.9,8.5,6.4
							c7.8,4.7,22.3,11.3,47.5,16c1,0.2,1.8,0.9,2.1,1.9C255.8,158.1,266.7,188.6,274.5,201.3z"/>
					</g>
				</g>
				<path class="st11" d="M268.3,199.7l2.5,4c0,0,6.2-1.1,10.4-5.3l-1.5-3.5C279.6,194.8,272.1,198.5,268.3,199.7z"/>
			</g>
		</g>
		<g>
			<path class="st7" d="M184.6,131.8c0,0,3.6,4.9,3.3,7.4s-3.5,7.2-6.1,7.5c-2.6,0.2,3-6.1,1.7-5.9c-1.6,0.2-12.3,9.1-14.6,9.1
				s2.7-4.1,4.6-5.1c0,0-5.1,2.3-6.3,3.5s-2-1.4,3.9-4.9c0,0-5.4,3.1-5.8,3.1c-1.2,0.2,2.2-3.9,5.2-5.3c0,0-4.3,2.1-4.8,2.1
				c-0.6,0,0.7-1.4,3.9-3.2c2.9-1.6,7.7-9,7.7-9L184.6,131.8z"/>
			<g>
				<path class="st1" d="M193.3,46.8c0,0-12,23.1-14.8,47.3l-1.3,36.8c0,0,1.2,2.6,7.4,0.9l5.9-36.7l4.5-16.8
					C195.1,78.2,197.1,57.5,193.3,46.8z"/>
			</g>
		</g>
		<g>
			<ellipse class="st9" cx="217.2" cy="19.5" rx="13.3" ry="13.3"/>
			<path class="st9" d="M230.5,19.4c0,0,3.9-0.4,4-4.1c0.1-3.1-3.8-1.8-3.1-4.1s1.8-4.4-1.2-5.5c-2.6-1-3,0.8-6.1-2.5
				c-3.6-3.9-8.2,2.9-12,2.4c-5.6-0.7-6.8,2.4-7.8,4.8s0.8,4.5,0.8,4.5L230.5,19.4z"/>
			<g>
				<path class="st13" d="M227.4,25.1c0,0,2.6-2.4,3.7,0.2c1.1,2.6-2.2,8.9-5.7,6.6L227.4,25.1z"/>
				<g>
					<path class="st14" d="M226.6,29.9c0.1,0,0.3,0,0.3-0.2c1-2,3.3-2.4,3.3-2.5c0.2,0,0.3-0.2,0.3-0.4c0-0.2-0.2-0.3-0.4-0.3
						c-0.1,0-2.7,0.5-3.8,2.8C226.3,29.6,226.4,29.8,226.6,29.9C226.5,29.9,226.6,29.9,226.6,29.9z"/>
				</g>
				<g>
					<g>
						<path class="st14" d="M229,29.3c0.1,0,0.1,0,0.2,0c0.2-0.1,0.2-0.3,0.2-0.4c0,0-0.3-0.7-1-1.2c-0.1-0.1-0.3-0.1-0.5,0.1
							c-0.1,0.1-0.1,0.3,0.1,0.5c0.6,0.4,0.8,0.9,0.8,0.9C228.8,29.2,228.9,29.2,229,29.3z"/>
					</g>
				</g>
			</g>
			<path class="st7" d="M210.1,35.1l-1.2,6.7c0,0,2.2,3.5,4.9,4.2s4.9-2.2,4.9-2.2l1.1-6.5L210.1,35.1z"/>
			<path class="st13" d="M210.1,35.1l-0.5,3c1.5,2.3,4.6,3.4,9.5,3.6l0.8-4.3L210.1,35.1z"/>
			<path class="st7" d="M206.1,16.6c-0.3,2.6-0.7,5.9-0.6,8.6c0,0.7,0,1.3,0.1,1.9c0.5,5.2,2.6,14.3,13.1,12.5
				c4.7-0.8,7.5-5.3,9.3-10.1c1.2-3.3,1.9-6.6,2.3-9.1c0.4-2.5-0.6-5-2.5-6.6c-5.3-4.3-11.7-4.2-16-3.4
				C208.8,11.1,206.5,13.5,206.1,16.6z"/>
			<path class="st9" d="M222.3,25.1c-0.1,0.7,0.1,1.4,0.6,1.4c0.5,0.1,0.9-0.4,1.1-1.2c0.1-0.7-0.1-1.4-0.6-1.4
				C222.9,23.8,222.4,24.4,222.3,25.1z"/>
			<path class="st9" d="M212.6,23.4c-0.1,0.7,0.1,1.4,0.6,1.4c0.5,0.1,0.9-0.4,1.1-1.2c0.1-0.7-0.1-1.4-0.6-1.4
				C213.2,22.1,212.7,22.7,212.6,23.4z"/>
			<path class="st9" d="M226.5,21.7c0,0-3.2-2-6-1.3v1.3c0,0,3-0.1,5.6,1.4C226.4,22.6,226.6,22.3,226.5,21.7z"/>
			<path class="st9" d="M210.8,18.9c0,0,3.7-0.8,6.1,0.9l-0.4,1.2c0,0-2.8-1.1-5.7-0.6C210.6,19.8,210.5,19.5,210.8,18.9z"/>
			<g>
				<g>
					<path class="st13" d="M216.8,29.4c-0.5-0.1-1-0.4-1.1-0.4c-0.2-0.1-0.2-0.3-0.1-0.4c0.1-0.2,0.3-0.2,0.4-0.1
						c0.3,0.2,0.9,0.5,1.3,0.3c0.1,0,0.2-0.1,0.2-0.3c0.3-1.1,0.7-4.9,0.7-4.9c0-0.2,0.2-0.3,0.4-0.3s0.3,0.2,0.3,0.4
						c0,0.2-0.4,3.9-0.7,5c-0.1,0.4-0.4,0.6-0.6,0.7C217.3,29.4,217.1,29.4,216.8,29.4z"/>
				</g>
			</g>
			<path class="st8" d="M220.5,32.1c-0.5,1.3-1.8,3.5-4.7,3s-3.4-2.9-3.4-4.4L220.5,32.1z"/>
			<g>
				<path class="st13" d="M215.5,36.7c-0.8-0.1-1.5-0.7-1.5-0.7c-0.1-0.1-0.1-0.3,0-0.5c0.1-0.1,0.3-0.1,0.5,0c0,0,0.5,0.4,1.2,0.6
					c0.6,0.1,1.2-0.1,1.2-0.1c0.2-0.1,0.4,0,0.4,0.2c0.1,0.2,0,0.4-0.2,0.4C217.1,36.6,216.3,36.9,215.5,36.7z"/>
			</g>
			<path class="st9" d="M227.4,27.3c0.5-1.3,1-2.9,1-3.8c0-1.6-1.2-2.7-0.5-4.1s-0.6-3.3-1.7-3.8c-1.1-0.5-3.9-0.4-6.4-2.1
				c-2.3-1.7-6.9-1.6-7.9-0.1c-1.2,1.8-0.1,2.2-2.8,3.9c-1.1,0.7-0.4,3.1-0.5,4.6c0,0.7-0.1,1-0.2,1.7l-0.1,0.4l-2.8-0.5
				c0.1-2.3,0.3-4.8,0.6-6.8c0.4-3,2.7-5.5,5.7-6.1c4.3-0.8,10.7-1,16,3.4c1.9,1.6,2.9,4.1,2.5,6.6c-0.3,1.9-0.8,4.5-1.6,7.1
				L227.4,27.3z"/>
			<g>
				<path class="st7" d="M206.5,24.9c0.1-0.7,0.2-1.5,0.2-2.3c0-1-0.1-2-1.1-2.6c-0.8-0.5-1.6-0.6-2.4,0.2c-1.9,2-1.5,9.4,2.6,8.5
					L206.5,24.9z"/>
				<g>
					<g>
						<path class="st13" d="M205.5,26.4c-0.1-0.1-0.2-0.2-0.2-0.3c0.2-2.2-1.5-3.8-1.5-3.8c-0.1-0.1-0.1-0.3,0-0.5
							c0.1-0.1,0.3-0.1,0.5,0c0.1,0.1,2,1.8,1.7,4.4C205.9,26.4,205.7,26.5,205.5,26.4C205.5,26.5,205.5,26.5,205.5,26.4z"/>
					</g>
				</g>
				<g>
					<path class="st13" d="M203.8,24.6c-0.1,0-0.1-0.1-0.1-0.1c-0.1-0.1-0.1-0.3,0.1-0.5c0,0,0.6-0.4,1.5-0.5c0.2,0,0.3,0.1,0.3,0.3
						c0,0.2-0.1,0.3-0.3,0.3c-0.7,0-1.1,0.3-1.1,0.3C204,24.7,203.9,24.7,203.8,24.6z"/>
				</g>
			</g>
		</g>
	</g>
	<g>
		<g>
			<path class="st7" d="M356.8,178.6c0,0-4.4,8.3-9.5,14.9c-1.5,1.9-3.1,3.7-4.7,5.1c-2.5,2.2-5,3.4-7,2.4
				c-7.5-3.7-24.1-33.1-24.1-33.1l4.1-4.8c0,0,7.4,8.4,12.8,13.4c5,4.6,8.8,8.1,8.8,8.1c0.7-1,1.4-2.2,2.2-3.4
				c0.8-1.3,1.7-2.6,2.5-4c6.2-10,13.8-21,13.8-21L356.8,178.6z"/>
			<path class="st7" d="M316.6,166.1c0,0,1.7-2.8,1-5.3s-1.3-8.1-4-8c-1,0.1,0.5,2.4-0.2,4.6c0,0-2.9-1.4-4.9-2.8
				c-1.7-1.3-5.3-3.3-6.9-4.3c-0.5-0.3-1,0.2-0.7,0.7c0.4,0.7,1.5,1.8,3.8,3.3c0,0-5.9-3.3-6.9-2.6s6.5,4.8,6.5,4.8
				s-6.1-2.4-6.6-1.6c-0.3,0.5,5.6,4,5.6,4s-5.9-1.8-4.8-0.4c0.3,0.4,11.5,5.5,13.9,11.4C312.5,169.9,315.8,168.1,316.6,166.1z"/>
			<path class="st13" d="M347.3,193.5c-1.5,1.9-3.1,3.7-4.7,5.1l-3.2-17.3c0.8-1.3,1.7-2.6,2.5-4L347.3,193.5z"/>
			<g>
				<path class="st3" d="M355.9,155.5l-15.8,22.8l5,20.3l12.4-19.8C357.5,178.8,359.9,165.6,355.9,155.5z"/>
			</g>
		</g>
		<g>
			<polygon class="st7" points="364,350.4 364,357.6 370.7,357.5 371.2,349.8 			"/>
			<g>
				<path class="st9" d="M381.1,245.3c0,0.9-0.3,5-0.6,10.7c-0.9,15.7-2.7,43.6-3.8,49.9c-1.1,6.4-0.6,27.5-0.2,38.6
					c0.1,1.9-0.7,3.6-1.9,4.8c-0.5,0.5-1,0.9-1.6,1.2c-1,0.6-2.2,0.9-3.4,0.9h-5.1c-3.9,0-7-3.1-6.8-6.9c0.3-9.3,0.6-26.4,0-39.6
					c-0.6-12.5,0.3-34.7,1-48.5l0,0c0.3-5.5,0.5-9.7,0.6-11.4L381.1,245.3z"/>
			</g>
			<path class="st10" d="M359.3,245l21.8,0.3c0,0.9-0.3,5-0.6,10.7c-7.4,0.9-15.1,1.3-21.8,0.4C358.9,250.9,359.2,246.8,359.3,245z"
				/>
			<g>
				<path class="st10" d="M374.5,324.8c0.2,7.1,0.4,14.4,0.3,20.3c0,1.7-0.1,3.1-0.2,4.3c-0.5,0.5-1,0.9-1.6,1.2
					c0.1-1.4,0.2-3.2,0.3-5.5c0.1-5.9-0.1-13.1-0.3-20.2c-0.2-8.6-0.5-16.8,0-20.2c1-7.6,3.4-48.7,4-59.7l1.5,0.1
					c-0.6,11-3,52.1-4,59.8C374,308.2,374.2,316.3,374.5,324.8z"/>
			</g>
			<g>
				<g>
					<g>
						<g>
							<path class="st3" d="M365.7,357.3c0,0-1.4-1.9-2.5-1.9c-1.1,0.1-10.1,6.7-13.1,7.2s-2.5,2.7-2,3.8c0.5,1.1,24,0.1,24,0.1
								s0.8-6.8,0.1-8.9C371.5,355.5,368.1,357.8,365.7,357.3z"/>
						</g>
						<g>
							<g>
								<path class="st8" d="M360.8,362c0.1,0,0.2,0,0.3,0c0.2-0.1,0.3-0.4,0.2-0.6c0-0.1-0.9-1.6-2.1-2.3c-1.6-0.8-2.9,0-3,0.1
									c-0.2,0.1-0.2,0.4-0.1,0.6s0.4,0.2,0.6,0.1c0,0,0.9-0.6,2.1,0c1,0.5,1.8,1.9,1.8,1.9C360.6,361.9,360.7,361.9,360.8,362z"/>
							</g>
							<g>
								<path class="st8" d="M362.1,360.8c0.1,0,0.2,0,0.3,0c0.2-0.1,0.3-0.4,0.2-0.6c0-0.1-0.9-1.6-2.1-2.3c-1.6-0.8-2.9,0-3,0.1
									c-0.2,0.1-0.2,0.4-0.1,0.6s0.4,0.2,0.6,0.1c0,0,0.9-0.6,2.1,0c1,0.5,1.8,1.9,1.8,1.9C361.9,360.7,362,360.8,362.1,360.8z"/>
							</g>
							<g>
								<path class="st8" d="M359.1,362.9c0.1,0,0.2,0,0.3,0c0.2-0.1,0.3-0.4,0.2-0.6c0-0.1-0.9-1.6-2.1-2.3c-1.6-0.8-2.9,0-3,0.1
									c-0.2,0.1-0.2,0.4-0.1,0.6s0.4,0.2,0.6,0.1c0,0,0.9-0.6,2.1,0c1,0.5,1.8,1.9,1.8,1.9C358.9,362.8,359,362.8,359.1,362.9z"/>
							</g>
						</g>
					</g>
				</g>
			</g>
		</g>
		<g>
			<polygon class="st7" points="396.7,350.4 397.4,357.6 403.4,357.5 403.9,349.8 			"/>
			<g>
				<path class="st9" d="M409,305c-0.7,13.2-0.3,30.2,0,39.6c0.1,3.8-3,6.9-6.8,6.9h-5.1c-1.1,0-2.2-0.3-3.1-0.7
					c-0.6-0.3-1.1-0.7-1.5-1.1c-1.4-1.3-2.2-3.1-2.1-5.1c0.3-11,0.8-32.2-0.2-38.6c-1.1-6.4-2.9-35.2-3.8-50.7
					c-0.3-5.2-0.5-8.9-0.6-9.8l21.8,0.3c0.1,1.1,0.2,2.8,0.3,5C408.4,263.1,409.8,290.5,409,305z"/>
			</g>
			<path class="st10" d="M407.7,250.6c-4.1,1.1-12.3,3.1-21.5,4.6c-0.3-5.2-0.5-8.9-0.6-9.8l21.8,0.3
				C407.5,246.8,407.6,248.5,407.7,250.6z"/>
			<g>
				<path class="st10" d="M393.6,345c0.1,2.4,0.2,4.2,0.3,5.6c-0.6-0.3-1.1-0.7-1.6-1.1c-0.1-1.3-0.2-2.8-0.2-4.5
					c-0.1-5.9,0.1-13.2,0.3-20.3c0.2-8.6,0.4-16.6,0-20c-1.1-7.6-3.4-48.8-4-59.8l1.5-0.1c0.6,11,2.9,52.1,4,59.7
					c0.5,3.5,0.3,11.6,0,20.2C393.7,331.9,393.5,339.2,393.6,345z"/>
			</g>
			<g>
				<g>
					<path class="st3" d="M399.8,356.5c0,0,3.1-0.8,3.9-0.8s6.5,6.2,8.4,6.6c3.5,0.7,3.5,5.9,1.4,6.2c-6.1,0.8-16.5-1.8-16.5-1.8
						s-1-6.8-0.5-8.9C396.8,355.7,398.1,357.1,399.8,356.5z"/>
				</g>
				<g>
					<g>
						<path class="st8" d="M404.8,362.2c-0.1,0-0.2,0-0.3-0.1c-0.2-0.1-0.2-0.4-0.1-0.6c0-0.1,1.1-1.6,2.4-2.1
							c1.7-0.7,2.9,0.3,3,0.4c0.2,0.1,0.2,0.4,0,0.6s-0.4,0.2-0.6,0c0,0-0.9-0.7-2.1-0.2c-1,0.4-2,1.8-2,1.8
							C405,362.2,404.9,362.2,404.8,362.2z"/>
					</g>
					<g>
						<path class="st8" d="M403.6,361c-0.1,0-0.2,0-0.3-0.1c-0.2-0.1-0.2-0.4-0.1-0.6c0-0.1,1.1-1.6,2.4-2.1c1.7-0.7,2.9,0.3,3,0.4
							c0.2,0.1,0.2,0.4,0,0.6s-0.4,0.2-0.6,0c0,0-0.9-0.7-2.1-0.2c-1,0.4-2,1.8-2,1.8C403.8,360.9,403.7,361,403.6,361z"/>
					</g>
					<g>
						<path class="st8" d="M406.4,363.3c-0.1,0-0.2,0-0.3-0.1c-0.2-0.1-0.2-0.4-0.1-0.6c0-0.1,1.1-1.6,2.4-2.1
							c1.7-0.7,2.9,0.3,3,0.4c0.2,0.1,0.2,0.4,0,0.6s-0.4,0.2-0.6,0c0,0-0.9-0.7-2.1-0.2c-1,0.4-2,1.8-2,1.8
							C406.6,363.2,406.5,363.3,406.4,363.3z"/>
					</g>
				</g>
			</g>
		</g>
		<g>
			<g>
				<g>
					<path class="st3" d="M412.4,247.5c-19.7,4.9-39.4,4.9-59,0c-0.1-7.2-0.2-36,0.4-59.6c0-0.5,0-0.9,0-1.4c0-0.2,0-0.5,0-0.7l0,0
						c0-0.3,0-0.6,0-0.9c0.4-15.6,1.2-28.3,2.4-30l0,0c2.9-3.9,17.7-10.3,21.8-13.1c0.3,0.5,2.3,3.5,5,3.7c2.9,0.2,5.5-3.1,5.5-3.1
						v-0.6c4.1,2.8,17.5,8.7,20.4,12.6C412,158.8,412.5,235.3,412.4,247.5z"/>
				</g>
			</g>
			<g>
				<g>
					<path class="st1" d="M359.7,176.9c-1.7,2.2-4.2,7.3-5.3,9.7c-0.2,0.3-0.3,0.6-0.4,0.8c-0.1,0.3-0.2,0.4-0.2,0.4
						c0,0.1-0.1,0.1-0.2,0.2c0-0.5,0-0.9,0-1.4c0-0.2,0-0.5,0-0.7l0,0c0.2-0.5,0.5-1,0.8-1.7c1.3-2.6,3.1-6.1,4.4-7.9
						c0.1-0.2,0.4-0.2,0.6-0.1C359.8,176.4,359.8,176.7,359.7,176.9z"/>
				</g>
			</g>
			<g>
				<g>
					<path class="st1" d="M397.4,159.5L397.4,159.5c-7.8-0.2-13.9-3.4-17.6-6.1c-4-2.9-6.1-5.6-6.2-5.7c-0.2-0.2-0.1-0.5,0.1-0.6
						s0.5-0.1,0.6,0.1c0.1,0.1,8.5,11,23.1,11.4c0.3,0,0.4,0.2,0.4,0.5C397.9,159.3,397.7,159.5,397.4,159.5z"/>
				</g>
			</g>
			<g>
				<g>
					<path class="st1" d="M371.1,232.5c-0.2,0-0.4-0.2-0.5-0.4c0-0.2,0.2-0.5,0.4-0.5c12.8-0.8,20.5-7.2,24.7-12.4
						c4.5-5.7,6-11.2,6-11.3c0.1-0.2,0.3-0.4,0.6-0.3c0.2,0.1,0.4,0.3,0.3,0.5s-1.6,5.8-6.2,11.6
						C392.2,225.1,384.3,231.7,371.1,232.5L371.1,232.5z"/>
				</g>
			</g>
			<g>
				<g>
					<path class="st1" d="M377.9,224.5c-0.2,0-0.4-0.1-0.4-0.3c-0.1-0.2,0.1-0.5,0.3-0.5c11.2-3,13.3-12.1,13.3-12.2
						c0.1-0.2,0.3-0.4,0.5-0.3c0.2,0.1,0.4,0.3,0.3,0.5c0,0.1-0.6,2.5-2.6,5.3c-1.8,2.6-5.3,6-11.4,7.6
						C378,224.5,378,224.5,377.9,224.5z"/>
				</g>
			</g>
		</g>
		<g>
			<path class="st7" d="M426.8,246.7c-0.3,3.9-2.7,6.8-2.7,9.4s-3,0.9-1.6-4.2c1.4-5.1-0.7-10-1.8-10c-1.1,0,0.4,5.7-0.8,7.6
				c-1.2,1.9-2.1-2.1-3.1-4.5c-1.1-2.5-0.5-7.8,0.5-11.6c1-3.7-3.8-27.3-3.1-34l-1.7-8.6l-1-5l-0.2-5.3l9.1-3.5
				c0.3,1.7,0.7,3.4,1,5.2c0.2,0.8,0.3,1.6,0.5,2.3c1.2,6.3,2.3,12.5,2.8,16.5c1.2,11-0.8,33.4-0.8,33.4S427.1,243.1,426.8,246.7z"
				/>
			<path class="st13" d="M421.9,184.6c-2.1,2.3-5.3,5.2-9.4,6.3l-1-5l-0.2-5.3l9.1-3.5c0.3,1.7,0.7,3.4,1,5.2
				C421.6,183,421.7,183.8,421.9,184.6z"/>
			<g>
				<path class="st3" d="M424.4,179.6c0,0-1.1,1.3-3,2.7c-2.3,1.7-5.8,3.6-10,3.6c-0.5-14.6-1.2-26.9-2.3-30.5
					C411.1,157.7,420.3,169.2,424.4,179.6z"/>
			</g>
		</g>
		<g>
			<g>
				<path class="st1" d="M405.2,175.4c1.7,2.2,4.2,7.3,5.3,9.7c0.2,0.3,0.3,0.6,0.4,0.8c0.1,0.3,0.2,0.4,0.2,0.4
					c0.1,0.2,0.2,0.3,0.4,0.3l0,0c0-0.2,0-0.5,0-0.7c0.1,0,0.3,0,0.4,0c-0.1-0.1-0.2-0.5-0.4-0.9c-0.3-0.6-0.6-1.4-1.1-2.2
					c-1.3-2.6-3.1-6.1-4.4-7.9c-0.2-0.2-0.4-0.2-0.6-0.1C405.1,174.9,405.1,175.2,405.2,175.4z"/>
			</g>
		</g>
		<g>
			<path class="st9" d="M396.9,118.5c0,7.9-5,13.3-13,13.3c-8.1,0-13.7-5.8-13.7-13.7s4.8-13.9,12.8-13.9
				C392.8,104.2,396.9,110.6,396.9,118.5z"/>
			<g>
				<path class="st13" d="M395.1,121.9c0,0,2.2-2.9,3.9-0.5c1.7,2.4-0.7,9.6-4.8,7.8L395.1,121.9z"/>
				<g>
					<g>
						<g>
							<path class="st14" d="M395.2,127c0.2,0,0.3-0.1,0.3-0.2c0.6-2.2,3-3.1,3-3.1c0.2-0.1,0.3-0.3,0.2-0.4
								c-0.1-0.2-0.3-0.3-0.4-0.2c-0.1,0-2.7,1-3.4,3.6C394.8,126.8,394.9,126.9,395.2,127C395.1,127,395.1,127,395.2,127z"/>
						</g>
					</g>
				</g>
				<g>
					<g>
						<g>
							<path class="st14" d="M397.5,125.9c0.1,0,0.1,0,0.2-0.1c0.2-0.1,0.2-0.3,0.1-0.5c0,0-0.4-0.6-1.3-1c-0.2-0.1-0.4,0-0.5,0.2
								s0,0.4,0.2,0.4c0.7,0.3,1,0.8,1,0.8C397.3,125.8,397.4,125.9,397.5,125.9z"/>
						</g>
					</g>
				</g>
			</g>
			<g>
				<path class="st13" d="M372.1,121.9c0,0-2.2-2.9-3.9-0.5c-1.7,2.4,0.7,9.6,4.8,7.8L372.1,121.9z"/>
				<g>
					<path class="st14" d="M372.1,127c-0.2,0-0.3-0.1-0.3-0.2c-0.6-2.2-3-3.1-3-3.1c-0.2-0.1-0.3-0.3-0.2-0.4
						c0.1-0.2,0.3-0.3,0.4-0.2c0.1,0,2.7,1,3.4,3.6C372.4,126.8,372.3,126.9,372.1,127L372.1,127z"/>
				</g>
				<g>
					<g>
						<g>
							<path class="st14" d="M369.7,125.9c-0.1,0-0.1,0-0.2-0.1c-0.2-0.1-0.2-0.3-0.1-0.5c0,0,0.4-0.6,1.3-1c0.2-0.1,0.4,0,0.5,0.2
								s0,0.4-0.2,0.4c-0.7,0.3-1,0.8-1,0.8C369.9,125.8,369.8,125.9,369.7,125.9z"/>
						</g>
					</g>
				</g>
			</g>
			<path class="st7" d="M378.1,135.3v7.1c0,0,2.2,3.6,5.1,3.9c2.9,0.2,5.5-3.1,5.5-3.1v-7.3L378.1,135.3z"/>
			<path class="st13" d="M378.1,135.3v3.1c2,2.1,5.4,2.7,10.6,1.9v-4.6L378.1,135.3z"/>
			<path class="st7" d="M396.3,121.7c-0.1,1.5-0.3,3.1-0.6,4.7c-1,5.2-3.2,10.4-7.9,12c-10.7,3.7-14.5-5.2-16-10.5
				c-0.2-0.6-0.3-1.2-0.5-1.9c-0.2-1.2-0.4-2.6-0.6-4c-0.2-1.7-0.3-3.4-0.4-4.9c-0.2-3.2,1.8-6.1,4.8-7.2c4.4-1.6,11-3,17.3,0.5
				c2.3,1.3,3.8,3.7,3.8,6.3C396.5,118.1,396.5,119.8,396.3,121.7z"/>
			<path class="st9" d="M395,122c-0.4,0.6-2.4,6.7-2.9,7.5c-1.3-2.7-7.4-0.7-7.4-0.7c-0.4,0.1-0.8,0.2-1.2,0.2
				c-0.4,0-0.8-0.1-1.1-0.2l0,0c0,0-6.2-1.9-7.4,1c-0.6-0.8-2.3-6.8-2.6-7.8h-1.6c0.1,1.4,0.3,2.8,0.6,4c0.1,0.7,0.3,1.3,0.5,1.9
				c1.5,5.2,5.3,14.2,16,10.5c4.7-1.7,6.9-6.8,7.9-12c0.3-1.6,0.5-3.2,0.6-4.7L395,122z M389.3,133L389.3,133L389.3,133
				c-0.5,0.4-1,0.8-1.4,1.1c-2.7,1.4-3,1.2-4.1,1.3s-2.6-0.3-4.1-1.1c-0.5-0.3-1.2-0.8-2-1.5c0,0-1.1-3.7,5.9-2.8
				C390.6,128.9,389.4,132.3,389.3,133z"/>
			<path class="st9" d="M388.2,122.8c0,0.8,0.4,1.4,0.9,1.4s0.9-0.6,0.9-1.4s-0.4-1.4-0.9-1.4C388.6,121.5,388.2,122.1,388.2,122.8z
				"/>
			<path class="st9" d="M377.7,122.8c0,0.8,0.4,1.4,0.9,1.4s0.9-0.6,0.9-1.4s-0.4-1.4-0.9-1.4S377.7,122,377.7,122.8z"/>
			<path class="st9" d="M392.6,119c0,0-3.4-1.3-6-0.2l0.3,1.4c0,0,3.9-0.3,5.8,0.5C392.8,120.1,392.8,119.5,392.6,119z"/>
			<path class="st9" d="M375.7,119c0,0,3.4-1.3,6-0.2l-0.3,1.4c0,0-3.9-0.3-5.8,0.5C375.5,120.1,375.4,119.5,375.7,119z"/>
			<g>
				<path class="st13" d="M383.5,128.1c-0.6,0-1.2-0.2-1.2-0.3c-0.2-0.1-0.3-0.3-0.2-0.4c0.1-0.2,0.3-0.3,0.4-0.2
					c0.3,0.1,1.1,0.3,1.4,0.1c0.1,0,0.1-0.1,0.2-0.3c0.1-1.2-0.2-5.1-0.2-5.2c0-0.2,0.1-0.3,0.3-0.4c0.2,0,0.4,0.1,0.4,0.3
					c0,0.2,0.3,4,0.2,5.3c0,0.5-0.3,0.7-0.5,0.8C384,128.1,383.8,128.1,383.5,128.1z"/>
			</g>
			<path class="st8" d="M388.2,130.6c-0.3,1.4-1.2,3.9-4.4,3.9c-3.2,0-4-2.3-4.3-3.9H388.2z"/>
			<path class="st9" d="M370.8,122h1.6c-0.2-1.5-0.4-4.2,0.9-4.6c4.1-1.2-1.2-4,0.6-5.4c1.8-1.4,6.4-0.8,9.6-0.9s8.3-0.1,9.6,0.2
				c1.2,0.3,0.6,2.3,0.1,3.9s1.5,3.3,1.9,4.9c0.1,0.5,0.1,1.2,0,1.9h1.3c0.2-2,0.2-3.8,0.1-5.3c-0.1-2.6-1.5-5-3.8-6.3
				c-6.3-3.5-12.9-2.2-17.3-0.5c-3,1.1-5,4.1-4.8,7.2C370.5,118.5,370.7,120.3,370.8,122z"/>
		</g>
	</g>
	<g>
		<g>
			<g>
				<g>
					<path class="st8" d="M142.2,294.7H63c1.3-7.9,7.6-13.7,15-13.7l24.6,0.1l24.6-0.1C134.6,281,140.8,286.7,142.2,294.7z"/>
				</g>
				<g>
					<rect x="69.2" y="293.5" class="st8" width="4.3" height="73.8"/>
					<rect x="131.6" y="293.5" class="st8" width="4.3" height="73.8"/>
					<rect x="73.5" y="314.2" class="st0" width="58.1" height="4.2"/>
				</g>
			</g>
			<g>
				<g>
					<path class="st1" d="M83.2,195.3c0,0-13.2,17.6-15,33c-1.2,10.9,15,27.1,15,27.1l5.6-2.8L83.2,240c-2-6.1-4.4-8.5-2.6-14.7
						l4-8.7L83.2,195.3z"/>
				</g>
				<g>
					<path class="st1" d="M124.9,195c0,0,13,18.8,14.1,34.2c0.9,13.3-15,26.1-15,26.1l-4.6-2.3l6.4-12.7c2-6.1,2.9-9.8,0.2-16.5
						l-3.4-7.3L124.9,195z"/>
				</g>
				<g>
					<g>
						<path class="st3" d="M85.9,235.5l-8.8,27.9c0,0,37.9,4.8,49.5,1.7l-5.9-30.4l4.1-39.6c-5.7-2.4-11.7-3.9-17.8-4.4
							c-9-0.6-14.6,0.8-23.8,4.6L85.9,235.5z"/>
					</g>
					<g>
						<g>
							<path class="st1" d="M95.4,203.7c8.4-1,16.2-6.7,16.5-7c0.2-0.2,0.2-0.4,0.1-0.7c-0.2-0.2-0.4-0.2-0.7-0.1
								c-0.1,0.1-9.3,6.8-18.1,6.9c-0.3,0-0.5,0.2-0.5,0.5s0.2,0.5,0.5,0.5C94,203.8,94.7,203.8,95.4,203.7z"/>
						</g>
					</g>
				</g>
				<g>
					<polygon class="st7" points="102.1,353.1 102.8,359.2 109.3,359.4 109.9,354.3 					"/>
					<g>
						<path class="st10" d="M101.1,255.5c0,0-17-0.9-22.7,3.8c-5.7,4.7-4.6,18.2,1.3,21.9c5.9,3.7,15.8,10.9,15.8,10.9l6.3,63.1
							l8.4,0.3c0,0,7.7-63.3,3.8-75.6C110.1,267.5,101.1,255.5,101.1,255.5z"/>
						<path class="st9" d="M111,352.2c0.5,1.5,0.2,2.9-0.2,4.3l-9.6-0.2c-0.3-1.4-0.4-2.8-0.2-4.2L111,352.2z"/>
					</g>
				</g>
				<g>
					<path class="st8" d="M125.1,255H80.6l-4.1-24c-0.4-2.1,1.2-4,3.4-4h46c2.1,0,3.7,1.9,3.4,4L125.1,255z"/>
					<g>
						<path class="st0" d="M121.5,260.2H84.2c-2,0-3.6-1.6-3.6-3.6V255h44.5v1.6C125.1,258.6,123.5,260.2,121.5,260.2z"/>
					</g>
					<g>
						<path class="st0" d="M106.8,242c0,2.1-1.7,3.9-3.9,3.9c-2.1,0-3.9-1.7-3.9-3.9c0-2.1,1.7-3.9,3.9-3.9
							C105.1,238.1,106.8,239.9,106.8,242z"/>
					</g>
				</g>
				<g>
					<polygon class="st7" points="74.3,335.8 72.9,341.9 78.7,343 81.1,337.6 					"/>
					<g>
						<path class="st9" d="M109.7,254.4c0,0-11.4-3.9-18,4.3c-6.7,8.2-17.8,77.6-17.8,77.6l7.6,3.2l24.6-61.6c0,0,20,11.4,22.4-4.8
							C130.4,260.2,109.7,254.4,109.7,254.4z"/>
						<path class="st11" d="M83.3,336.3c0,1.6-0.7,2.9-1.6,4.2l-9.4-3.3c0.1-1.5,0.5-2.9,1.2-4.2L83.3,336.3z"/>
					</g>
				</g>
				<g>
					<g>
						<path class="st3" d="M77.3,340.9c0,0-3.6-1.8-4.6-2s-9.7,5.9-12.2,5.9c-4.4-0.1-5.9,6.4-3.3,7.3c7.3,2.6,20.8,2.3,20.8,2.3
							s3-8.1,3.1-10.9C81.2,340.7,79.3,342.1,77.3,340.9z"/>
					</g>
					<g>
						<g>
							<path class="st8" d="M69.6,346.7c0.1,0.1,0.3,0.1,0.4,0c0.3-0.1,0.4-0.4,0.3-0.7c0-0.1-0.9-2.2-2.4-3.2
								c-1.9-1.3-3.7-0.4-3.8-0.4c-0.3,0.1-0.4,0.5-0.2,0.7c0.1,0.3,0.5,0.3,0.7,0.2c0,0,1.3-0.6,2.6,0.3c1.2,0.8,2,2.7,2,2.7
								C69.3,346.5,69.4,346.6,69.6,346.7z"/>
						</g>
						<g>
							<path class="st8" d="M71.3,345.4c0.1,0.1,0.3,0.1,0.4,0c0.3-0.1,0.4-0.4,0.3-0.7c0-0.1-0.9-2.2-2.4-3.2
								c-1.9-1.3-3.7-0.4-3.8-0.4c-0.3,0.1-0.4,0.5-0.2,0.7c0.1,0.3,0.5,0.3,0.7,0.2c0,0,1.3-0.6,2.6,0.3c1.2,0.8,2,2.7,2,2.7
								C71.1,345.3,71.2,345.4,71.3,345.4z"/>
						</g>
						<g>
							<path class="st8" d="M67.3,347.5c0.1,0.1,0.3,0.1,0.4,0c0.3-0.1,0.4-0.4,0.3-0.7c0-0.1-0.9-2.2-2.4-3.2
								c-1.9-1.3-3.7-0.4-3.8-0.4c-0.3,0.1-0.4,0.5-0.2,0.7c0.1,0.3,0.5,0.3,0.7,0.2c0,0,1.3-0.6,2.6,0.3c1.2,0.8,2,2.7,2,2.7
								C67,347.4,67.1,347.5,67.3,347.5z"/>
						</g>
					</g>
				</g>
				<g>
					<g>
						<path class="st3" d="M105.3,359c0,0,3.6-1.1,4.7-1.1c1,0,8.1,7.2,10.4,7.5c4.2,0.6,4.4,7,1.9,7.4c-7.3,1.2-20-1.3-20-1.3
							s-1.5-8.1-1.1-10.7C101.7,358.2,103.3,359.8,105.3,359z"/>
					</g>
					<g>
						<g>
							<path class="st8" d="M111.7,365.7c-0.1,0-0.3,0-0.4-0.1c-0.2-0.1-0.3-0.5-0.2-0.7c0-0.1,1.2-1.9,2.7-2.6
								c2-0.9,3.5,0.2,3.6,0.3c0.2,0.2,0.3,0.5,0.1,0.7c-0.2,0.2-0.5,0.3-0.7,0.1c0,0-1.1-0.8-2.5-0.2c-1.2,0.6-2.3,2.2-2.3,2.2
								C111.9,365.6,111.8,365.7,111.7,365.7z"/>
						</g>
						<g>
							<path class="st8" d="M110.2,364.3c-0.1,0-0.3,0-0.4-0.1c-0.2-0.1-0.3-0.5-0.2-0.7c0-0.1,1.2-1.9,2.7-2.6
								c2-0.9,3.5,0.2,3.6,0.3c0.2,0.2,0.3,0.5,0.1,0.7c-0.2,0.2-0.5,0.3-0.7,0.1c0,0-1.1-0.8-2.5-0.2c-1.2,0.6-2.3,2.2-2.3,2.2
								C110.4,364.2,110.3,364.2,110.2,364.3z"/>
						</g>
						<g>
							<path class="st8" d="M113.7,366.9c-0.1,0-0.3,0-0.4-0.1c-0.2-0.1-0.3-0.5-0.2-0.7c0-0.1,1.2-1.9,2.7-2.6
								c2-0.9,3.5,0.2,3.6,0.3c0.2,0.2,0.3,0.5,0.1,0.7c-0.2,0.2-0.5,0.3-0.7,0.1c0,0-1.1-0.8-2.5-0.2c-1.2,0.6-2.3,2.2-2.3,2.2
								C113.9,366.8,113.8,366.9,113.7,366.9z"/>
						</g>
					</g>
				</g>
				<g>
					<path class="st9" d="M115.2,155.5c0,0,5.4,8.4,4.8,17.1c-0.6,8.7,0.8,18.8-7,18.3c-7.8-0.4-21.7,3.1-26.1-3.7
						C82.5,180.5,115.2,155.5,115.2,155.5z"/>
					<path class="st15" d="M117.2,170.9c0,0,1.4,12.6-4.6,16.1s-10.3-0.4-10.3-0.4S114.9,169,117.2,170.9z"/>
					<g>
						<g>
							<path class="st13" d="M92.4,170.9c0,0-2.1-2.9-3.7-0.5s0.7,9.4,4.6,7.7L92.4,170.9z"/>
							<g>
								<path class="st14" d="M92.3,175.9c-0.1,0-0.3-0.1-0.3-0.2c-0.6-2.2-2.8-3-2.9-3c-0.2-0.1-0.3-0.3-0.2-0.4
									c0.1-0.2,0.3-0.3,0.4-0.2c0.1,0,2.6,1,3.3,3.5C92.7,175.6,92.6,175.8,92.3,175.9C92.4,175.9,92.4,175.9,92.3,175.9z"/>
							</g>
							<g>
								<path class="st14" d="M90.1,174.8c-0.1,0-0.1,0-0.2-0.1c-0.2-0.1-0.2-0.3-0.1-0.5c0,0,0.4-0.6,1.2-1c0.2-0.1,0.4,0,0.4,0.2
									c0.1,0.2,0,0.4-0.2,0.4c-0.6,0.3-1,0.8-1,0.8C90.3,174.7,90.2,174.8,90.1,174.8z"/>
							</g>
						</g>
						<g>
							<path class="st13" d="M114.5,170.9c0,0,2.1-2.9,3.7-0.5s-0.7,9.4-4.6,7.7L114.5,170.9z"/>
							<g>
								<path class="st14" d="M114.5,175.9c0.1,0,0.3-0.1,0.3-0.2c0.6-2.2,2.8-3,2.9-3c0.2-0.1,0.3-0.3,0.2-0.4
									c-0.1-0.2-0.3-0.3-0.4-0.2c-0.1,0-2.6,1-3.3,3.5C114.2,175.6,114.3,175.8,114.5,175.9L114.5,175.9z"/>
							</g>
							<g>
								<path class="st14" d="M116.8,174.8c0.1,0,0.1,0,0.2-0.1c0.2-0.1,0.2-0.3,0.1-0.5c0,0-0.4-0.6-1.2-1c-0.2-0.1-0.4,0-0.4,0.2
									c-0.1,0.2,0,0.4,0.2,0.4c0.6,0.3,1,0.8,1,0.8C116.6,174.7,116.7,174.8,116.8,174.8z"/>
							</g>
						</g>
						<path class="st7" d="M108.7,184v7c0,0-2.1,3.5-4.9,3.8c-2.8,0.2-5.3-3.1-5.3-3.1v-7.2L108.7,184z"/>
						<path class="st13" d="M108.7,184v3.1c-1.9,2.1-5.2,2.8-10.2,2.1v-4.7L108.7,184z"/>
						<path class="st7" d="M116.1,166.1c-0.1,2.7-0.4,6.1-0.9,8.8c-0.1,0.7-0.3,1.3-0.4,1.9c-1.5,5.1-5.1,13.9-15.4,10.3
							c-4.5-1.6-6.6-6.7-7.6-11.8c-0.6-3.5-0.7-7-0.7-9.5c0-2.6,1.5-4.9,3.7-6.2c6.1-3.4,12.4-2.2,16.7-0.5
							C114.3,160.1,116.2,163,116.1,166.1z"/>
						<path class="st9" d="M98.9,171.9c0,0.7-0.4,1.3-0.9,1.3s-0.9-0.6-0.9-1.3s0.4-1.3,0.9-1.3C98.5,170.6,98.9,171.2,98.9,171.9z"
							/>
						<path class="st9" d="M109.5,171.9c0,0.7-0.4,1.3-0.9,1.3s-0.9-0.6-0.9-1.3s0.4-1.3,0.9-1.3
							C109.1,170.6,109.5,171.2,109.5,171.9z"/>
						<path class="st9" d="M96.4,167.5c0.7-0.2,2.1-0.5,3.7-0.5c0.4,0,0.7,0.4,0.6,0.7l0,0c-0.1,0.3-0.3,0.5-0.7,0.5
							c-1,0-3.7,0.1-5,0.6c0-0.2,0.1-0.5,0.3-0.7C95.6,167.8,95.9,167.6,96.4,167.5z"/>
						<path class="st9" d="M110.2,167.5c-0.7-0.2-2.1-0.5-3.7-0.5c-0.4,0-0.7,0.4-0.6,0.7l0,0c0.1,0.3,0.3,0.5,0.7,0.5
							c1,0,3.7,0.1,5,0.6c0-0.2-0.1-0.5-0.3-0.7C111,167.8,110.6,167.6,110.2,167.5z"/>
						<g>
							<path class="st13" d="M103.5,177.4c-0.3,0-0.5,0-0.7-0.2c-0.2-0.1-0.4-0.3-0.5-0.8c-0.1-1.2,0.2-5,0.2-5.2s0.2-0.3,0.4-0.3
								c0.2,0,0.3,0.2,0.3,0.4c0,0-0.3,3.9-0.2,5.1c0,0.2,0.1,0.3,0.2,0.3c0.3,0.2,1,0,1.3-0.1c0.2-0.1,0.4,0,0.4,0.2
								c0.1,0.2,0,0.4-0.2,0.4C104.7,177.2,104.1,177.4,103.5,177.4z"/>
						</g>
						<path class="st8" d="M99.3,179.5c0.2,1.3,1.1,3.6,3.9,3.6s3.6-2.1,3.9-3.6H99.3z"/>
						<g>
							<path class="st13" d="M103.2,185c-0.8,0-1.5-0.4-1.6-0.5c-0.2-0.1-0.2-0.3-0.1-0.5s0.3-0.2,0.5-0.1l0,0c0,0,0.6,0.4,1.2,0.4
								c0.7,0,1.3-0.4,1.3-0.4c0.2-0.1,0.4,0,0.5,0.1c0.1,0.2,0,0.4-0.1,0.5S104,185,103.2,185z"/>
						</g>
					</g>
					<path class="st9" d="M117.4,165.5c-0.1,0.3-0.4,0.5-0.8,0.6c0,0.7,0,1.6-0.1,2.4c-0.4,4.8-1.6,5.6-1.9,4.4
						c-0.2-0.8-0.2-5.3-0.1-6.8c-0.9-0.1-1.8-0.2-1.8-0.2l-1.1-4.6l-0.4,4.6c-1.7,0.6-5.5-0.3-5.5-0.3l-1.3-4.6l-0.8,4.4
						c-2.5,1.2-5.6,0.4-5.6,0.4l-0.7-4.7l-1.7,4.7c0,0-5.3,1.9-5.4,0c0-1.1,0.8-4.2,1.5-6.7c0.7-2.6,2.5-4.9,4.8-6.1
						c6.6-3.5,13.6-1.7,16-0.2C117.6,155.9,117.4,165.5,117.4,165.5z"/>
					<path class="st9" d="M93.2,155.9c0,0-4.4,5.2-5.8,14.5s-3.4,16.2,2.2,19.3c6.1,3.3,5.5-3.5,5.5-5.3c-0.1-1.9-5.3-6.9-1.8-21.2
						C94.3,158.5,93.2,155.9,93.2,155.9z"/>
					<path class="st15" d="M92.2,175.1L92.2,175.1c0,0.1,0,0.5,0,1c0,0.4,0,0.8,0.1,1.3c0.2,3.1,0.8,8.6,2.6,10.4
						c0.7,0.7,2.1,1.1,3.7,1.3v-2.5c-1.7-0.8-3-2.1-4-3.7c-0.6-1.4-1.7-3.5-2.2-6.9L92.2,175.1z"/>
					<path class="st8" d="M116.1,178.2c0,0.4-0.3,0.8-0.8,0.8c-0.4,0-0.8-0.3-0.8-0.8c0-0.4,0.3-0.8,0.8-0.8
						C115.8,177.4,116.1,177.7,116.1,178.2z"/>
				</g>
			</g>
		</g>
	</g>
	<g>
		<g>
			<g>
				<g>
					<path class="st4" d="M349.6,111.4h-19c-1.5,0-2.6-1.2-2.6-2.6v-19c0-1.5,1.2-2.6,2.6-2.6h19c1.5,0,2.6,1.2,2.6,2.6v19
						C352.3,110.3,351.1,111.4,349.6,111.4z"/>
				</g>
			</g>
			<g>
				<path class="st6" d="M348.4,99.3c0,2-0.7,3.8-1.9,5.3c-1.5,1.8-3.8,3-6.4,3s-4.9-1.2-6.4-3c-1.2-1.4-1.9-3.3-1.9-5.3
					c0-4.6,3.7-8.3,8.3-8.3C344.7,91,348.4,94.7,348.4,99.3z"/>
				<path class="st8" d="M346.5,104.6c-1.5,1.8-3.8,3-6.4,3s-4.9-1.2-6.4-3l0.1-0.2c0.2-0.4,0.4-0.7,0.7-0.9c0.3-0.3,0.6-0.4,1-0.6
					c1.3-0.4,2.6-0.8,3.3-2c-0.9-0.4-1.4-1.2-1.7-1.8c-0.9,0.2-1.6-1.5-1.1-2c0.2-0.2,0.4-0.2,0.6-0.2c0.2-1.8,1.6-3.3,3.4-3.3
					s3.3,1.6,3.4,3.3c0.2,0,0.4,0,0.6,0.2c0.5,0.5-0.2,2.2-1.1,2c-0.2,0.6-0.9,1.4-1.5,1.7c0.7,1.2,1.8,1.7,3.2,2.1
					c0.4,0.1,0.7,0.3,1,0.6c0.3,0.3,0.5,0.6,0.7,0.9L346.5,104.6z"/>
			</g>
		</g>
		<g>
			<g>
				<g>
					<path class="st4" d="M34,240.6H15c-1.5,0-2.6-1.2-2.6-2.6v-19c0-1.5,1.2-2.6,2.6-2.6h19c1.5,0,2.6,1.2,2.6,2.6v19
						C36.6,239.4,35.5,240.6,34,240.6z"/>
				</g>
			</g>
			<path class="st8" d="M24.9,220.4c-3.1-0.2-5.7,2.3-5.7,5.3c0,1,0.3,1.9,0.7,2.7c0.7,1.2,1.4,2.4,2.1,3.6l2.5,4.5l3.8-6.9
				c0.2-0.4,0.5-0.8,0.7-1.2c0.5-0.8,0.8-1.8,0.7-2.8C29.8,222.9,27.6,220.6,24.9,220.4z M24.5,227.3c-1.2,0-2.2-1-2.2-2.2
				s1-2.2,2.2-2.2s2.2,1,2.2,2.2S25.7,227.3,24.5,227.3z"/>
		</g>
		<g>
			<g>
				<g>
					<g>
						<path class="st3" d="M433.1,119.4c3,0,5.4,2.4,5.4,5.4s-2.4,5.4-5.4,5.4s-5.4-2.4-5.4-5.4
							C427.7,121.9,430.2,119.4,433.1,119.4z M433.1,128.6c2.1,0,3.7-1.7,3.7-3.7s-1.7-3.7-3.7-3.7c-2.1,0-3.7,1.7-3.7,3.7
							S431.1,128.6,433.1,128.6z"/>
					</g>
				</g>
			</g>
			<g>
				<path class="st4" d="M413.6,100.4c3,0,5.4,2.4,5.4,5.4s-2.4,5.4-5.4,5.4s-5.4-2.4-5.4-5.4C408.2,102.9,410.6,100.4,413.6,100.4z
					 M413.6,109.6c2.1,0,3.7-1.7,3.7-3.7c0-2.1-1.7-3.7-3.7-3.7c-2.1,0-3.7,1.7-3.7,3.7S411.6,109.6,413.6,109.6z"/>
			</g>
			<g>
				<g>
					<g>
						<g>
							<path class="st3" d="M406.9,82.8c0.5,0,0.9,0.4,0.9,0.9v3.8c0,0.5-0.4,0.9-0.9,0.9S406,88,406,87.5v-3.8
								C406.1,83.2,406.5,82.8,406.9,82.8z"/>
						</g>
					</g>
					<g>
						<g>
							<path class="st3" d="M406.9,76.2c0.5,0,0.9,0.4,0.9,0.9v3.8c0,0.5-0.4,0.9-0.9,0.9s-0.9-0.4-0.9-0.9v-3.8
								C406.1,76.6,406.5,76.2,406.9,76.2z"/>
						</g>
					</g>
				</g>
				<g>
					<g>
						<g>
							<path class="st3" d="M401.7,81.4h3.4c0.5,0,0.9,0.4,0.9,0.9s-0.4,0.9-0.9,0.9h-3.4c-0.5,0-0.9-0.4-0.9-0.9
								C400.8,81.8,401.2,81.4,401.7,81.4z"/>
						</g>
					</g>
					<g>
						<g>
							<path class="st3" d="M408.8,81.4h3.4c0.5,0,0.9,0.4,0.9,0.9s-0.4,0.9-0.9,0.9h-3.4c-0.5,0-0.9-0.4-0.9-0.9
								C408,81.8,408.3,81.4,408.8,81.4z"/>
						</g>
					</g>
				</g>
			</g>
			<g>
				<g>
					<g>
						<g>
							<g>
								<path class="st4" d="M436.9,103.8c0.5,0,0.9,0.4,0.9,0.9v3.8c0,0.5-0.4,0.9-0.9,0.9s-0.9-0.4-0.9-0.9v-3.8
									C436,104.2,436.4,103.8,436.9,103.8z"/>
							</g>
						</g>
						<g>
							<g>
								<path class="st4" d="M436.9,97.3c0.5,0,0.9,0.4,0.9,0.9v3.8c0,0.5-0.4,0.9-0.9,0.9s-0.9-0.4-0.9-0.9v-3.8
									C436,97.6,436.4,97.3,436.9,97.3z"/>
							</g>
						</g>
					</g>
					<g>
						<g>
							<g>
								<path class="st4" d="M431.6,102.4h3.4c0.5,0,0.9,0.4,0.9,0.9s-0.4,0.9-0.9,0.9h-3.4c-0.5,0-0.9-0.4-0.9-0.9
									S431.1,102.4,431.6,102.4z"/>
							</g>
						</g>
						<g>
							<g>
								<path class="st4" d="M438.8,102.4h3.4c0.5,0,0.9,0.4,0.9,0.9s-0.4,0.9-0.9,0.9h-3.4c-0.5,0-0.9-0.4-0.9-0.9
									S438.3,102.4,438.8,102.4z"/>
							</g>
						</g>
					</g>
				</g>
			</g>
		</g>
		<g>
			<g>
				<g>
					<g>
						<path class="st3" d="M97.3,50.2c3,0,5.4,2.4,5.4,5.4s-2.4,5.4-5.4,5.4s-5.4-2.4-5.4-5.4C91.9,52.6,94.3,50.2,97.3,50.2z
							 M97.3,51.9c-2.1,0-3.7,1.7-3.7,3.7c0,2.1,1.7,3.7,3.7,3.7c2.1,0,3.7-1.7,3.7-3.7C101.1,53.6,99.4,51.9,97.3,51.9z"/>
					</g>
				</g>
			</g>
			<g>
				<g>
					<g>
						<g>
							<path class="st4" d="M77.6,32.3c3,0,5.4,2.4,5.4,5.4s-2.4,5.4-5.4,5.4s-5.4-2.4-5.4-5.4S74.6,32.3,77.6,32.3z M77.6,34
								c-2.1,0-3.7,1.7-3.7,3.7c0,2.1,1.7,3.7,3.7,3.7c2.1,0,3.7-1.7,3.7-3.7C81.3,35.7,79.6,34,77.6,34z"/>
						</g>
					</g>
				</g>
			</g>
			<g>
				<g>
					<g>
						<g>
							<path class="st3" d="M70.4,63.3c0,0.5,0.4,0.9,0.9,0.9H75c0.5,0,0.9-0.4,0.9-0.9s-0.4-0.9-0.9-0.9h-3.8
								C70.8,62.4,70.4,62.8,70.4,63.3z"/>
						</g>
					</g>
					<g>
						<g>
							<path class="st3" d="M63.9,63.3c0,0.5,0.4,0.9,0.9,0.9h3.8c0.5,0,0.9-0.4,0.9-0.9s-0.4-0.9-0.9-0.9h-3.8
								C64.2,62.4,63.9,62.8,63.9,63.3z"/>
						</g>
					</g>
				</g>
				<g>
					<g>
						<g>
							<path class="st3" d="M69,58v3.4c0,0.5,0.4,0.9,0.9,0.9s0.9-0.4,0.9-0.9V58c0-0.5-0.4-0.9-0.9-0.9S69,57.6,69,58z"/>
						</g>
					</g>
					<g>
						<g>
							<path class="st3" d="M69,65.2v3.4c0,0.5,0.4,0.9,0.9,0.9s0.9-0.4,0.9-0.9v-3.4c0-0.5-0.4-0.9-0.9-0.9S69,64.7,69,65.2z"/>
						</g>
					</g>
				</g>
			</g>
			<g>
				<g>
					<g>
						<g>
							<g>
								<path class="st4" d="M110.2,34c0,0.5,0.4,0.9,0.9,0.9h3.8c0.5,0,0.9-0.4,0.9-0.9s-0.4-0.9-0.9-0.9H111
									C110.5,33.1,110.2,33.5,110.2,34z"/>
							</g>
						</g>
						<g>
							<g>
								<g>
									<path class="st4" d="M103.6,34c0,0.5,0.4,0.9,0.9,0.9h3.8c0.5,0,0.9-0.4,0.9-0.9s-0.4-0.9-0.9-0.9h-3.8
										C104,33.1,103.6,33.5,103.6,34z"/>
								</g>
							</g>
						</g>
					</g>
					<g>
						<g>
							<g>
								<path class="st4" d="M108.7,28.7v3.4c0,0.5,0.4,0.9,0.9,0.9s0.9-0.4,0.9-0.9v-3.4c0-0.5-0.4-0.9-0.9-0.9
									C109.1,27.9,108.7,28.3,108.7,28.7z"/>
							</g>
						</g>
						<g>
							<g>
								<path class="st4" d="M108.7,35.9v3.4c0,0.5,0.4,0.9,0.9,0.9s0.9-0.4,0.9-0.9v-3.4c0-0.5-0.4-0.9-0.9-0.9
									S108.7,35.4,108.7,35.9z"/>
							</g>
						</g>
					</g>
				</g>
			</g>
		</g>
		<g>
			<g>
				<g>
					<g>
						<path class="st0" d="M336.3,60.2c0.1,0,0.2,0,0.4,0c1.3-0.3,2-0.4,2-0.4c0.4-0.1,0.6-0.4,0.6-0.8c-0.1-0.4-0.4-0.6-0.8-0.5
							c0,0-0.8,0.1-2.1,0.5c-0.4,0.1-0.6,0.5-0.5,0.8C335.8,59.9,336,60.1,336.3,60.2z"/>
					</g>
				</g>
				<g>
					<g>
						<path class="st0" d="M294.6,91c-0.7,1.1-1.3,2.3-1.9,3.5c-0.1,0.3-0.5,0.4-0.8,0.4h-0.1c-0.4-0.2-0.5-0.6-0.3-0.9
							c0.6-1.2,1.3-2.4,2-3.6c0.2-0.3,0.6-0.4,1-0.3C294.6,90.3,294.8,90.7,294.6,91z"/>
					</g>
					<g>
						<path class="st0" d="M291,98.2c-0.5,1.2-1,2.5-1.5,3.7c-0.1,0.3-0.5,0.5-0.9,0.4c0,0,0,0-0.1,0c-0.4-0.1-0.6-0.5-0.4-0.9
							c0.5-1.3,1-2.6,1.5-3.8c0.1-0.3,0.6-0.5,0.9-0.4C291,97.5,291.1,97.8,291,98.2z"/>
					</g>
					<g>
						<path class="st0" d="M284.9,117.9c-0.3-0.1-0.6-0.4-0.5-0.7c0.2-1.3,0.4-2.7,0.6-4c0.1-0.4,0.4-0.6,0.8-0.5s0.7,0.4,0.6,0.8
							c-0.2,1.3-0.5,2.6-0.6,3.9C285.7,117.7,285.4,118,284.9,117.9C285,117.9,284.9,117.9,284.9,117.9z"/>
					</g>
					<g>
						<path class="st0" d="M287.8,104.9c0.4,0.1,0.6,0.5,0.5,0.8c-0.2,0.6-0.3,1.2-0.5,1.8c-0.2,0.7-0.4,1.4-0.5,2.1
							c-0.1,0.4-0.5,0.6-0.9,0.5l0,0c-0.4-0.1-0.6-0.4-0.5-0.8c0.2-0.7,0.3-1.4,0.5-2.1c0.2-0.6,0.3-1.2,0.5-1.8
							C287,105,287.4,104.8,287.8,104.9L287.8,104.9z"/>
					</g>
					<g>
						<path class="st0" d="M296.7,87.6c-0.2,0.3-0.5,0.4-0.8,0.3c-0.1,0-0.1,0-0.2-0.1c-0.3-0.2-0.4-0.6-0.2-0.9
							c0.8-1.1,1.6-2.3,2.4-3.3c0.2-0.3,0.7-0.4,1-0.2c0.3,0.2,0.4,0.6,0.2,0.9C298.3,85.4,297.5,86.5,296.7,87.6z"/>
					</g>
					<g>
						<path class="st0" d="M332.6,61.3c-1.3,0.4-2.6,0.9-3.9,1.4c-0.1,0.1-0.3,0.1-0.4,0c-0.2-0.1-0.4-0.2-0.5-0.4
							c-0.2-0.3,0-0.7,0.4-0.9c1.3-0.5,2.7-1,4-1.4c0.4-0.1,0.8,0.1,0.9,0.4C333.2,60.8,333,61.2,332.6,61.3z"/>
					</g>
					<g>
						<path class="st0" d="M321,66.2c-0.2,0.1-0.4,0.1-0.5,0.1c-0.2,0-0.4-0.2-0.5-0.3c-0.2-0.3-0.1-0.7,0.3-0.9
							c1.2-0.7,2.5-1.3,3.8-1.9c0.4-0.2,0.8,0,1,0.3s0,0.7-0.3,0.9C323.5,64.9,322.3,65.5,321,66.2z"/>
					</g>
					<g>
						<path class="st0" d="M307.4,75.5c-0.2,0.2-0.4,0.2-0.7,0.2c-0.1,0-0.2-0.1-0.3-0.2c-0.3-0.3-0.3-0.7,0-1
							c1-0.9,2.1-1.8,3.2-2.7c0.3-0.2,0.8-0.2,1,0.1c0.3,0.3,0.2,0.7-0.1,0.9C309.5,73.7,308.5,74.6,307.4,75.5z"/>
					</g>
					<g>
						<path class="st0" d="M313.9,70.4c-0.2,0.1-0.4,0.2-0.6,0.1c-0.2,0-0.3-0.1-0.4-0.3c-0.2-0.3-0.2-0.7,0.2-0.9
							c1.2-0.8,2.3-1.6,3.6-2.3c0.3-0.2,0.8-0.1,1,0.2c0.2,0.3,0.1,0.7-0.2,0.9C316.2,68.9,315.1,69.7,313.9,70.4z"/>
					</g>
					<g>
						<path class="st0" d="M301.7,81.2c-0.2,0.2-0.5,0.3-0.7,0.2c-0.1,0-0.2-0.1-0.3-0.1c-0.3-0.2-0.3-0.7-0.1-0.9
							c0.9-1,1.9-2.1,2.8-3c0.3-0.3,0.7-0.3,1,0s0.3,0.7,0,1C303.5,79.2,302.6,80.2,301.7,81.2z"/>
					</g>
				</g>
			</g>
			<g>
				<g>
					<g>
						<polygon class="st3" points="337,55.6 335.5,44.4 373.6,49.8 						"/>
					</g>
					<g>
						<polygon class="st1" points="373.6,49.8 338.4,58.5 338.3,58.5 336.6,60.5 337,55.6 						"/>
					</g>
					<g>
						<polygon class="st2" points="336.6,60.5 339.7,60.5 338.3,58.5 						"/>
					</g>
					<g>
						<polygon class="st3" points="342.8,57.4 338.3,58.5 345.5,68.7 373.6,49.8 						"/>
					</g>
				</g>
			</g>
		</g>
	</g>
</g>
<g id="DESIGNED_BY_FREEPIK">
	<g class="st16">
		<g id="XMLID_1_" class="st17">
			<g id="XMLID_20_">
				<path id="XMLID_28_" class="st18" d="M239,399c-0.4,0.4-0.8,0.9-1.1,1.5l-0.5-0.2c-0.1-0.3-0.3-0.5-0.7-0.5
					c-0.3,0-0.6,0.3-0.5,0.7c0,0.3,0.3,0.6,0.7,0.5c0.1,0,0.1,0,0.2-0.1l0.5,0.2c-0.3,0.6-0.4,1.1-0.5,1.7l0.7,0.1
					c0.2-1.3,0.8-2.5,1.8-3.5L239,399z"/>
				<path id="XMLID_27_" class="st18" d="M244.5,396.7c-0.2,0-0.3,0-0.5,0l-0.1-0.6c0.2-0.1,0.3-0.4,0.3-0.6c0-0.4-0.4-0.7-0.8-0.6
					c-0.4,0-0.7,0.4-0.6,0.8c0,0.3,0.2,0.5,0.4,0.6l0.1,0.6c-0.7,0.1-1.4,0.3-2.1,0.6l0.3,0.7c0.9-0.4,1.9-0.7,3-0.7
					c0.5,0,1,0.1,1.5,0.2l0.2-0.7C245.6,396.7,245,396.7,244.5,396.7z"/>
				<path id="XMLID_26_" class="st18" d="M251.1,399.2c0.3,0,0.6-0.3,0.5-0.7c0-0.3-0.3-0.6-0.7-0.5c-0.3,0-0.5,0.3-0.5,0.6L250,399
					c-0.4-0.4-0.9-0.8-1.4-1.1l-0.4,0.6c1.1,0.7,2,1.7,2.6,2.9l0.7-0.3c-0.3-0.6-0.6-1.1-0.9-1.5L251.1,399.2
					C250.9,399.2,251,399.2,251.1,399.2z"/>
				<path id="XMLID_25_" class="st18" d="M243.9,406.9c-0.4,0-0.8,0-1.2,0c-0.9,0-1.7-0.1-2.5-0.2c-0.4-0.1-0.8-0.2-1.3-0.3
					c1,1.9,3.1,3.1,5.4,3.1c2.9,0,5.3-1.9,5.9-4.5c-0.7,0.4-1.5,0.8-2.5,1.1C246.7,406.6,245.3,406.8,243.9,406.9z"/>
				<path id="XMLID_21_" class="st18" d="M244.5,398.2c-3.4,0-6.1,2.7-6.1,5.9c0,0.4,0,0.8,0.1,1.3c0.7,0.5,2.7,0.9,5.3,0.7
					c2.9-0.2,5.3-1,6.7-2.2c0-0.2,0-0.4,0-0.6C250.1,400.4,247.5,398.2,244.5,398.2z M242.3,404.7c-1,0-1.8-0.8-1.8-1.8
					s0.8-1.8,1.8-1.8s1.8,0.8,1.8,1.8C244.2,403.9,243.3,404.7,242.3,404.7z M247,403.8c-0.8,0-1.4-0.6-1.4-1.4s0.6-1.4,1.4-1.4
					c0.8,0,1.4,0.6,1.4,1.4S247.8,403.8,247,403.8z"/>
			</g>
			<path id="XMLID_18_" class="st18" d="M260.5,400.1c-0.3-0.1-0.8-0.3-1.4-0.2c-0.6,0.1-0.8,0.3-0.8,1v0.9h2.2v1.7h-2.2v5.5h-1.9
				v-5.5H255v-1.7h1.3v-0.9c0-1.7,0.9-2.8,2.6-2.8c0.6,0,1.2,0.1,1.6,0.3V400.1z"/>
			<path id="XMLID_16_" class="st18" d="M265.2,403.4c-0.2,0-0.4,0-0.5,0c-0.9,0-1.5,0.5-1.5,1.6v3.9h-1.9v-7.2h1.9v0.8
				c0.5-0.7,1.1-1,2-1c0.4,0,0.8,0.1,1.1,0.3L265.2,403.4z"/>
			<path id="XMLID_13_" class="st18" d="M272.8,405.3c0,0.2,0,0.5,0,0.7h-5.1c0.2,1,0.9,1.5,1.8,1.5c0.6,0,1.3-0.3,1.8-0.7l1.1,1.2
				c-0.8,0.7-1.9,1.1-3.1,1.1c-2.2,0-3.7-1.5-3.7-3.8s1.5-3.8,3.6-3.8C271.4,401.5,272.8,403,272.8,405.3z M267.7,404.6h3.2
				c-0.2-0.9-0.7-1.4-1.6-1.4C268.4,403.2,267.9,403.7,267.7,404.6z"/>
			<path id="XMLID_10_" class="st18" d="M280.5,405.3c0,0.2,0,0.5,0,0.7h-5.1c0.2,1,0.9,1.5,1.8,1.5c0.6,0,1.3-0.3,1.8-0.7l1.1,1.2
				c-0.8,0.7-1.9,1.1-3.1,1.1c-2.2,0-3.7-1.5-3.7-3.8s1.5-3.8,3.6-3.8C279.1,401.5,280.5,403,280.5,405.3z M275.4,404.6h3.2
				c-0.2-0.9-0.7-1.4-1.6-1.4S275.6,403.7,275.4,404.6z"/>
			<path id="XMLID_7_" class="st18" d="M288.8,405.3c0,2.2-1.5,3.8-3.5,3.8c-1,0-1.6-0.4-2.1-0.9v3.7h-1.9v-10.1h1.9v0.8
				c0.5-0.6,1.2-1,2.1-1C287.3,401.5,288.8,403.1,288.8,405.3z M283.2,405.3c0,1.1,0.7,2,1.8,2c1.1,0,1.9-0.9,1.9-2s-0.7-2-1.9-2
				C283.9,403.3,283.2,404.1,283.2,405.3z"/>
			<path id="XMLID_4_" class="st18" d="M291.9,399.3c0,0.7-0.5,1.2-1.2,1.2s-1.2-0.5-1.2-1.2s0.5-1.2,1.2-1.2
				C291.4,398.1,291.9,398.6,291.9,399.3z M291.7,408.9h-1.9v-7.2h1.9V408.9z"/>
			<path id="XMLID_2_" class="st18" d="M294.9,404.2l2.7-2.6h2.4l-3.5,3.4l3.5,3.8h-2.4l-2.7-2.9v2.9H293v-10.7h1.9V404.2z"/>
		</g>
		<g class="st17">
			<path class="st18" d="M163.3,408.8v-1.1c-0.5,0.7-1.4,1.2-2.4,1.2c-1.8,0-3.1-1.4-3.1-3.7c0-2.3,1.3-3.7,3.1-3.7
				c1,0,1.8,0.5,2.4,1.2V399h1.1v9.8H163.3z M163.3,406.9v-3.2c-0.4-0.6-1.2-1.1-2.1-1.1c-1.4,0-2.3,1.2-2.3,2.7
				c0,1.6,0.8,2.7,2.3,2.7C162,408,162.9,407.5,163.3,406.9z"/>
			<path class="st18" d="M165.8,405.2c0-2.1,1.5-3.7,3.5-3.7c2.1,0,3.4,1.7,3.4,3.8v0.3H167c0.1,1.3,1,2.4,2.5,2.4
				c0.8,0,1.6-0.3,2.2-0.9l0.5,0.7c-0.7,0.7-1.7,1.1-2.8,1.1C167.3,409,165.8,407.5,165.8,405.2z M169.3,402.5
				c-1.5,0-2.3,1.3-2.3,2.4h4.6C171.6,403.8,170.9,402.5,169.3,402.5z"/>
			<path class="st18" d="M173.5,407.9l0.6-0.8c0.5,0.5,1.4,1,2.3,1c1.1,0,1.7-0.5,1.7-1.2c0-1.7-4.4-0.7-4.4-3.3c0-1.1,1-2,2.6-2
				c1.2,0,2.1,0.5,2.6,1l-0.5,0.8c-0.4-0.5-1.2-0.9-2.1-0.9c-1,0-1.6,0.5-1.6,1.1c0,1.6,4.4,0.5,4.4,3.3c0,1.2-1,2.1-2.8,2.1
				C175.2,409,174.2,408.6,173.5,407.9z"/>
			<path class="st18" d="M180.4,400c0-0.4,0.3-0.7,0.7-0.7s0.7,0.3,0.7,0.7c0,0.4-0.3,0.7-0.7,0.7S180.4,400.4,180.4,400z
				 M180.5,408.8v-7.1h1.1v7.1H180.5z"/>
			<path class="st18" d="M183.5,410.6l0.6-0.8c0.6,0.7,1.3,1,2.3,1c1.2,0,2.3-0.6,2.3-2.1v-1c-0.5,0.7-1.4,1.3-2.4,1.3
				c-1.8,0-3.1-1.4-3.1-3.7c0-2.3,1.3-3.7,3.1-3.7c1,0,1.8,0.5,2.4,1.2v-1.1h1.1v6.9c0,2.3-1.6,3.1-3.4,3.1
				C185.1,411.7,184.3,411.4,183.5,410.6z M188.6,406.8v-3.1c-0.4-0.6-1.2-1.1-2.1-1.1c-1.4,0-2.3,1.1-2.3,2.7s0.8,2.7,2.3,2.7
				C187.4,407.9,188.2,407.4,188.6,406.8z"/>
			<path class="st18" d="M196.3,408.8v-4.6c0-1.2-0.6-1.6-1.6-1.6c-0.9,0-1.7,0.5-2.1,1.1v5.2h-1.1v-7.1h1.1v1
				c0.5-0.6,1.5-1.2,2.5-1.2c1.5,0,2.3,0.7,2.3,2.3v5L196.3,408.8L196.3,408.8z"/>
			<path class="st18" d="M198.8,405.2c0-2.1,1.5-3.7,3.5-3.7c2.1,0,3.4,1.7,3.4,3.8v0.3H200c0.1,1.3,1,2.4,2.5,2.4
				c0.8,0,1.6-0.3,2.2-0.9l0.5,0.7c-0.7,0.7-1.7,1.1-2.8,1.1C200.3,409,198.8,407.5,198.8,405.2z M202.3,402.5
				c-1.5,0-2.3,1.3-2.3,2.4h4.6C204.6,403.8,203.9,402.5,202.3,402.5z"/>
			<path class="st18" d="M212.2,408.8v-1.1c-0.5,0.7-1.4,1.2-2.4,1.2c-1.8,0-3.1-1.4-3.1-3.7c0-2.3,1.3-3.7,3.1-3.7
				c1,0,1.8,0.5,2.4,1.2V399h1.1v9.8H212.2z M212.2,406.9v-3.2c-0.4-0.6-1.2-1.1-2.1-1.1c-1.4,0-2.3,1.2-2.3,2.7
				c0,1.6,0.8,2.7,2.3,2.7C211,408,211.8,407.5,212.2,406.9z"/>
			<path class="st18" d="M218.6,408.8V399h1.1v3.8c0.6-0.8,1.4-1.2,2.4-1.2c1.8,0,3.1,1.5,3.1,3.7c0,2.3-1.3,3.7-3.1,3.7
				c-1,0-1.9-0.5-2.4-1.2v1.1h-1.1V408.8z M221.8,408c1.4,0,2.3-1.2,2.3-2.7c0-1.6-0.8-2.7-2.3-2.7c-0.9,0-1.7,0.5-2.1,1.1v3.2
				C220,407.5,220.9,408,221.8,408z"/>
			<path class="st18" d="M226.4,410.6c0.2,0.1,0.4,0.1,0.6,0.1c0.5,0,0.8-0.2,1.1-0.7l0.5-1.1l-3-7.1h1.2l2.4,5.8l2.3-5.8h1.2
				l-3.5,8.5c-0.4,1-1.1,1.4-2.1,1.4c-0.2,0-0.6,0-0.8-0.1L226.4,410.6z"/>
		</g>
	</g>
</g>
</svg>
