<?xml version="1.0" encoding="utf-8"?>
<!-- Generator: Adobe Illustrator 22.0.0, SVG Export Plug-In . SVG Version: 6.00 Build 0)  -->
<svg version="1.1" id="_x2014_ÎÓÈ_x5F_5" xmlns="http://www.w3.org/2000/svg" xmlns:xlink="http://www.w3.org/1999/xlink"
	 x="0px" y="0px" viewBox="0 0 332.5 296.9" style="enable-background:new 0 0 332.5 296.9;" xml:space="preserve">
<style type="text/css">
	.st0{fill:url(#SVGID_1_);}
	.st1{fill:url(#SVGID_2_);}
	.st2{fill:url(#SVGID_3_);}
	.st3{fill:url(#SVGID_4_);}
	.st4{fill:url(#SVGID_5_);}
	.st5{fill:url(#SVGID_6_);}
	.st6{fill:url(#SVGID_7_);}
	.st7{fill:#EEFDFF;}
	.st8{fill:url(#SVGID_8_);}
	.st9{fill:url(#SVGID_9_);}
	.st10{fill:url(#SVGID_10_);}
	.st11{fill:url(#SVGID_11_);}
	.st12{fill:#FFFFFF;}
	.st13{fill:url(#SVGID_12_);}
	.st14{fill:url(#SVGID_13_);}
	.st15{fill:url(#SVGID_14_);}
	.st16{fill:url(#SVGID_15_);}
	.st17{fill:url(#SVGID_16_);}
	.st18{fill:url(#SVGID_17_);}
	.st19{fill:url(#SVGID_18_);}
	.st20{fill:url(#SVGID_19_);}
	.st21{fill:url(#SVGID_20_);}
	.st22{fill:url(#SVGID_21_);}
	.st23{fill:url(#SVGID_22_);}
	.st24{fill:url(#SVGID_23_);}
	.st25{fill:url(#SVGID_24_);}
</style>
<g>
	<linearGradient id="SVGID_1_" gradientUnits="userSpaceOnUse" x1="126.1299" y1="82.7943" x2="138.9893" y2="117.6981">
		<stop  offset="0" style="stop-color:#AEF0EB"/>
		<stop  offset="1.309597e-02" style="stop-color:#B0F0EB"/>
		<stop  offset="0.1379" style="stop-color:#C2F4EB"/>
		<stop  offset="0.2895" style="stop-color:#CEF6EA"/>
		<stop  offset="0.4961" style="stop-color:#D5F8EA"/>
		<stop  offset="1" style="stop-color:#D7F8EA"/>
	</linearGradient>
	<path class="st0" d="M145.6,85.1c0,0,2.1,28,13.7,34.6c0,0-37.4-6.5-46.5-20.4C103.6,85.2,145.6,85.1,145.6,85.1z"/>
	
		<linearGradient id="SVGID_2_" gradientUnits="userSpaceOnUse" x1="111.088" y1="210.6419" x2="189.9849" y2="129.7011" gradientTransform="matrix(0.1117 0.9937 -0.9937 0.1117 392.8495 48.1706)">
		<stop  offset="3.968250e-02" style="stop-color:#06BED8"/>
		<stop  offset="1" style="stop-color:#DEFA8E"/>
	</linearGradient>
	<path class="st1" d="M182.8,167.6c23,6.3,28.5,4.5,32.6,10.7c0.5,0.7,2.9,4.3,2.4,9c-0.4,3.7-2.4,6.6-3.7,7.8
		c-7.9,7.6-29.6-1.7-42-11.9c-2.7-2.2-10-8.2-8.5-12.4c0.6-1.7,2.5-2.6,3.8-3.2C173.2,164.9,179.4,166.6,182.8,167.6z"/>
	<linearGradient id="SVGID_3_" gradientUnits="userSpaceOnUse" x1="241.4753" y1="30.3989" x2="256.1718" y2="28.2557">
		<stop  offset="3.968250e-02" style="stop-color:#06CFF1"/>
		<stop  offset="1" style="stop-color:#DEFA8E"/>
	</linearGradient>
	<rect x="249" y="12.9" class="st2" width="4.9" height="32.1"/>
	<linearGradient id="SVGID_4_" gradientUnits="userSpaceOnUse" x1="237.7269" y1="67.7164" x2="263.8077" y2="38.2704">
		<stop  offset="3.968250e-02" style="stop-color:#06CFF1"/>
		<stop  offset="1" style="stop-color:#DEFA8E"/>
	</linearGradient>
	<path class="st3" d="M268.4,62.8h-33.8c-2.5,0-4.5-2-4.5-4.5V46.2c0-2.5,2-4.5,4.5-4.5h33.8c2.5,0,4.5,2,4.5,4.5v12.1
		C272.9,60.8,270.9,62.8,268.4,62.8z"/>
	<linearGradient id="SVGID_5_" gradientUnits="userSpaceOnUse" x1="199.9512" y1="169.7118" x2="303.2996" y2="66.3633">
		<stop  offset="3.968250e-02" style="stop-color:#06CFF1"/>
		<stop  offset="1" style="stop-color:#DEFA8E"/>
	</linearGradient>
	<path class="st4" d="M328.2,133c0,19.5-15.8,35.4-35.4,35.4h-82.7c-19.4,0-35.4-15.9-35.4-35.4v-18.4c0-34.6,28.3-62.9,62.9-62.9
		h27.6c34.6,0,62.9,28.3,62.9,62.9V133z"/>
	<linearGradient id="SVGID_6_" gradientUnits="userSpaceOnUse" x1="251.1875" y1="131.056" x2="252.106" y2="89.7225">
		<stop  offset="0" style="stop-color:#030D14"/>
		<stop  offset="1" style="stop-color:#0B2F45"/>
	</linearGradient>
	<path class="st5" d="M304,129.7L304,129.7c-2,1-4.3,1.5-6.5,1.5h-92.1c-2.3,0-4.5-0.5-6.5-1.5l0,0c-4.9-2.4-7.7-7.4-7-12.4l0.1-0.4
		c2.4-17.1,17.8-30.2,36.8-31.2c8-0.4,16.5-0.6,25.3-0.6c6.9,0,13.5,0.2,20,0.6c19.1,1,34.7,14.1,37,31.2c0,0.1,0,0.2,0.1,0.4
		C311.7,122.3,309,127.3,304,129.7z"/>
	<g>
		<radialGradient id="SVGID_7_" cx="227.1983" cy="110.0789" r="17.1784" gradientUnits="userSpaceOnUse">
			<stop  offset="0.1296" style="stop-color:#3280FC"/>
			<stop  offset="1" style="stop-color:#000000"/>
		</radialGradient>
		<circle class="st6" cx="227.2" cy="110.1" r="17.4"/>
		<g>
			<circle class="st7" cx="227.2" cy="110.1" r="12.5"/>
		</g>
		<g>
			<linearGradient id="SVGID_8_" gradientUnits="userSpaceOnUse" x1="216.7339" y1="110.0789" x2="237.6627" y2="110.0789">
				<stop  offset="0" style="stop-color:#030D14"/>
				<stop  offset="1" style="stop-color:#0B2F45"/>
			</linearGradient>
			<circle class="st8" cx="227.2" cy="110.1" r="10.5"/>
		</g>
		<g>
			<path class="st7" d="M233.9,107.4c0,2.1-1.7,3.9-3.9,3.9c-2.1,0-3.9-1.7-3.9-3.9s1.7-3.9,3.9-3.9
				C232.2,103.5,233.9,105.2,233.9,107.4z"/>
		</g>
		<g>
			<circle class="st7" cx="225.7" cy="118.1" r="1.5"/>
		</g>
		<g>
			<path class="st7" d="M221.8,115.8c0,0.4-0.3,0.8-0.8,0.8c-0.4,0-0.8-0.3-0.8-0.8c0-0.4,0.3-0.8,0.8-0.8
				C221.5,115,221.8,115.4,221.8,115.8z"/>
		</g>
	</g>
	<g>
		<radialGradient id="SVGID_9_" cx="274.0905" cy="110.0789" r="17.1784" gradientUnits="userSpaceOnUse">
			<stop  offset="0.1296" style="stop-color:#3280FC"/>
			<stop  offset="1" style="stop-color:#000000"/>
		</radialGradient>
		<circle class="st9" cx="274.1" cy="110.1" r="17.4"/>
		<g>
			<circle class="st7" cx="274.1" cy="110.1" r="12.5"/>
		</g>
		<g>
			<linearGradient id="SVGID_10_" gradientUnits="userSpaceOnUse" x1="263.6261" y1="110.0789" x2="284.5549" y2="110.0789">
				<stop  offset="0" style="stop-color:#030D14"/>
				<stop  offset="1" style="stop-color:#0B2F45"/>
			</linearGradient>
			<circle class="st10" cx="274.1" cy="110.1" r="10.5"/>
		</g>
		<g>
			<path class="st7" d="M280.8,107.4c0,2.1-1.7,3.9-3.9,3.9s-3.9-1.7-3.9-3.9s1.7-3.9,3.9-3.9S280.8,105.2,280.8,107.4z"/>
		</g>
		<g>
			<circle class="st7" cx="272.5" cy="118.1" r="1.5"/>
		</g>
		<g>
			<path class="st7" d="M268.7,115.8c0,0.4-0.3,0.8-0.8,0.8c-0.4,0-0.8-0.3-0.8-0.8c0-0.4,0.3-0.8,0.8-0.8
				C268.4,115,268.7,115.4,268.7,115.8z"/>
		</g>
	</g>
	<linearGradient id="SVGID_11_" gradientUnits="userSpaceOnUse" x1="238.2466" y1="12.6524" x2="257.6959" y2="9.816">
		<stop  offset="3.968250e-02" style="stop-color:#06CFF1"/>
		<stop  offset="1" style="stop-color:#DEFA8E"/>
	</linearGradient>
	<path class="st11" d="M257.7,10.7c0,3.5-2.8,6.3-6.3,6.3c-3.5,0-6.3-2.8-6.3-6.3c0-3.5,2.8-6.3,6.3-6.3
		C254.9,4.4,257.7,7.3,257.7,10.7z"/>
	<path class="st12" d="M255.8,8.3c0,1.1-0.9,1.9-1.9,1.9c-1.1,0-1.9-0.9-1.9-1.9c0-1.1,0.9-1.9,1.9-1.9C255,6.4,255.8,7.2,255.8,8.3
		z"/>
	<path class="st12" d="M305.5,71.9c0.1,2.9-2.3,6.4-5,6.7c-2.6,0.3-4.6-2.3-6.7-5c-2.1-2.7-6.6-9.5-4.8-11.5
		C291.3,59.6,305.3,65,305.5,71.9z"/>
	<circle class="st12" cx="282" cy="58.5" r="2.2"/>
	<path class="st12" d="M305.2,112.5c-0.7,0.5-5.6-9.4-18.7-18.1c-4.6-3-9.1-5.2-8.9-5.8c0.3-0.6,5.4,0.5,9.5,2.4
		C300.2,97.2,306,111.9,305.2,112.5z"/>
	<path class="st12" d="M271.7,47.9c-0.2,0-0.3-0.9-1-2.3c0,0-0.4-0.7-0.8-1.2c-1.3-1.8-5.8-1.8-6.1-1.8c-6.9,0.1-11.4-0.4-11.4-0.3
		c0,0,3.3,0,5.6-0.1c6.7-0.1,10.7-0.5,12.5,1.3c0.7,0.7,1.1,1.7,1.1,1.7C272,46.5,271.8,47.9,271.7,47.9z"/>
	<path class="st7" d="M270.2,138.7c-0.2,1.7-1.6,2.9-3.2,3.1l-23,2.2c-1.7,0.2-3.3-0.8-3.8-2.4c-0.2-0.7-0.4-1.4-0.5-2.2
		c0-0.2,0-0.4,0.2-0.6c0.1-0.2,0.3-0.3,0.5-0.3l29-2.8c0.2,0,0.4,0,0.6,0.2c0.2,0.1,0.3,0.3,0.3,0.5
		C270.3,137.2,270.3,137.9,270.2,138.7z"/>
	<linearGradient id="SVGID_12_" gradientUnits="userSpaceOnUse" x1="250.8313" y1="147.1102" x2="280.7542" y2="117.1873">
		<stop  offset="7.142860e-02" style="stop-color:#0DA9AB"/>
		<stop  offset="1" style="stop-color:#DEFA8E"/>
	</linearGradient>
	<path class="st13" d="M270.2,138.7c-0.7,7.1-6.4,13-13.8,13.7c-7.3,0.7-13.9-3.8-16.1-10.5c0.6,1.4,2.1,2.3,3.7,2.1l23-2.2
		C268.7,141.6,270,140.3,270.2,138.7z"/>
	<linearGradient id="SVGID_13_" gradientUnits="userSpaceOnUse" x1="222.5702" y1="237.9143" x2="301.8509" y2="145.3349">
		<stop  offset="3.968250e-02" style="stop-color:#06CFF1"/>
		<stop  offset="4.075459e-02" style="stop-color:#06CFF1"/>
		<stop  offset="0.1607" style="stop-color:#37D9DB"/>
		<stop  offset="0.2745" style="stop-color:#5DE0CA"/>
		<stop  offset="0.3793" style="stop-color:#78E6BD"/>
		<stop  offset="0.4719" style="stop-color:#88E9B6"/>
		<stop  offset="0.5423" style="stop-color:#8EEAB3"/>
		<stop  offset="0.8004" style="stop-color:#B9F39F"/>
		<stop  offset="1" style="stop-color:#DEFA8E"/>
	</linearGradient>
	<path class="st14" d="M306.4,190.3c0,0.2,0,0.4,0,0.6c-0.1,1.9-0.5,3.4-0.7,4c-6.3,19.3-10.1,29.5-15.4,37.8
		c-0.9,1.4-1.9,2.8-2.9,4.1c-1.4,1.8-2.8,3.5-4.5,5.3c-3.7,4-9.2,5.8-11,6.4c-6.5,2.3-12.3,1.9-16.2,1.9h-0.7
		c-3.9,0-9.6,0.4-16.2-1.9c-1.8-0.6-7.4-2.4-11-6.4c-10.1-11-14-20.1-22.9-47.2c-0.2-0.6-0.6-2-0.7-3.8c0-0.5,0-1,0-1.6
		c0.2-3.2,1.5-6.4,3.8-9.3c4-5,10.2-7.7,16.6-7.7l30.8-0.1l30.2-0.1c6.5,0,12.8,2.7,17,7.8c2,2.4,3.3,5.1,3.7,7.8
		c0.1,0.4,0.1,0.8,0.2,1.2C306.4,189.4,306.4,189.9,306.4,190.3z"/>
	<linearGradient id="SVGID_14_" gradientUnits="userSpaceOnUse" x1="218.3706" y1="191.7595" x2="266.047" y2="136.0858">
		<stop  offset="3.968250e-02" style="stop-color:#06CFF1"/>
		<stop  offset="1" style="stop-color:#DEFA8E"/>
	</linearGradient>
	<path class="st15" d="M255.3,172.4l-30.8,0.1c-6.4,0-12.6,2.8-16.6,7.7c-2.3,2.9-3.6,6.1-3.8,9.3c0.2-3.3,1.5-6.6,4-9.6
		c4.1-5,10.5-7.8,17-7.8L255.3,172.4z"/>
	
		<linearGradient id="SVGID_15_" gradientUnits="userSpaceOnUse" x1="364.1626" y1="240.0414" x2="429.3803" y2="206.0547" gradientTransform="matrix(-0.9886 -0.1505 -0.1505 0.9886 716.9474 41.5917)">
		<stop  offset="3.968250e-02" style="stop-color:#06CFF1"/>
		<stop  offset="7.336484e-02" style="stop-color:#0FD1ED"/>
		<stop  offset="0.4151" style="stop-color:#67E2C5"/>
		<stop  offset="0.6937" style="stop-color:#A7EFA7"/>
		<stop  offset="0.8955" style="stop-color:#CFF795"/>
		<stop  offset="1" style="stop-color:#DEFA8E"/>
	</linearGradient>
	<path class="st16" d="M285.9,217.7c-0.4-23.9-3.7-28.6,1.1-34.3c0.5-0.7,3.3-4,7.9-4.8c3.7-0.7,7,0.5,8.6,1.4
		c9.5,5.4,6.7,28.9,0.4,43.7c-1.4,3.2-5.1,11.9-9.5,11.7c-1.8-0.1-3.2-1.6-4.1-2.7C286,227.7,285.9,221.3,285.9,217.7z"/>
	<linearGradient id="SVGID_16_" gradientUnits="userSpaceOnUse" x1="268.4988" y1="219.8798" x2="310.5671" y2="197.9569">
		<stop  offset="3.968250e-02" style="stop-color:#06BED8"/>
		<stop  offset="1" style="stop-color:#DEFA8E"/>
	</linearGradient>
	<path class="st17" d="M290.2,232.7c-0.9,1.4-1.9,2.8-2.9,4.1c-0.3-0.3-0.6-0.7-0.9-1c-4.2-4.9-4.3-11.3-4.3-14.9
		c-0.5-23.9-3.7-28.6,1.1-34.3c0.3-0.4,1.6-1.9,3.7-3.2c-4.7,5.7-1.5,10.4-1,34.2C285.9,221.3,286,227.7,290.2,232.7
		C290.2,232.7,290.2,232.7,290.2,232.7z"/>
	<path class="st12" d="M303.7,197.9c-0.1-2.6-0.6-4.4-1.6-8.2c-1.3-4.9-2.8-7.3-1.8-8.3c0.7-0.6,2-0.2,2.3-0.1
		c4.5,1.4,5.9,9.9,5.7,15.2c-0.1,3.2-0.9,6.9-2.1,7c-0.2,0-0.7,0-1-0.3C303.9,202,303.8,199.8,303.7,197.9z"/>
	<path class="st12" d="M306.8,206.9c0,0.5-0.4,0.9-0.9,0.9c-0.5,0-0.9-0.4-0.9-0.9s0.4-0.9,0.9-0.9
		C306.4,206,306.8,206.4,306.8,206.9z"/>
	
		<radialGradient id="SVGID_17_" cx="253.1385" cy="144.9652" r="48.488" gradientTransform="matrix(1.012 0 0 0.4143 -2.2674 213.4963)" gradientUnits="userSpaceOnUse">
		<stop  offset="0" style="stop-color:#BCD7D6"/>
		<stop  offset="1" style="stop-color:#FFFFFF"/>
	</radialGradient>
	<ellipse class="st18" cx="253.9" cy="273.6" rx="49.1" ry="20.1"/>
	<linearGradient id="SVGID_18_" gradientUnits="userSpaceOnUse" x1="3.1999" y1="51.7528" x2="165.1739" y2="51.7528">
		<stop  offset="0" style="stop-color:#D7F8EA"/>
		<stop  offset="0.5053" style="stop-color:#ECF8F2"/>
		<stop  offset="1" style="stop-color:#D7F8EA"/>
	</linearGradient>
	<path class="st19" d="M117.7,99.2H50.7c-26.1,0-47.5-21.4-47.5-47.5v0c0-26.1,21.4-47.5,47.5-47.5h67.1c26.1,0,47.5,21.4,47.5,47.5
		v0C165.2,77.9,143.8,99.2,117.7,99.2z"/>
	<g>
		
			<linearGradient id="SVGID_19_" gradientUnits="userSpaceOnUse" x1="29.1426" y1="53.9547" x2="159.8895" y2="26.1934" gradientTransform="matrix(0.9989 -4.590000e-02 4.590000e-02 0.9989 -2.8503 4.9258)">
			<stop  offset="3.968250e-02" style="stop-color:#06CFF1"/>
			<stop  offset="1" style="stop-color:#DEFA8E"/>
		</linearGradient>
		<path class="st20" d="M54.1,69.9c0,0.5-1.6,0.9-4.8,1c-3.2,0.1-4.9,0-4.9-0.6l-0.5-11.1l-6.7,0.3l0.5,11.1c0,0.5-1.6,0.9-4.8,1
			c-3.2,0.1-4.9,0-4.9-0.6l-1.5-31.9c0-0.7,1.6-1.1,4.8-1.2c3.2-0.1,4.9,0.1,4.9,0.8l0.5,11.3l6.7-0.3l-0.5-11.2
			c0-0.4,0.8-0.8,2.4-1.1c0.8-0.1,1.6-0.2,2.5-0.2l2.5,0c1.6,0.1,2.4,0.4,2.5,0.9L54.1,69.9z"/>
		
			<linearGradient id="SVGID_20_" gradientUnits="userSpaceOnUse" x1="31.3516" y1="64.3574" x2="162.0995" y2="36.5959" gradientTransform="matrix(0.9989 -4.590000e-02 4.590000e-02 0.9989 -2.8503 4.9258)">
			<stop  offset="3.968250e-02" style="stop-color:#06CFF1"/>
			<stop  offset="1" style="stop-color:#DEFA8E"/>
		</linearGradient>
		<path class="st21" d="M76.9,68.4c-2,1.3-4.5,2-7.7,2.1c-3.2,0.1-5.9-0.8-8.2-2.9c-2.3-2.1-3.5-5-3.7-8.9c-0.2-3.8,0.7-7,2.7-9.4
			c2-2.4,4.6-3.7,7.8-3.9c3.2-0.1,5.7,0.6,7.6,2.1c1.8,1.6,2.8,3.5,2.9,5.9c0.2,5.2-2.6,7.9-8.6,8.2l-3.3,0.2c0,1,0.3,1.6,0.9,2
			c0.5,0.3,1.3,0.5,2.4,0.4c2.2-0.1,4.4-0.7,6.3-1.8c0,0,0.2,0.2,0.5,0.7c0.8,1.3,1.3,2.5,1.3,3.4C77.7,67.4,77.5,68.1,76.9,68.4z
			 M70.2,54.7c-0.1-1.3-0.8-2-2.1-1.9c-0.6,0-1.1,0.2-1.5,0.6c-0.4,0.4-0.6,0.9-0.6,1.6l0.1,1.5l2.6-0.1
			C69.8,56.4,70.3,55.8,70.2,54.7z"/>
		
			<linearGradient id="SVGID_21_" gradientUnits="userSpaceOnUse" x1="31.109" y1="63.2073" x2="161.8534" y2="35.4466" gradientTransform="matrix(0.9989 -4.590000e-02 4.590000e-02 0.9989 -2.8503 4.9258)">
			<stop  offset="3.968250e-02" style="stop-color:#06CFF1"/>
			<stop  offset="1" style="stop-color:#DEFA8E"/>
		</linearGradient>
		<path class="st22" d="M90.9,68.7c0,0.3-1.6,0.5-4.9,0.7c-2.6,0.1-3.9,0-3.9-0.2l-1.5-32.8c0-0.5,1.5-0.8,4.6-0.9
			c2.7,0,4.1,0.1,4.1,0.3L90.9,68.7z"/>
		
			<linearGradient id="SVGID_22_" gradientUnits="userSpaceOnUse" x1="31.6756" y1="65.8719" x2="162.4194" y2="38.1112" gradientTransform="matrix(0.9989 -4.590000e-02 4.590000e-02 0.9989 -2.8503 4.9258)">
			<stop  offset="3.968250e-02" style="stop-color:#06CFF1"/>
			<stop  offset="1" style="stop-color:#DEFA8E"/>
		</linearGradient>
		<path class="st23" d="M104,68.1c0,0.3-1.6,0.5-4.9,0.7c-2.6,0.1-3.9,0-3.9-0.2l-1.5-32.8c0-0.5,1.5-0.8,4.6-0.9
			c2.7,0,4.1,0.1,4.1,0.3L104,68.1z"/>
		
			<linearGradient id="SVGID_23_" gradientUnits="userSpaceOnUse" x1="33.4691" y1="74.3295" x2="164.2174" y2="46.5679" gradientTransform="matrix(0.9989 -4.590000e-02 4.590000e-02 0.9989 -2.8503 4.9258)">
			<stop  offset="3.968250e-02" style="stop-color:#06CFF1"/>
			<stop  offset="1" style="stop-color:#DEFA8E"/>
		</linearGradient>
		<path class="st24" d="M110.3,65.3c-2.1-2.1-3.3-5.1-3.4-9.1c-0.2-3.9,0.7-7,2.6-9.3c1.9-2.3,4.6-3.5,8-3.7c3.4-0.2,6.2,0.8,8.2,3
			c2.1,2.1,3.2,5.1,3.4,9.1c0.2,3.9-0.7,7-2.6,9.3c-1.9,2.3-4.5,3.5-7.9,3.7C115.2,68.4,112.4,67.4,110.3,65.3z M117.8,51.2
			c-1.8,0.1-2.7,1.6-2.5,4.6c0.1,3,1.1,4.4,2.9,4.3c1.8-0.1,2.7-1.6,2.5-4.6C120.6,52.6,119.6,51.2,117.8,51.2z"/>
		
			<linearGradient id="SVGID_24_" gradientUnits="userSpaceOnUse" x1="33.2745" y1="73.3958" x2="164.0183" y2="45.6352" gradientTransform="matrix(0.9989 -4.590000e-02 4.590000e-02 0.9989 -2.8503 4.9258)">
			<stop  offset="3.968250e-02" style="stop-color:#06CFF1"/>
			<stop  offset="1" style="stop-color:#DEFA8E"/>
		</linearGradient>
		<path class="st25" d="M132.7,59.9c0-0.2,1.5-0.4,4.4-0.5c3-0.1,4.5-0.1,4.5,0.1l0.3,6.9c0,0.3-1.5,0.6-4.4,0.7
			c-3,0.1-4.5,0.1-4.5-0.1L132.7,59.9z M140.5,56.6c0,0.2-1.1,0.3-3.4,0.4c-2.3,0.1-3.4,0.1-3.5-0.1l-2.1-23.7
			c0-0.3,1.5-0.5,4.4-0.6c2.9-0.1,4.4-0.1,4.4,0.1L140.5,56.6z"/>
	</g>
	<path class="st12" d="M139.3,52c0,0-1.9-17.2-1-17.7C139.3,33.9,139.7,43.3,139.3,52z"/>
	<path class="st12" d="M141.2,60.7c0,0.6-0.5,1-1,1c-0.6,0-1-0.5-1-1c0-0.6,0.5-1,1-1C140.7,59.7,141.2,60.1,141.2,60.7z"/>
	<path class="st12" d="M127.7,53.2c0-1-0.1-3.7-2.1-5.9c-1.7-1.9-4-2.5-5-2.4c-0.2,0-0.9,0.1-0.9,0.4c-0.1,0.6,2.7,1,4.7,2.5
		C125.5,48.7,126.8,50.2,127.7,53.2z"/>
	<path class="st12" d="M100.9,35.4c1.1,0,1.5,19.3,1.2,22.8C101.8,61.6,100.5,35.4,100.9,35.4z"/>
	<path class="st12" d="M77.1,51.9c-0.5-2.6-3.4-5.5-5.3-5.1c-1.9,0.5,2.2,1.9,3.7,3.1C76.9,51.2,77.1,51.9,77.1,51.9z"/>
	<path class="st12" d="M60.8,66.7c2.2,2.4,5.2,2.9,5.3,2.8c0-0.1-3.4-0.6-5.2-3.3c-0.8-1.3-1.7-3.6-2.2-3.6c0,0,0,0-0.1,0
		C58.3,62.8,59.4,65.2,60.8,66.7z"/>
	<path class="st12" d="M52.9,66.2c-0.7,0.9-0.8-23.4-1.2-25.8c0,0,0,0,0-0.2c0-0.2,0-0.5,0-1.1c0-0.1-0.1-0.6-0.2-0.7
		c-0.9-0.8-4.9-0.4-3.2-0.6c1.5-0.2,3.2,0,3.7,0.1c0.2,0.1,0.2,0.4,0.2,0.6C53,43.4,53.8,65,52.9,66.2z"/>
</g>
<path class="st12" d="M159.2,40c-1.1,0.8-8.4-13.4-26.7-23.2c-10.3-5.5-18.7-6.7-18.5-7.7c0.3-1.2,12.3-1.6,23.2,3.9
	C153.5,21.2,160.4,39.1,159.2,40z"/>
<circle class="st12" cx="160.6" cy="45.5" r="1.3"/>
<ellipse class="st12" cx="62.4" cy="9.4" rx="8.8" ry="2"/>
<path class="st12" d="M81.9,9.4c0,0.6-1.1,1.1-2.4,1.1s-2.4-0.5-2.4-1.1c0-0.6,1.1-1.1,2.4-1.1S81.9,8.8,81.9,9.4z"/>
<path class="st12" d="M35.8,44.7c0.2,3.1,0.1,5.6-0.1,5.6c-0.2,0-0.5-2.5-0.7-5.5c-0.2-3.1-0.1-5.6,0.1-5.6
	C35.3,39.1,35.6,41.6,35.8,44.7z"/>
<path class="st12" d="M147.8,105.3c1.4,4,2.9,6.4,2.6,6.6c-0.4,0.2-3-2.3-4.5-5.7c-2.7-5.9-1.2-12.2-0.7-12.2
	C145.7,94,145.4,98.5,147.8,105.3z"/>
</svg>
