<?xml version="1.0" encoding="utf-8"?>
<!-- Generator: Adobe Illustrator 22.0.0, SVG Export Plug-In . SVG Version: 6.00 Build 0)  -->
<svg version="1.1" id="Layer_1" xmlns="http://www.w3.org/2000/svg" xmlns:xlink="http://www.w3.org/1999/xlink" x="0px" y="0px"
	 viewBox="0 0 1366 768" style="enable-background:new 0 0 1366 768;" xml:space="preserve">
<style type="text/css">
	.st0{fill:#2C425D;}
	.st1{fill:#FC5954;}
	.st2{fill:#246387;}
	.st3{fill:#E2550E;}
	.st4{fill:#E0540E;}
	.st5{fill:#D6E2E0;stroke:#FBF6F3;stroke-width:1.4173;stroke-miterlimit:10;}
	.st6{fill:#9AC3C9;stroke:#FBF6F3;stroke-width:1.4173;stroke-miterlimit:10;}
	.st7{fill:none;stroke:#FBF6F3;stroke-width:1.4173;stroke-miterlimit:10;}
	.st8{fill:#FFFFFF;stroke:#42BAB4;stroke-width:0.25;stroke-miterlimit:10;}
	.st9{fill:#FC5954;stroke:#FBF6F3;stroke-width:1.4173;stroke-miterlimit:10;}
	.st10{fill:#D6E2E0;stroke:#FBF6F3;stroke-width:1.4173;stroke-linecap:round;stroke-miterlimit:10;}
	.st11{fill:none;stroke:#FBF6F3;stroke-width:0.9921;stroke-linecap:round;stroke-miterlimit:10;}
	.st12{fill:none;stroke:#FC5954;stroke-width:0.4252;stroke-linecap:round;stroke-miterlimit:10;}
	.st13{fill:#FCF7EE;}
	.st14{fill:none;stroke:#FCF7EE;stroke-width:0.4252;stroke-linecap:round;stroke-miterlimit:10;}
	.st15{fill:#FBF6F3;}
	.st16{fill:#E1550E;}
	.st17{stroke:#FAFBFC;stroke-width:0.5;stroke-miterlimit:10;}
	.st18{font-family:'AndaleMono';}
	.st19{font-size:20.8305px;}
</style>
<g id="TREE_2_1_">
	<path class="st0" d="M268.8,589H88.2c-11.1,0-20-8.4-20-18.7l0,0c0-10.3,9-18.7,20-18.7h180.6c11.1,0,20,8.4,20,18.7l0,0
		C288.8,580.6,279.9,589,268.8,589z"/>
	<path class="st1" d="M241.4,222.5c-50.7,41.3-105,39.1-149.1-15.6s-50-162.9,85.2-160.8C312.7,48.3,301.4,173.7,241.4,222.5z"/>
	<path class="st2" d="M4.7,198.1C-4.2,303.2,73,353.3,191.8,324.6c118.8-28.6,101-146.9,59.4-184.7C209.6,102,16.6,57.7,4.7,198.1z"
		/>
	<path class="st1" d="M61.6,320.5c23.3,40,58.4,31.4,71.8,7.9c13.4-23.6,15.3-49.9-27.2-58.7C63.6,260.9,45.8,293.2,61.6,320.5z"/>
	<path class="st3" d="M147.7,554.6c1.5-2.8-3-150.3-3-150.3s-40.8-91.1-44.5-98c-3.7-6.9,1.5-5.2,3.7-2.1
		c2.2,3.1,42.3,81.1,42.3,81.1s4.5-173.8,4.5-190.4s5.9-5.1,5.9,0c0,5.1,6.4,362.5,6.4,362.5L147.7,554.6z"/>
	<path class="st1" d="M114.3,560.2c-2.2-21.7,0.2-28.2,9.2-28.2c8.9,0,9.9,16.6,9.9,16.6s0.5-27.2,10.4-27.2c1.5,0,2.8,0.6,4,1.7
		c7.1,6.1,10.3,27,10.3,27s-0.5-30.9,10.4-30.9c10.9,0,12.9,31.6,12.9,31.6s0-11.5,8.4-11.5c8.4,0,7.5,18.9,7.7,23.3
		c0.2,8.5-18.3,12.8-44.3,12.5C121.3,574.5,115.1,568,114.3,560.2z"/>
</g>
<g id="TREE_1_1_">
	<path class="st0" d="M1293.7,551.7h-189.3c-11.6,0-21-8.8-21-19.6l0,0c0-10.8,9.4-19.6,21-19.6h189.3c11.6,0,21,8.8,21,19.6l0,0
		C1314.7,542.9,1305.3,551.7,1293.7,551.7z"/>
	<path class="st2" d="M1145.5,297.9c-76.9-23.5-140.7-55.7-140.7-149.6s182.5-136.8,260.1-90.7c79.8,47.5,133.9,109.8,78.4,197.3
		C1290.4,338.6,1197.6,313.9,1145.5,297.9z"/>
	<path class="st1" d="M1168.6,107.8c4,51.7,52,100.2,110.8,70.8c58.8-29.4,78.4-124.1-2.6-148.8
		C1195.8,5.2,1165.2,63.3,1168.6,107.8z"/>
	<path class="st1" d="M1236.3,256.6c4.3,24.7,53.7,42.2,75,13.5c21.3-28.6,10.1-59.7-24.3-68
		C1261.4,195.8,1229.5,217.2,1236.3,256.6z"/>
	<path class="st4" d="M1196.7,525.5l-0.9-249c0,0-74.6-64-79.3-68s1.5-5.6,3-3.8c1.5,1.8,79.2,61.2,79.2,61.2s27.3-114.3,29-123.8
		c1.7-9.5,6.5-4.2,6,2.7c-0.6,6.9-26.3,127-26.3,127l-1.3,58.5c0,0,60.1-72.8,65.2-80.4c5.1-7.6,7.2-1.2,3.8,4.4
		c-3.4,5.6-68.2,92.3-68.2,92.3l2.6,179H1196.7z"/>
	<path class="st1" d="M1145.4,524.5c-1.1-17-0.7-45.4,9.7-46.1c10.4-0.7,12.4,21.2,12.4,21.2s-1.1-28.9,9.8-28.5
		c10.9,0.4,11.6,19.2,11.6,19.2s-2.8-25.6,5.1-25.9c7.9-0.3,9.4,13.1,9.4,13.1s-1-18.2,11.4-17.7c12.4,0.5,12.9,24,12.9,24
		s-0.9-12.8,6.6-12.5c7.6,0.3,8.1,16.2,8.1,16.2s2.8-9.2,10.4-8.4c7.6,0.9,9,35.8,6.9,49.3c-2.1,13.5-37.6,12.7-60.1,11.8
		C1177.2,539.3,1146.5,540.9,1145.4,524.5z"/>
</g>
<g id="WEB_2_">
	<path id="SHADOW_1_" class="st2" d="M1246.8,731.4H106.4c-15.9,0-28.9-12.1-28.9-26.9l0,0c0-14.9,12.9-26.9,28.9-26.9h1140.4
		c15.9,0,28.9,12.1,28.9,26.9l0,0C1275.7,719.3,1262.7,731.4,1246.8,731.4z"/>
	<g id="WEB_3_">
		<rect x="216.9" y="39.9" class="st5" width="863.1" height="647.9"/>
		<polygon class="st6" points="389.1,81.5 408.7,63.2 513.2,63.2 539.2,87.5 		"/>
		<g>
			<polygon class="st6" points="389.8,81.5 370.2,63.2 265.7,63.2 246,81.5 246,660.6 1050.9,660.6 1050.9,81.5 			"/>
			<path class="st5" d="M981.5,126.3H373.8c-2.3,0-4.2-1.9-4.2-4.2V102c0-2.3,1.9-4.2,4.2-4.2h607.7c2.3,0,4.2,1.9,4.2,4.2v20.2
				C985.7,124.5,983.8,126.3,981.5,126.3z"/>
			<polygon class="st5" points="346.9,126.4 316.2,126.4 316.2,112.1 331.5,97.8 346.9,112.1 			"/>
			<path class="st5" d="M294.1,112.1c0-7.9-6.9-14.3-15.3-14.3s-15.3,6.4-15.3,14.3c0,7.9,6.9,14.3,15.3,14.3S294.1,120,294.1,112.1
				z"/>
			<rect x="1002.8" y="97.8" class="st5" width="30.6" height="28.5"/>
		</g>
		<g>
			<line class="st7" x1="1031.2" y1="56.2" x2="1047.2" y2="71.1"/>
			<line class="st7" x1="1031.2" y1="71.1" x2="1047.2" y2="56.2"/>
		</g>
		<rect x="993.5" y="56.2" class="st5" width="16" height="14.9"/>
		<line class="st7" x1="971.7" y1="71.1" x2="955.7" y2="71.1"/>
		<rect x="263.5" y="142.6" class="st6" width="770" height="501.7"/>
		<path class="st5" d="M790.7,199.2H506.3c-2.9,0-5.2-2.3-5.2-5.2v-29.9c0-2.9,2.3-5.2,5.2-5.2h284.4c2.9,0,5.2,2.3,5.2,5.2V194
			C795.9,196.8,793.5,199.2,790.7,199.2z"/>
		<path class="st5" d="M789.3,628.1H507.6c-3.6,0-6.5-2.9-6.5-6.5V222c0-3.6,2.9-6.5,6.5-6.5h281.8c3.6,0,6.5,2.9,6.5,6.5v399.6
			C795.9,625.1,793,628.1,789.3,628.1z"/>
		<g>
			<path class="st1" d="M776.9,215.5H520.1c-10.5,0-19,7.9-19,17.7v202.1c39.4,0,140.5,0,174.6,0c22.4,0,43.6-2.3,43.6-41.8
				c0-55.7,0-94.6,0-94.6s50.4-2,61.6-2s15-7,15-13.2v-50.5C795.9,223.4,787.4,215.5,776.9,215.5z"/>
			<g>
				<path class="st1" d="M752.9,345.2L752.9,345.2c-2.3,0-4.2-1.7-4.2-3.9v-43.8c0-2.2,1.9-3.9,4.2-3.9l0,0c2.3,0,4.2,1.7,4.2,3.9
					v43.8C757.1,343.5,755.2,345.2,752.9,345.2z"/>
				<path class="st1" d="M784.4,324.5L784.4,324.5c-2.2,0-4-1.7-4-3.7v-33.9c0-2.1,1.8-3.7,4-3.7l0,0c2.2,0,4,1.7,4,3.7v33.9
					C788.4,322.8,786.6,324.5,784.4,324.5z"/>
			</g>
		</g>
		<g>
			<g>
				<path class="st8" d="M613.2,265.3c-0.2,0.8-1.1,4-1.4,4.9h-16.1v-0.9c3.1-0.2,3.3-0.5,3.3-3v-12.2c0-2.8-0.4-2.9-2.9-3.1v-0.9
					h10.2c3.1,0,4.4,0,4.8-0.1c0,0.8,0.2,3.1,0.3,4.7l-1,0.2c-0.3-1.1-0.6-1.7-1-2.4c-0.5-1-1.3-1.2-3.3-1.2h-3.2
					c-1,0-1.1,0.1-1.1,1v6.9h3.7c2.5,0,2.7-0.5,3.1-2.6h1v6.4h-1c-0.4-2.2-0.7-2.5-3.1-2.5h-3.7v6.2c0,2.2,0.7,2.4,2.4,2.4h3.1
					c2,0,2.4-0.3,3.1-1.1c0.6-0.7,1.3-1.9,1.8-2.9L613.2,265.3z"/>
				<path class="st8" d="M625.7,270.2v-0.9c2.1-0.2,2.3-0.5,1.7-1.6c-0.8-1.2-2.2-3.5-4.3-6.6c-1.6,2.3-3,4.4-4.1,6.2
					c-0.8,1.3-0.5,1.6,1.7,1.9v0.9H613v-0.9c2-0.2,2.9-0.7,3.9-1.8c1.2-1.5,2.6-3.3,5.4-7.4c-1.7-2.6-3.2-4.8-4.3-6.4
					c-1.4-2.1-1.9-2.5-4.3-2.7v-0.9h8.3v0.9c-2.1,0.2-2.1,0.5-1.6,1.4c1.1,1.7,2.3,3.5,3.8,5.6c1.3-1.9,2.5-3.6,3.4-5.1
					c0.8-1.3,0.6-1.7-1.6-2v-0.9h7.6v0.9c-2.5,0.3-3.1,0.6-4.5,2.4c-1.1,1.5-1.8,2.4-4.1,5.6c1.8,2.6,3.5,5.2,5,7.5
					c1.6,2.4,2.3,2.7,4.7,2.9v0.9H625.7z"/>
				<path class="st8" d="M645,270.2v-0.9c2.1-0.2,2.3-0.5,1.7-1.6c-0.8-1.2-2.2-3.5-4.3-6.6c-1.6,2.3-3,4.4-4.1,6.2
					c-0.8,1.3-0.5,1.6,1.7,1.9v0.9h-7.7v-0.9c2-0.2,2.9-0.7,3.9-1.8c1.2-1.5,2.6-3.3,5.4-7.4c-1.7-2.6-3.2-4.8-4.3-6.4
					c-1.4-2.1-1.9-2.5-4.3-2.7v-0.9h8.3v0.9c-2.1,0.2-2.1,0.5-1.6,1.4c1.1,1.7,2.3,3.5,3.8,5.6c1.3-1.9,2.5-3.6,3.4-5.1
					c0.8-1.3,0.6-1.7-1.6-2v-0.9h7.6v0.9c-2.5,0.3-3.1,0.6-4.5,2.4c-1.1,1.5-1.8,2.4-4.1,5.6c1.8,2.6,3.5,5.2,5,7.5
					c1.6,2.4,2.3,2.7,4.7,2.9v0.9H645z"/>
				<path class="st8" d="M665.4,249.6c5.7,0,10.8,4.1,10.8,10.2c0,6.7-4.8,10.8-11,10.8c-6.4,0-11-4.5-11-10.4
					C654.2,254.8,658.4,249.6,665.4,249.6z M664.8,250.8c-3.7,0-7.1,2.9-7.1,8.7c0,5.8,3.4,10,8.1,10c4,0,7-2.8,7-8.8
					C672.8,254.2,669.1,250.8,664.8,250.8z"/>
				<path class="st8" d="M699,270.5c-0.4,0-0.8,0-1.2-0.1c-2.4-0.2-3.7-0.7-5.2-2.7c-1.2-1.6-2.4-3.5-3.5-5.1
					c-0.7-1-1.1-1.2-2.8-1.2h-1.2v4.9c0,2.6,0.4,2.8,3,3v0.9h-8.9v-0.9c2.8-0.3,3-0.4,3-3V254c0-2.6-0.4-2.7-3-3v-0.9h8.5
					c2.4,0,4.1,0.3,5.3,1.1c1.4,0.8,2.3,2.2,2.3,4.1c0,2.7-1.8,4.3-4.3,5.3c0.6,1,2,3,3,4.4c1.2,1.6,1.9,2.4,2.6,3.2
					c0.9,0.9,1.7,1.2,2.4,1.4L699,270.5z M686.7,260.4c1.7,0,2.8-0.2,3.7-0.9c1.3-0.9,1.8-2.1,1.8-3.8c0-3.3-2.4-4.5-4.9-4.5
					c-1,0-1.5,0.1-1.8,0.3c-0.3,0.2-0.4,0.5-0.4,1.3v7.6H686.7z"/>
			</g>
		</g>
		<path class="st7" d="M789.3,628.1H507.6c-3.6,0-6.5-2.9-6.5-6.5V222c0-3.6,2.9-6.5,6.5-6.5h281.8c3.6,0,6.5,2.9,6.5,6.5v399.6
			C795.9,625.1,793,628.1,789.3,628.1z"/>
		<g>
			<rect x="280.9" y="482.8" class="st5" width="202.7" height="145.2"/>
			
				<rect x="320.5" y="465.7" transform="matrix(-1.836970e-16 1 -1 -1.836970e-16 937.7239 173.1779)" class="st6" width="123.5" height="179.4"/>
			<rect x="292.6" y="555.5" class="st6" width="179.4" height="61.8"/>
			<path class="st9" d="M472,552.5c-13.1-8.2-29.8-12.8-60-12.2c-48.4,0.9-87.6,20.2-119.4,44.8v32.1H472V552.5z"/>
			<ellipse class="st9" cx="326.6" cy="523.3" rx="13.8" ry="12.9"/>
		</g>
		<g>
			<path class="st5" d="M369.3,304.1h-84.1c-2.3,0-4.2-1.9-4.2-4.2V163.1c0-2.3,1.9-4.2,4.2-4.2h84.1c2.3,0,4.2,1.9,4.2,4.2v136.8
				C373.5,302.2,371.6,304.1,369.3,304.1z"/>
			<ellipse class="st6" cx="327.2" cy="218.6" rx="22.2" ry="20.7"/>
			<path class="st6" d="M325.4,246c-25.5,0-31.3,32.4-32,58.1h32h32C356.7,278.4,350.9,246,325.4,246z"/>
		</g>
		<g>
			<path class="st5" d="M479.8,304.1h-85c-2.1,0-3.8-1.7-3.8-3.8V162.7c0-2.1,1.7-3.8,3.8-3.8h85c2.1,0,3.8,1.7,3.8,3.8v137.6
				C483.6,302.4,481.9,304.1,479.8,304.1z"/>
			<line class="st10" x1="405.8" y1="179" x2="468.8" y2="179"/>
			<line class="st10" x1="405.8" y1="198" x2="468.8" y2="198"/>
			<line class="st10" x1="405.8" y1="216.9" x2="468.8" y2="216.9"/>
			<line class="st10" x1="405.8" y1="235.8" x2="468.8" y2="235.8"/>
			<line class="st10" x1="405.8" y1="254.7" x2="468.8" y2="254.7"/>
		</g>
		<g>
			<path class="st5" d="M1010.1,304.1H819.2c-3.3,0-5.9-2.6-5.9-5.9V164.8c0-3.3,2.6-5.9,5.9-5.9h190.9c3.3,0,5.9,2.6,5.9,5.9v133.4
				C1016,301.5,1013.4,304.1,1010.1,304.1z"/>
			<path class="st6" d="M974.3,193H855c-4.1,0-7.4-3.1-7.4-6.9s3.3-6.9,7.4-6.9h119.3c4.1,0,7.4,3.1,7.4,6.9S978.4,193,974.3,193z"
				/>
			<path class="st6" d="M974.3,224.5H855c-4.1,0-7.4-3.1-7.4-6.9c0-3.8,3.3-6.9,7.4-6.9h119.3c4.1,0,7.4,3.1,7.4,6.9
				C981.7,221.4,978.4,224.5,974.3,224.5z"/>
			<path class="st6" d="M974.3,255.9H855c-4.1,0-7.4-3.1-7.4-6.9c0-3.8,3.3-6.9,7.4-6.9h119.3c4.1,0,7.4,3.1,7.4,6.9
				C981.7,252.8,978.4,255.9,974.3,255.9z"/>
			<path class="st6" d="M974.3,287.3H855c-4.1,0-7.4-3.1-7.4-6.9s3.3-6.9,7.4-6.9h119.3c4.1,0,7.4,3.1,7.4,6.9
				S978.4,287.3,974.3,287.3z"/>
		</g>
	</g>
</g>
<g id="PICTURE_1_">
	<polygon class="st5" points="513.9,372.8 331.7,455.7 263.5,325.1 445.6,242.2 	"/>
	<polygon class="st9" points="279,330.1 440.3,256.8 498.3,367.8 337.1,441.2 	"/>
	<path class="st6" d="M337.1,441.2l92.9-42.3c-16.8-32-52.1-54.1-92.9-54.1c-16.2,0-31.6,3.5-45.3,9.7L337.1,441.2z"/>
	<path class="st6" d="M414.3,319.9c0,6.2-5.4,11.3-12.1,11.3c-6.7,0-12.1-5.1-12.1-11.3c0-6.2,5.4-11.3,12.1-11.3
		C408.9,308.6,414.3,313.6,414.3,319.9z"/>
	<ellipse class="st7" cx="361.2" cy="321.5" rx="4.4" ry="4.1"/>
	<ellipse class="st7" cx="454.9" cy="319.9" rx="4.4" ry="4.1"/>
	<ellipse class="st7" cx="425.8" cy="367" rx="4.4" ry="4.1"/>
	<ellipse class="st7" cx="444.8" cy="342" rx="1.5" ry="1.4"/>
	<ellipse class="st7" cx="468.3" cy="371.1" rx="1.5" ry="1.4"/>
	<path class="st11" d="M274.6,325.3c0-1.8,49.9-179.4,51.9-186.6c2-7.1,7.3-7,11.6-1c4.4,5.9,97.5,112.5,97.5,112.5"/>
</g>
<g id="MAN_3_1_">
	<path class="st0" d="M985.7,584.3l-5.1,7.9c0,0-23.2,41.4-28.2,82.5c-5.1,41.1-4,66.8-4,66.8l11.3,0.3c0,0,5.1-45.5,14.2-68.9
		c9.1-23.4,20.7-46.8,33.1-61.8C1019.3,596.3,1005.6,562.1,985.7,584.3z"/>
	<path class="st0" d="M959.5,751.9c0,0-20-0.2-27.1-0.3c-7.1-0.2-1.8-6.1,16-10l11.3,0.3L959.5,751.9z"/>
	<path class="st0" d="M1002.2,584.8c-2.5,17.6,3.3,54.3,17.1,89.9c13.8,35.6,37.8,66.5,37.8,66.5l10.7-4.9c0,0-19.5-40.9-26.7-66
		c-7.3-25.1-9.8-41.4-7.3-56.3c2.5-14.9-1.8-23.1-1.8-23.1s-5.1-17.3-15.6-21C1005.8,566.1,1002.2,584.8,1002.2,584.8z"/>
	<path class="st2" d="M980.6,592.2c0,0-9.7-42.1-19.9-71.5c-10.2-29.4-17.9-54.1-19.2-58.8c-1.2-4.8,6.5-12.4,10.9-2.7
		c4.4,9.7,22.1,53,30.8,58.7c8.7,5.7,30.5,4.1,35.6,0.7c5.1-3.4,16-29.5,17.5-42.2c1.5-12.7,2.7-25.1,2.4-33
		c-0.2-7.9,9.2-9,10.4-2.7c1.2,6.3,1.7,36.2-4.8,56.2c-6.5,20-12.4,94-12.4,94L980.6,592.2z"/>
	<path class="st0" d="M1067.8,736.3l4.3,7.4l-10.8,7.9c0,0-5.3,0-10.8,0.1c-7.2,0.1-5.8-4.9,6.5-10.5L1067.8,736.3z"/>
	<g>
		<path class="st12" d="M986.2,503.5c-1.8-0.5-5.2,1-4.7,3.8c0.6,2.8,5.2,0.7,5.2,0.7L986.2,503.5z"/>
		<path class="st13" d="M984.5,498.9c-0.2,11.9,1.2,22.6,12.7,23.5c11.5,0.8,21.3-4.7,19.8-22.6
			C1015.6,481.8,984.8,481.8,984.5,498.9z"/>
		<path class="st12" d="M1013.6,507c1.5-0.8,2.9-3.1,5.5-1.9c2.7,1.2,1.6,5-0.1,6.1c-1.7,1.2-4.7-0.3-4.7-0.3"/>
		<path class="st1" d="M982.7,496.1c2.1,7.6,12.5,6.4,18.7,2.9c6.2-3.5,14.6-8.2,11.4-14.2C1009.7,478.8,978.9,482.5,982.7,496.1z"
			/>
		<path class="st1" d="M1004,492.9c1.5,6.9,7.7,15.7,12.7,15c5-0.8,3.1-15.5-1.2-19.2C1011.1,485,1002.3,485.4,1004,492.9z"/>
		<g>
			<g>
				<line class="st12" x1="988.8" y1="505" x2="992.4" y2="504.8"/>
				<line class="st12" x1="1006.6" y1="504.9" x2="1010.1" y2="505.6"/>
				<path class="st12" d="M999.9,507c-0.9,1.8-3.8,1.9-3.6,2.9c0.2,1,2.6,1.3,3.6,0.9"/>
				<path class="st12" d="M998.3,515c0,0,4.7,0.9,8.7-2.5"/>
			</g>
		</g>
	</g>
	<g>
		<path class="st5" d="M1073.8,435.5l-164.5,33.2c-9.3,1.9-18.4-3.6-20.4-12.3l-25.7-110.6c-2-8.6,3.9-17.2,13.1-19l164.5-33.2
			c9.3-1.9,18.4,3.6,20.4,12.3l25.7,110.6C1088.9,425.1,1083,433.7,1073.8,435.5z"/>
		<path class="st6" d="M1025.7,317.4L1025.7,317.4l-92.9,18.7c-4,0.8-6.6,4.5-5.7,8.3c0.9,3.7,4.8,6.1,8.8,5.3l0,0l92.9-18.8
			c4-0.8,6.6-4.5,5.7-8.3C1033.7,318.9,1029.7,316.6,1025.7,317.4z"/>
		<path class="st6" d="M911.9,347.5c-0.9-3.7-4.8-6.1-8.8-5.3c-4,0.8-6.6,4.5-5.7,8.3c0.9,3.7,4.8,6.1,8.8,5.3
			C910.3,354.9,912.8,351.2,911.9,347.5z"/>
		<path class="st6" d="M1032.8,348.1L1032.8,348.1L940,366.8c-4,0.8-6.6,4.5-5.7,8.3c0.9,3.7,4.8,6.1,8.8,5.3l0,0l92.9-18.8
			c4-0.8,6.6-4.5,5.7-8.3C1040.8,349.7,1036.8,347.3,1032.8,348.1z"/>
		<path class="st6" d="M919.1,378.2c-0.9-3.7-4.8-6.1-8.8-5.3c-4,0.8-6.6,4.5-5.7,8.3c0.9,3.7,4.8,6.1,8.8,5.3
			C917.4,385.6,919.9,381.9,919.1,378.2z"/>
		<path class="st6" d="M1040,378.8L1040,378.8l-92.9,18.7c-4,0.8-6.6,4.5-5.7,8.3s4.8,6.1,8.8,5.3l0,0l92.9-18.8
			c4-0.8,6.6-4.5,5.7-8.3C1047.9,380.4,1044,378,1040,378.8z"/>
		<path class="st6" d="M1047.1,409.5L1047.1,409.5l-92.9,18.7c0,0-0.1,0-0.1,0l-27.8,5.6c-4,0.8-6.6,4.5-5.7,8.3
			c0.9,3.7,4.8,6.1,8.8,5.3l28-5.6l0,0l92.9-18.8c4-0.8,6.6-4.5,5.7-8.3C1055.1,411.1,1051.1,408.7,1047.1,409.5z"/>
		<path class="st6" d="M926.2,408.9c-0.9-3.7-4.8-6.1-8.8-5.3s-6.6,4.5-5.7,8.3s4.8,6.1,8.8,5.3
			C924.5,416.4,927.1,412.7,926.2,408.9z"/>
	</g>
</g>
<g id="MAN_2_1_">
	<path class="st0" d="M1158.1,614.4c0,0-8.2,47.4-13,78.6s-4.7,64.8-4.7,64.8l16.4,1c0,0,4-42.4,9.8-64.8s23.6-49.5,26.2-69.9
		c2.5-20.4,6.2-28.2-5.8-33.9C1174.9,584.4,1158.1,614.4,1158.1,614.4z"/>
	<path class="st0" d="M1179.7,608.2c2.9,20.4,16.4,67.5,32,84.5c15.6,17,58.2,38.7,58.2,38.7l4.4-12.2c0,0-36.7-18-46.2-33.3
		c-9.5-15.3-12.4-41.1-14.2-52.3c-1.8-11.2-7.3-19.2-7.3-19.2l-20.7-20.1L1179.7,608.2z"/>
	<path class="st0" d="M1156.2,768l0.5-9.2l-16.4-1c0,0-12.5,2.9-15.8,6.3C1121.3,767.5,1156.2,768,1156.2,768z"/>
	<path class="st0" d="M1283.8,721.3l-9.6-2.2l-4.4,12.2c0,0-0.7,9.8,3.3,17.1C1276.4,754.4,1283.8,721.3,1283.8,721.3z"/>
	<path class="st2" d="M1105.2,489.1c0,26.7,0,37.6,6.3,45.7c6.3,8.1,44.1,11.3,44.1,11.3l2.4,68.3h48.5c0,0,6.9-76.3-2.9-82.6
		c-12.7-8.1-22.5-7.1-22.5-7.1s-14.1,4-26.9,5.1c-15.9,1.4-26.2,0.5-31.8-3.8c-5.6-4.3-7.5-25.6-7.3-32.8
		C1115.4,485.9,1105.2,470.8,1105.2,489.1z"/>
	<g>
		<path class="st5" d="M1253.3,488.4l-161.2,45.2c-9.1,2.5-18.7-2.3-21.4-10.7l-34.9-108.4c-2.7-8.5,2.4-17.4,11.5-20l161.2-45.2
			c9.1-2.5,18.7,2.3,21.4,10.7l34.9,108.4C1267.6,476.9,1262.4,485.8,1253.3,488.4z"/>
		<path class="st6" d="M1195.4,374.1L1195.4,374.1l-91,25.5c-3.9,1.1-6.2,5-5,8.6s5.3,5.8,9.3,4.6l0,0l91-25.5c3.9-1.1,6.2-5,5-8.6
			C1203.5,375.1,1199.4,373,1195.4,374.1z"/>
		<path class="st6" d="M1084.6,412.5c-1.2-3.7-5.3-5.8-9.3-4.6c-3.9,1.1-6.2,5-5,8.6c1.2,3.7,5.3,5.8,9.3,4.6
			C1083.5,420,1085.7,416.1,1084.6,412.5z"/>
		<path class="st6" d="M1205.1,404.2L1205.1,404.2l-91,25.5c-3.9,1.1-6.2,5-5,8.6c1.2,3.7,5.3,5.8,9.3,4.6l0,0l91-25.5
			c3.9-1.1,6.2-5,5-8.6S1209.1,403.1,1205.1,404.2z"/>
		<path class="st6" d="M1094.3,442.6c-1.2-3.7-5.3-5.8-9.3-4.6c-3.9,1.1-6.2,5-5,8.6c1.2,3.7,5.3,5.8,9.3,4.6
			C1093.2,450.1,1095.4,446.2,1094.3,442.6z"/>
		<path class="st6" d="M1221.4,481.2L1117,510.5c-8.3,2.3-17-2.1-19.5-9.8l-5.8-18.2c-2.5-7.7,2.2-15.9,10.5-18.2l104.4-29.3
			c8.3-2.3,17,2.1,19.5,9.8l5.8,18.2C1234.3,470.7,1229.6,478.9,1221.4,481.2z"/>
	</g>
	<path class="st2" d="M1197.8,548.6c5.1,9.8,17,25.6,21.8,39.1c4.8,13.6,7.8,37.1,9.7,45.5c1.9,8.4,11.2,8.4,11.2-0.9
		c0-9.3-5.8-37.8-10.4-51.8c-4.6-14-13.6-38.8-25.7-48C1194.1,524.6,1193.7,540.5,1197.8,548.6z"/>
	<g>
		<path class="st12" d="M1161.4,509.9c-1.9-0.6-4.6-0.2-4.1,2.4c0.5,2.6,4.1,1.8,4.1,1.8V509.9z"/>
		<path class="st13" d="M1160.5,508.5c-1.2,9.5,2.4,18.6,15.5,19.7c13.1,1.1,17.6-3.7,20.4-13.9c2.8-10.4-8-22.2-17.7-22.4
			C1169,491.8,1162,497,1160.5,508.5z"/>
		<path class="st12" d="M1174.7,514.2c0,0-4.6-0.8-4.1,0.8c0.5,1.6,3.6,2.4,3.6,2.4"/>
		<line class="st12" x1="1164.6" y1="510.1" x2="1168.9" y2="509.6"/>
		<line class="st12" x1="1182.3" y1="510.7" x2="1186.3" y2="512.6"/>
		<path class="st1" d="M1160.9,498.4c-1.8,2.8-2.4,5.2-1.1,7.3c1.3,2.1,5.2,0.5,7.4-1.2c0,0,1.1,1.9,3.5,2.6
			c2.4,0.8,5.2-1.8,5.2-1.8s-0.7,3.2,2.7,3.6c3.5,0.4,7.4-4.2,7.4-4.2s-0.7,4.4,5.5,7.4c6.2,3,2.1,9.4,1.7,10.8
			c-0.4,1.4,3.5,2,4.1,0.1c0.6-1.9-0.4-4.9-0.4-4.9s3.4-1.9,2.8-4.9c-0.6-2.9-2.8-5.3-2.8-5.3s1.1-1.1,1-3.1
			c-0.1-1.9-4.9-13.1-14.9-15.3C1170.7,487.1,1164,493.6,1160.9,498.4z"/>
		<path class="st12" d="M1170.2,520.4c0-0.5-0.4-0.9-1-0.9c-0.5,0-1,0.4-1,0.9s0.4,0.9,1,0.9
			C1169.8,521.3,1170.2,520.9,1170.2,520.4z"/>
		<path class="st14" d="M1191,512.3c2.6-1.5,5.6-1.9,6.3,0.6c0.7,2.4-4.8,3.9-4.8,3.6"/>
	</g>
	<path class="st13" d="M1240.1,626.6c-3.6,0.1-7.5,0.4-11.8,1c0.4,2.2,0.8,4.1,1.1,5.6c1.9,8.4,11.2,8.4,11.2-0.9
		C1240.5,630.8,1240.3,628.9,1240.1,626.6z"/>
</g>
<g id="MAN_1_1_">
	<g>
		<path class="st7" d="M645.6,620.3c6.5-5.4,104.4-310.3,104.4-310.3l29.8,8.1l4-11.5"/>
		<polygon class="st5" points="722.7,298.4 777.9,314.4 784.3,296.4 729.2,280.3 		"/>
	</g>
	<path class="st0" d="M662.9,500.3c-8,7.5-13.3,21.2-16.5,41.1c-3.3,19.8-2.7,33.4,4.4,34.3c7.1,0.8,11.6-10,16-39
		C671.1,507.6,662.9,500.3,662.9,500.3z"/>
	<path class="st2" d="M682.2,489.8c16.9-1.8,20.8,8.6,28.6,3.6c7.8-5,14.8-25.8,15.8-42.1c1-16.3-8.7-39.1-9.8-42.8
		c-1.1-3.7,0.2-4.6,1.1-4.6c0.9,0,1.1,2.8,2.5,2.9c1.5,0.1,3.1-4.8,2.2-9c-0.9-4.2,1.7-1.8,2.2-0.6c0.5,1.2,2.7,4.1,2.3,10.3
		c-0.4,6.2,0.2,6.6,1.9,11.8c1.6,5.3,7.8,18,7.5,30.4c-0.4,12.4-6.2,43.4-11.5,53.8c-5.3,10.3-9.6,57.9-9.6,73.8
		s-12.7,30.9-30.5,25.4c-17.8-5.4-20.7-16.9-21.7-25.9c-1-9-6.9-60.5-5.3-68.5C659.1,500.8,667.4,491.3,682.2,489.8z"/>
	<path class="st2" d="M682.2,581.4l-18.4,0.5c0,0,1.3,54.2-0.8,90.5s-7.3,65.5-7.3,65.5l11.3,2.7c0,0,13.1-39,16.7-67.2
		s6.5-42.8,7.3-66.8C691.6,582.4,682.2,581.4,682.2,581.4z"/>
	<path class="st0" d="M682.2,581.4c-2.2,16.3,0.4,22.4,10.2,35.3s14.9,123.5,14.9,123.5l11.3,0.3c0,0,5.8-45.8,4-74
		c-1.8-28.2-2.5-55.3-7.3-89.2L682.2,581.4z"/>
	<path class="st2" d="M653,747.5c0,0,15.2,4.6,21.1,5.8c5.9,1.1,6.9-2.8,2.4-5.4c-3.6-2.1-9.6-7.4-9.6-7.4l-11.3-2.7L653,747.5z"/>
	<path class="st0" d="M706.3,751.7c0,0,17.8,3.2,24.2,2.5c6.4-0.7,8.7-4.3,2.4-6.9c-4.7-1.9-14.4-6.8-14.4-6.8l-11.3-0.3
		L706.3,751.7z"/>
	<g>
		<g>
			<g>
				<path class="st13" d="M668.8,472.9c-1.2-0.7-7.2-0.3-6.5,3.3c0.6,3.6,7.5,1.2,7.5,1.2L668.8,472.9z"/>
				<path class="st13" d="M694.2,472.7c0,0,9-0.3,8.2,3.8c-0.8,4.1-9.2,1.3-9.2,1.3L694.2,472.7z"/>
			</g>
		</g>
		<path class="st1" d="M684.8,492.6c-13.1,0.1-19.2-7.9-19.2-18.1c0-10.2,4.1-23.5,18.7-22.2c14.5,1.4,16.5,13.4,14.5,22.4
			C696.9,483.8,696.4,492.5,684.8,492.6z"/>
	</g>
	<path class="st13" d="M727,407.5c0.4-6.2-1.8-9-2.3-10.3c-0.5-1.2-3.1-3.7-2.2,0.6c0.9,4.2-0.7,9.1-2.2,9c-1.5-0.1-1.6-2.9-2.5-2.9
		c-0.9,0-2.2,0.8-1.1,4.6c0.3,1.1,1.4,3.9,2.8,7.8c2.6-1,5.2-2,7.6-3C726.9,411.8,726.9,410.3,727,407.5z"/>
</g>
<g id="WOMAN_1_">
	<path class="st2" d="M342.5,25.2c-10.7,20.6-16.4,38.7-17.5,56.3s-0.4,37.3,1.1,48.2c1.5,10.9,13.1,6.8,12.7-0.3
		c-0.4-7.1,0.4-35.6,4.4-50.2s21.1-34.9,22.2-45.8S348.3,14,342.5,25.2z"/>
	<path class="st2" d="M384.7,13.7c16.8-6.7,42.7-12.8,60.1-4.6s29.1,17.9,37.8,27.8c7.7,8.7-2.2,10.6-7.3,6.3
		c-5.1-4.3-24.5-17-37.8-20.8c-13.3-3.8-28.4,0-43.2,5C379.6,32.4,371.9,18.8,384.7,13.7z"/>
	<path class="st1" d="M361.9,0c-10.4,0.3-19.9,8.6-16.2,23.3c3.6,14.7,21.1,21.3,25.5,35.5c4.4,14.3,21.3,17.9,30.5,14.3
		c9.2-3.6,14.1-12.9,6.5-33.5C400.7,19,385.9-0.7,361.9,0z"/>
	<path class="st15" d="M325.5,123.2c0.2,2.4,0.4,4.6,0.7,6.5c1.5,10.9,13.1,6.8,12.7-0.3c-0.1-1.4-0.1-3.5-0.1-6.2
		C334.4,123.1,329.9,123.1,325.5,123.2z"/>
	<path class="st15" d="M475.4,43.2c5.1,4.3,14.9,2.4,7.3-6.3c-0.8-0.9-1.7-1.9-2.6-2.8c-3.3,2.6-6.1,4.7-8.4,6.3
		C473.2,41.5,474.5,42.5,475.4,43.2z"/>
</g>
<polyline class="st16" points="153,186.2 155,188.7 156.3,192.1 156.7,198 156.8,203.5 156.8,208 156.8,212.5 157.1,219.8 
	157.1,227.5 157.3,233 159.1,332.6 162.4,521.3 162.5,523.6 162.1,524.3 161.9,524.8 161.5,525.6 161.3,526.2 161,527.1 160.7,528 
	160.5,528.8 160.3,529.5 160.1,530.2 159.9,531 159.7,531.8 159.6,532.7 159.4,533.8 159.2,534.8 159.1,535.5 159,536.2 
	158.9,537.3 158.8,538.2 158.7,538.8 158.6,539.6 158.5,540.9 158.4,542.1 158.4,542.7 158.3,543.5 158.3,543.9 158.2,544.7 
	158.2,545.3 158.2,546.2 158.2,546.9 158.1,547.8 158.1,548.2 158.1,548.8 158.1,549.9 157.6,546.9 156.9,544 156.7,542.8 
	156.5,542 156.2,541.1 156,540 155.6,538.9 155.3,537.7 154.9,536.4 154.5,535.3 154,533.9 153.6,532.7 153.1,531.5 152.6,530.3 
	152.2,529.4 151.2,527.5 151,527.1 149.9,525.4 "/>
<text transform="matrix(1.3639 0 0 1 374 119.5908)" class="st17 st18 st19">https://www.exxor.in</text>
<g>
	<g>
	</g>
</g>
</svg>
