<?xml version="1.0" encoding="utf-8"?>
<!-- Generator: Adobe Illustrator 22.0.0, SVG Export Plug-In . SVG Version: 6.00 Build 0)  -->
<svg version="1.1" id="Layer_1" xmlns="http://www.w3.org/2000/svg" xmlns:xlink="http://www.w3.org/1999/xlink" x="0px" y="0px"
	 viewBox="0 0 223.4 211.5" style="enable-background:new 0 0 223.4 211.5;" xml:space="preserve">
<style type="text/css">
	.st0{opacity:0.7;}
	.st1{fill:none;stroke:#FFFFFF;stroke-width:6;stroke-miterlimit:10;}
	.st2{opacity:0.5;}
	.st3{fill:none;stroke:#FFFFFF;stroke-width:5;stroke-miterlimit:10;}
	.st4{opacity:0.3;}
	.st5{fill:none;stroke:#FFFFFF;stroke-width:4;stroke-miterlimit:10;}
	.st6{opacity:0.1;}
	.st7{fill:none;stroke:#FFFFFF;stroke-width:3;stroke-miterlimit:10;}
</style>
<g class="st0">
	<g>
		<g>
			<line class="st1" x1="201.2" y1="189.6" x2="199.8" y2="19"/>
			<line class="st1" x1="201.2" y1="189.6" x2="199.8" y2="19"/>
		</g>
		<line class="st1" x1="201.6" y1="189.6" x2="135.8" y2="190.3"/>
		<line class="st1" x1="136.3" y1="189.9" x2="135.7" y2="122.7"/>
		<line class="st1" x1="134.5" y1="19.6" x2="200.2" y2="19"/>
		<line class="st1" x1="135.4" y1="87" x2="134.9" y2="20"/>
	</g>
	<g>
		<g>
			<line class="st1" x1="22.2" y1="20.7" x2="24.2" y2="191.3"/>
			<line class="st1" x1="22.2" y1="20.7" x2="24.2" y2="191.3"/>
		</g>
		<line class="st1" x1="21.8" y1="20.7" x2="87.6" y2="19.8"/>
		<line class="st1" x1="87.1" y1="20.2" x2="87.9" y2="87.3"/>
		<line class="st1" x1="89.6" y1="190.5" x2="23.8" y2="191.3"/>
		<line class="st1" x1="88.3" y1="123.1" x2="89.2" y2="190.1"/>
	</g>
</g>
<g class="st2">
	<g>
		<g>
			<line class="st3" x1="182.6" y1="172.4" x2="181.5" y2="34.9"/>
			<line class="st3" x1="182.6" y1="172.4" x2="181.5" y2="34.9"/>
		</g>
		<line class="st3" x1="182.9" y1="172.4" x2="130.8" y2="172.9"/>
		<line class="st3" x1="131.1" y1="172.5" x2="130.7" y2="118.5"/>
		<line class="st3" x1="129.7" y1="35.4" x2="181.8" y2="34.9"/>
		<line class="st3" x1="130.5" y1="89.8" x2="130.1" y2="35.7"/>
	</g>
	<g>
		<g>
			<line class="st3" x1="40.8" y1="36.2" x2="42.4" y2="173.8"/>
			<line class="st3" x1="40.8" y1="36.2" x2="42.4" y2="173.8"/>
		</g>
		<line class="st3" x1="40.5" y1="36.2" x2="92.6" y2="35.6"/>
		<line class="st3" x1="92.3" y1="35.9" x2="92.9" y2="90"/>
		<line class="st3" x1="94.1" y1="173.1" x2="42" y2="173.8"/>
		<line class="st3" x1="93.2" y1="118.7" x2="93.8" y2="172.8"/>
	</g>
</g>
<g class="st4">
	<g>
		<g>
			<line class="st5" x1="163.7" y1="155.7" x2="162.9" y2="50.6"/>
			<line class="st5" x1="163.7" y1="155.7" x2="162.9" y2="50.6"/>
		</g>
		<line class="st5" x1="163.9" y1="155.7" x2="125.7" y2="156.1"/>
		<line class="st5" x1="126" y1="155.8" x2="125.6" y2="114.5"/>
		<line class="st5" x1="125" y1="51" x2="163.2" y2="50.6"/>
		<line class="st5" x1="125.5" y1="92.6" x2="125.2" y2="51.2"/>
	</g>
	<g>
		<g>
			<line class="st5" x1="59.7" y1="51.6" x2="60.8" y2="156.7"/>
			<line class="st5" x1="59.7" y1="51.6" x2="60.8" y2="156.7"/>
		</g>
		<line class="st5" x1="59.5" y1="51.6" x2="97.7" y2="51.1"/>
		<line class="st5" x1="97.4" y1="51.4" x2="97.9" y2="92.7"/>
		<line class="st5" x1="98.8" y1="156.2" x2="60.6" y2="156.7"/>
		<line class="st5" x1="98.1" y1="114.6" x2="98.6" y2="156"/>
	</g>
</g>
<g class="st6">
	<g>
		<g>
			<line class="st7" x1="148.5" y1="142.8" x2="147.9" y2="67.7"/>
			<line class="st7" x1="148.5" y1="142.8" x2="147.9" y2="67.7"/>
		</g>
		<line class="st7" x1="148.6" y1="142.8" x2="121.6" y2="143"/>
		<line class="st7" x1="121.8" y1="142.9" x2="121.6" y2="113.4"/>
		<line class="st7" x1="121.1" y1="67.9" x2="148" y2="67.7"/>
		<line class="st7" x1="121.5" y1="97.7" x2="121.2" y2="68.2"/>
	</g>
	<g>
		<g>
			<line class="st7" x1="74.9" y1="68.4" x2="75.8" y2="143.5"/>
			<line class="st7" x1="74.9" y1="68.4" x2="75.8" y2="143.5"/>
		</g>
		<line class="st7" x1="74.8" y1="68.4" x2="101.8" y2="68.1"/>
		<line class="st7" x1="101.6" y1="68.3" x2="101.9" y2="97.8"/>
		<line class="st7" x1="102.6" y1="143.1" x2="75.5" y2="143.5"/>
		<line class="st7" x1="102.1" y1="113.5" x2="102.4" y2="143"/>
	</g>
</g>
<g>
	<g>
		<g>
			<line class="st1" x1="5.5" y1="5.2" x2="5.5" y2="206.2"/>
			<line class="st1" x1="5.5" y1="5.2" x2="5.5" y2="206.2"/>
		</g>
		<line class="st1" x1="5" y1="5.2" x2="84" y2="5.2"/>
		<line class="st1" x1="83.5" y1="5.7" x2="83.5" y2="84.7"/>
		<line class="st1" x1="84" y1="206.2" x2="5" y2="206.2"/>
		<line class="st1" x1="83.5" y1="126.7" x2="83.5" y2="205.7"/>
	</g>
	<g>
		<g>
			<line class="st1" x1="218.9" y1="206.1" x2="218.1" y2="5.1"/>
			<line class="st1" x1="218.9" y1="206.1" x2="218.1" y2="5.1"/>
		</g>
		<line class="st1" x1="219.4" y1="206.1" x2="140.4" y2="206.4"/>
		<line class="st1" x1="140.9" y1="205.9" x2="140.6" y2="126.9"/>
		<line class="st1" x1="139.6" y1="5.4" x2="218.6" y2="5.1"/>
		<line class="st1" x1="140.4" y1="84.9" x2="140.1" y2="5.9"/>
	</g>
</g>
</svg>
