<?xml version="1.0" encoding="UTF-8"?>
<svg xmlns="http://www.w3.org/2000/svg" xmlns:xlink="http://www.w3.org/1999/xlink" width="200pt" height="200pt" viewBox="0 0 200 200" version="1.1">
<g id="surface1380999">
<path style=" stroke:none;fill-rule:nonzero;fill:rgb(100%,100%,100%);fill-opacity:1;" d="M 34 42 C 32.894531 42 32 42.894531 32 44 L 32 64 C 32 65.105469 32.894531 66 34 66 L 166 66 C 167.105469 66 168 65.105469 168 64 L 168 44 C 168 42.894531 167.105469 42 166 42 Z M 36 46 L 164 46 L 164 62 L 36 62 L 36 58 L 147 58 C 147.359375 58.003906 147.695312 57.816406 147.878906 57.503906 C 148.058594 57.191406 148.058594 56.808594 147.878906 56.496094 C 147.695312 56.183594 147.359375 55.996094 147 56 L 36 56 Z M 153 56 C 152.640625 55.996094 152.304688 56.183594 152.121094 56.496094 C 151.941406 56.808594 151.941406 57.191406 152.121094 57.503906 C 152.304688 57.816406 152.640625 58.003906 153 58 L 157 58 C 157.359375 58.003906 157.695312 57.816406 157.878906 57.503906 C 158.058594 57.191406 158.058594 56.808594 157.878906 56.496094 C 157.695312 56.183594 157.359375 55.996094 157 56 Z M 34 88 C 32.894531 88 32 88.894531 32 90 L 32 110 C 32 111.105469 32.894531 112 34 112 L 166 112 C 167.105469 112 168 111.105469 168 110 L 168 90 C 168 88.894531 167.105469 88 166 88 Z M 36 92 L 164 92 L 164 108 L 36 108 Z M 45 102 C 44.640625 101.996094 44.304688 102.183594 44.121094 102.496094 C 43.941406 102.808594 43.941406 103.191406 44.121094 103.503906 C 44.304688 103.816406 44.640625 104.003906 45 104 L 135 104 C 135.359375 104.003906 135.695312 103.816406 135.878906 103.503906 C 136.058594 103.191406 136.058594 102.808594 135.878906 102.496094 C 135.695312 102.183594 135.359375 101.996094 135 102 Z M 141 102 C 140.640625 101.996094 140.304688 102.183594 140.121094 102.496094 C 139.941406 102.808594 139.941406 103.191406 140.121094 103.503906 C 140.304688 103.816406 140.640625 104.003906 141 104 L 147 104 C 147.359375 104.003906 147.695312 103.816406 147.878906 103.503906 C 148.058594 103.191406 148.058594 102.808594 147.878906 102.496094 C 147.695312 102.183594 147.359375 101.996094 147 102 Z M 153 102 C 152.640625 101.996094 152.304688 102.183594 152.121094 102.496094 C 151.941406 102.808594 151.941406 103.191406 152.121094 103.503906 C 152.304688 103.816406 152.640625 104.003906 153 104 L 157 104 C 157.359375 104.003906 157.695312 103.816406 157.878906 103.503906 C 158.058594 103.191406 158.058594 102.808594 157.878906 102.496094 C 157.695312 102.183594 157.359375 101.996094 157 102 Z M 34 134 C 32.894531 134 32 134.894531 32 136 L 32 156 C 32 157.105469 32.894531 158 34 158 L 166 158 C 167.105469 158 168 157.105469 168 156 L 168 136 C 168 134.894531 167.105469 134 166 134 Z M 36 138 L 164 138 L 164 148 L 53 148 C 52.640625 147.996094 52.304688 148.183594 52.121094 148.496094 C 51.941406 148.808594 51.941406 149.191406 52.121094 149.503906 C 52.304688 149.816406 52.640625 150.003906 53 150 L 164 150 L 164 154 L 36 154 Z M 43 148 C 42.640625 147.996094 42.304688 148.183594 42.121094 148.496094 C 41.941406 148.808594 41.941406 149.191406 42.121094 149.503906 C 42.304688 149.816406 42.640625 150.003906 43 150 L 47 150 C 47.359375 150.003906 47.695312 149.816406 47.878906 149.503906 C 48.058594 149.191406 48.058594 148.808594 47.878906 148.496094 C 47.695312 148.183594 47.359375 147.996094 47 148 Z M 43 148 "/>
</g>
</svg>
