<?xml version="1.0" encoding="utf-8"?>
<!-- Generator: Adobe Illustrator 22.0.0, SVG Export Plug-In . SVG Version: 6.00 Build 0)  -->
<svg version="1.1" id="Слой_1" xmlns="http://www.w3.org/2000/svg" xmlns:xlink="http://www.w3.org/1999/xlink" x="0px" y="0px"
	 viewBox="0 0 2141.6 1684" style="enable-background:new 0 0 2141.6 1684;" xml:space="preserve">
<style type="text/css">
	.st0{opacity:0.95;fill:url(#SVGID_1_);}
	.st1{fill:#96BFE6;}
	.st2{opacity:0.95;fill:url(#SVGID_2_);}
	.st3{fill:#4598E6;}
	.st4{fill:url(#SVGID_3_);}
	.st5{opacity:0.95;fill:url(#SVGID_4_);}
	.st6{fill:#385369;}
	.st7{fill:#EEA886;}
	.st8{fill:#434343;}
	.st9{fill:#A77860;}
	.st10{fill:#0E2D3D;}
	.st11{fill:#163342;}
	.st12{fill:#1D3B54;}
	.st13{fill:#285173;}
	.st14{fill:#FFBF55;}
	.st15{fill:#183C59;}
	.st16{fill:#616161;}
	.st17{fill:#E0CEC7;}
	.st18{fill:#EEA987;}
	.st19{fill:url(#SVGID_5_);}
	.st20{fill:url(#SVGID_6_);}
	.st21{fill:url(#SVGID_7_);}
	.st22{fill:url(#SVGID_8_);}
	.st23{fill:url(#SVGID_9_);}
	.st24{fill:#FFFFFF;}
	.st25{fill:url(#SVGID_10_);}
	.st26{fill:url(#SVGID_11_);}
	.st27{opacity:0.95;fill:url(#SVGID_12_);}
	.st28{fill:#344052;}
	.st29{fill:#EB4747;}
	.st30{fill:#393D63;}
	.st31{fill:#DECBC4;}
	.st32{fill:#E8734D;}
	.st33{fill:#3C4145;}
	.st34{fill:#51565C;}
	.st35{fill:#F5E2D9;}
	.st36{fill:#D44040;}
	.st37{fill:#2D3133;}
	.st38{fill:#292C47;}
	.st39{fill:#424773;}
	.st40{fill:#3A3F47;}
	.st41{fill:#E2D2CA;}
	.st42{fill:#323657;}
	.st43{fill:#FFDF69;}
	.st44{fill:#AB9546;}
	.st45{opacity:0.95;}
	.st46{fill:url(#SVGID_13_);}
	.st47{fill:url(#SVGID_14_);}
	.st48{fill:url(#SVGID_15_);}
	.st49{fill:url(#SVGID_16_);}
	.st50{fill:url(#SVGID_17_);}
	.st51{fill:url(#SVGID_18_);}
	.st52{fill:url(#SVGID_19_);}
	.st53{fill:url(#SVGID_20_);}
	.st54{fill:url(#SVGID_21_);}
	.st55{fill:url(#SVGID_22_);}
	.st56{fill:url(#SVGID_23_);}
</style>
<g>
	<linearGradient id="SVGID_1_" gradientUnits="userSpaceOnUse" x1="1085.3845" y1="1199.0176" x2="1044.1956" y2="452.4568">
		<stop  offset="0" style="stop-color:#D1D7E0"/>
		<stop  offset="1" style="stop-color:#EBEBFF"/>
	</linearGradient>
	<path class="st0" d="M1252.8,779.9H842.6c-32.4,0-58.7-26.3-58.7-58.7V311.1c0-32.4,26.3-58.7,58.7-58.7h410.1
		c32.4,0,58.7,26.3,58.7,58.7v410.1C1311.4,753.7,1285.2,779.9,1252.8,779.9z"/>
	<rect x="925.6" y="659.8" class="st1" width="244.2" height="12.1"/>
	<rect x="960.2" y="697.9" class="st1" width="175" height="12.1"/>
	<linearGradient id="SVGID_2_" gradientUnits="userSpaceOnUse" x1="1759.1641" y1="1407.1495" x2="1759.1641" y2="638.5546">
		<stop  offset="0" style="stop-color:#D1D7E0"/>
		<stop  offset="1" style="stop-color:#EBEBFF"/>
	</linearGradient>
	<path class="st2" d="M2051,1282.7h-583.7c-38.2,0-69.1-30.9-69.1-69.1V504.5c0-38.2,30.9-69.1,69.1-69.1H2051
		c38.2,0,69.1,30.9,69.1,69.1v709.1C2120.1,1251.8,2089.2,1282.7,2051,1282.7z"/>
	<g>
		<rect x="1725.5" y="935.3" class="st3" width="57.3" height="10.6"/>
	</g>
	<g>
		<rect x="1508.2" y="1032.4" class="st1" width="333.2" height="20.5"/>
		<rect x="1508.2" y="1131" class="st1" width="269.4" height="20.5"/>
		<rect x="1508.2" y="1081.7" class="st1" width="157.9" height="20.5"/>
	</g>
	<g>
		<path class="st3" d="M1928.5,519.9v10.4h61.1v57.3h10.4v-67.7H1928.5z M1513.9,587.6h10.4v-57.3h61.1v-10.4h-71.4V587.6z
			 M1989.5,883.2v57.3h-61.1v10.4h71.4v-67.7H1989.5z M1524.3,883.2h-10.4v67.7h71.4v-10.4h-61.1V883.2z"/>
	</g>
	<g>
		<g>
			<path class="st3" d="M1967.6,1153.1c-33.7,0-61.1-27.4-61.1-61.1c0-33.7,27.4-61.1,61.1-61.1s61.1,27.4,61.1,61.1
				C2028.6,1125.7,2001.2,1153.1,1967.6,1153.1z M1967.6,1042.8c-27.2,0-49.2,22.1-49.2,49.2c0,27.2,22.1,49.2,49.2,49.2
				s49.2-22.1,49.2-49.2C2016.8,1064.8,1994.7,1042.8,1967.6,1042.8z"/>
		</g>
		<g>
			<polygon class="st3" points="1963.7,1116 1935.9,1088.3 1944.3,1079.9 1963.7,1099.3 1990.9,1072.1 1999.2,1080.5 			"/>
		</g>
	</g>
	<linearGradient id="SVGID_3_" gradientUnits="userSpaceOnUse" x1="22.8389" y1="1629.2251" x2="2004.2969" y2="1629.2251">
		<stop  offset="5.208330e-03" style="stop-color:#1A2257"/>
		<stop  offset="1" style="stop-color:#5E60F2"/>
	</linearGradient>
	<path class="st4" d="M2004.3,1629.2c0,25.6-443.6,46.4-990.7,46.4c-547.2,0-990.7-20.8-990.7-46.4c0-25.6,443.6-46.4,990.7-46.4
		C1560.7,1582.9,2004.3,1603.6,2004.3,1629.2z"/>
	<linearGradient id="SVGID_4_" gradientUnits="userSpaceOnUse" x1="1047.7124" y1="932.525" x2="1047.7124" y2="370.5236">
		<stop  offset="0" style="stop-color:#D1D7E0"/>
		<stop  offset="1" style="stop-color:#EBEBFF"/>
	</linearGradient>
	<rect x="869.9" y="272.2" class="st5" width="355.5" height="305"/>
	<g>
		<path class="st6" d="M1183.5,457.9c-11.7-31-39.8-45.2-53.1-49.6c-4.7-1.6-13.2-4.3-22.1-7.2c-16-5.2-33.6-10.8-33.6-10.8h-55.3
			c0,0-19.2,6.4-39.5,13.6c0,0,0,0,0,0c-18.8,6.6-38.5,13.8-45.2,17.1c-13.9,6.9-37.3,56.6-42,62.3c-2.4,2.9-13.3,22.3-24,43.9h59.6
			c6.3-10.8,11.2-19.2,11.2-19.2s3.8,8.3,8.3,19.2h191c3-12.7,4.9-28.7,4.9-28.7s10.2,13.9,21.4,28.7h55
			C1206.7,504.6,1190.1,475.4,1183.5,457.9z"/>
		<g>
			<path class="st7" d="M1053.7,238.2c0,0,43.3,6.8,36.7,74.5c-6.6,67.7-44.8,62.1-47.3,62.1c-2.6-0.1-38.3,1.2-41.1-81.4
				C1001.9,293.3,1000.7,232.2,1053.7,238.2z"/>
		</g>
		<g>
			<path class="st7" d="M1091,293.6c0,0,4.7-5.1,6.5,0.1c1.7,5.1-6.5,28-6.8,29c0,0-0.9,2-2,0.9C1087.6,322.5,1091,293.6,1091,293.6
				z"/>
		</g>
		<g>
			<path class="st7" d="M1003.1,292.7c0,0-4.6-5.2-6.5-0.1c-1.8,5.1,5.8,28.1,6.2,29.2c0,0,0.8,2,2,0.9
				C1005.9,321.7,1003.1,292.7,1003.1,292.7z"/>
		</g>
		<g>
			<path class="st8" d="M1091,303.9l-6.2,8.3c0,0,0.2-18.2-0.8-21c-1-2.8-2.5-11.5-3.3-13.6c-0.8-2-37.2-12.2-69.2,3
				c0,0,1.4,13.1-1.7,14.2c-3.1,1.2-1.6,21.3-1.6,21.3l-5.1-5.7c0,0-7.8-52.1-5.9-57.5c1.9-5.4,8.1-38.1,73.9-18.7
				c0,0,20.5-4.3,24.6,9.8C1099.9,258.1,1091,303.9,1091,303.9z"/>
		</g>
		<path class="st7" d="M1080.1,389c0-0.1-5.6-2.7-5.6-2.7c-2.7-6-0.7-31.5-0.7-31.5s-55.1-14-53.5-3.3c1.6,10.7-4.7,35.6-4.7,35.6
			l-28.3,14c0,0,30.1,80.9,64.7,70.4c34.6-10.4,47.7-73.4,47.7-73.4L1080.1,389z"/>
		<path class="st9" d="M1021.1,363.4c0,0,8.9,11.5,24.3,11.5c10.1,0,17.4-2.8,27.5-12.7c0,0-4.4,18.7-27.4,20.4
			C1045.5,382.7,1028.8,384.8,1021.1,363.4z"/>
	</g>
	<g>
		<g>
			<g>
				<g>
					<g>
						<g>
							<path class="st10" d="M862.1,635c0,0,31.8,15.6,23.9,57.9c-7.9,42.3-11.3,48-2.5,64.5c8.8,16.5,19.2,87.1,11.3,100.4
								c-7.9,13.4-98-58.7-110.4-119.2c-12.5-60.5,7.9-87.4,15.1-97.4C806.6,631.1,834,620.8,862.1,635z"/>
						</g>
					</g>
				</g>
			</g>
		</g>
		<g>
			<path class="st11" d="M850.1,1616.9h7.2v-34c0,0,14.1,9.4,23,22.4c8.9,13,21.1,11.9,39.6,11.1c18.6-0.8,17.7-8.3,16.1-18.8
				c-1.7-10.5-20.5-13.9-26.6-15.5c-6.1-1.7-19.9-25.5-24.4-31.3c-6.1-7.9-9.3-15.5-9.3-15.5s-3.5-14.1-20.6,0
				c-17.2,14.1-12.2,41.3-10.3,43.8S850.1,1616.9,850.1,1616.9z"/>
		</g>
		<g>
			<path class="st7" d="M886.4,1582c6.4,4.2,23,0,23,0c-4.7-6.1-33.7-46.8-33.7-46.8c-17.6-10.3-24.6,3.9-24.6,3.9
				C858.3,1541.3,880,1577.9,886.4,1582z"/>
		</g>
		<g>
			<g>
				<g>
					<g>
						<path class="st7" d="M1071.7,955.1c0,0,11.5,2.2,15.5-3.2c3.4-4.6,11-8.1,13.4-9.2c3.2-1.5,11.2-9.6,13-5.6
							c1.9,4-12.6,14-15.2,16.7c-2.6,2.7,14.2,3.9,17,6.5c2.9,2.6-0.7,30.3-12.1,28.1c-11.4-2.2-22.2-12-24.3-12
							c-2.1,0-8.4-1.2-8.4-1.2L1071.7,955.1z"/>
					</g>
				</g>
			</g>
		</g>
		<g>
			<g>
				<g>
					<g>
						<path class="st7" d="M1112.9,959.2c0,0,34.5,8.9,36.3,11.4c1.8,2.5,1.2,4.4-2.1,3.7c-3.3-0.7-33.6-7.6-33.6-7.6
							s39,17.4,41,19.1c1.1,1,0.2,4.7-1.6,4.4c-1.8-0.2-41.5-15.3-41.5-15.3s36.4,16.3,37.6,18.3c1,1.7-0.7,4.8-3.5,3.8
							c-2.8-1-37.5-14.3-37.5-14.3s25.8,13.5,25.8,15.8c0,1.4-0.6,4.5-7.2,0.8c-6.5-3.7-22.9-10.8-22.9-10.8L1112.9,959.2z"/>
					</g>
				</g>
			</g>
		</g>
		<g>
			<path class="st11" d="M756.7,1619.2h4.4v-24.9c0,0,7.9,8.1,11.5,20c3.6,11.9,16.5,15.5,36.2,14.9c19.7-0.6,20-8.3,18.3-20
				c-1.7-11.6-18.3-17.7-18.3-17.7c-7.5-6.7-26.1-34.2-26.1-34.2s-11.9-3.2-21.3,4.4c-9.4,7.5-6.4,24.6-6.2,29
				C755.6,1595.1,756.7,1619.2,756.7,1619.2z"/>
		</g>
		<g>
			<path class="st12" d="M770.3,1025c0,0-23.4,30.5-29.8,66.7c-6.4,36.2,3.8,157.6,3.5,175.4c-0.3,17.9-16.9,62.4-13.6,96
				s16.4,201.3,16.4,201.3l35.9-7.1c0,0-2.1-170.9,0-185s6.3-65.7,7.1-71.5c0.8-5.8,52.8-158.6,52.8-184.7
				C842.6,1090,826.8,982.5,770.3,1025z"/>
		</g>
		<g>
			<path class="st12" d="M888.1,1036.9c0,0,38.5,147,43.1,167.4c4.6,20.4,11.2,37.2,11.2,45.8c0,20.1-7.5,52.3-7.5,52.3l-48.9,234
				h-46.6c0,0,26-140.4,26.7-167.8c0.7-27.5,21.9-66.6,17.7-78.2c-4.2-11.6-66.9-145.9-66.9-145.9S769.3,994.2,888.1,1036.9z"/>
		</g>
		<g>
			<path class="st7" d="M808.8,1591.5l-26.1-34.2l-21.3,4.4c0,0,5.7,15.3,16.1,26.8C789.8,1602.1,808.8,1591.5,808.8,1591.5z"/>
		</g>
		<g>
			<g>
				<path class="st13" d="M872.2,787.1c0,0,15.9,1.5,27.9,14.4c12,12.9,23.3,33.4,26.4,40.2c3.1,6.9,47.2,70.4,49.5,71.8
					c2.3,1.4,24.4,8.8,39.1,13.8c22.6,7.6,68,24.1,68,24.1l-9,28.5c0,0-85.4-27.9-106.7-33.2c-26.1-6.4-86.3-83.6-86.3-83.6
					S836.1,810.5,872.2,787.1z"/>
			</g>
		</g>
		<g>
			<g>
				<path class="st14" d="M844.4,775.9c0,0,20.6,9.7,27.7,11.1c7.1,1.4,34.9,37.4,39.7,50.6c4.9,13.1,0,32.9-10,56
					c-10,23.1-0.6,30.9-5.1,54c-4.6,23.1-3.1,109.7-2.2,122.6c0.9,12.9-133.7,32.3-160.3,8.9c0,0,18-78,39.3-100.3
					c4.6-4.8,4.1-36.9,1-44.9c-3.1-8-38.6-67.7-38.6-67.7s-2.6-60.6,12.9-72.6c13.4-10.4,50-14.1,56.6-16.4
					C811.9,774.9,831,773.9,844.4,775.9z"/>
			</g>
		</g>
		<g>
			<g>
				<path class="st7" d="M854.3,752.2c0,0-0.6,5.7-1.3,13.3c-0.3,3-0.6,6.4-0.8,9.8c-0.8,10.3-1.5,21.3-1.1,26.9
					c0,0-21.4,21.4-45.7-25c0,0,10.2-19.1,2.5-45.2C800.1,705.9,854.3,752.2,854.3,752.2z"/>
			</g>
		</g>
		<g>
			<path class="st15" d="M914.1,902.2c0,0,5.1-34.2-0.3-55c0,0,0,17.9-9.8,43.3L914.1,902.2z"/>
		</g>
		<g>
			<path class="st7" d="M788.9,780.5c0,0,14.7,43.4,55.1,40.2c40.4-3.2,19.1-36.7,19.1-36.7s-10.1-5.8-12.9-6.3
				c-2.8-0.5-44.6-1.1-44.6-1.1L788.9,780.5z"/>
		</g>
		<g>
			<path class="st13" d="M863.1,784.1c0,0,21.1,58.5,21.1,118.1c0,59.6,1.7,156.7,9.1,187.4s28.4,125.5,28.4,125.5l16.5-8.5
				c0,0-39.6-151.4-42.6-162.3c-3-10.9,2.3-126.2,5.1-135.9c2.8-9.7,14.9-52.6,13-64.6c-2.4-15-16.4-37.3-39.1-56.4L863.1,784.1z"/>
		</g>
		<g>
			<path class="st13" d="M796.9,778.7c0,0,13.1,42.1,19.8,96c6.7,53.9-20.4,304.1-38.6,360.9l-70.4-11.4c0,0,15.2-176.8,35.7-209
				c20.6-32.2,27.1-60.7,4.9-127.8c-22.2-67.2,9.7-100.4,9.7-100.4S790.7,779.4,796.9,778.7z"/>
		</g>
		<g>
			<polygon class="st16" points="872.8,957.2 787.5,1105.1 692.5,1050.2 774.2,900.2 			"/>
		</g>
		<g>
			<polygon class="st17" points="862.6,962.2 786.7,1093.6 702.4,1044.9 775,911.7 			"/>
		</g>
		<g>
			<polygon class="st16" points="834.6,950.4 839.9,941.2 805.8,921.5 799.2,930 			"/>
		</g>
		<g>
			<g>
				<g>
					<g>
						<g>
							<g>
								<path class="st7" d="M830.5,1055.4c0,0-3.9,0-5.6-0.8c0,0-3-1.7-5.2-2.8c-0.7-0.3-1.3-0.6-1.7-0.8c-1.7-0.6-5.7-1.4-9.5-4
									c-3.8-2.6-17.1-18.1-17.1-18.1l6.3-9.6l4.6-9.8c0,0,28.1,1.8,31.9,3.8c0.4,0.2,0.7,0.4,1,0.6c3,2,4.5,4.8,5.9,6.1
									c0.5,0.5,5.6,5.4,5.4,7.5c-0.2,2.9-1.6,4.9-3.4,5.8c0,0-0.7,5.7-3.5,8.4c0,0-0.5,5.3-4.9,7.6
									C834.7,1049.3,833.6,1054.6,830.5,1055.4z"/>
							</g>
						</g>
					</g>
				</g>
			</g>
		</g>
		<g>
			<g>
				<path class="st13" d="M772.6,787.1c0,0-25.9-7.4-40.8,21.1c-14.9,28.6-14.8,40.8-16.8,54.7c-1.9,13.2-10.3,49.1-11.2,52.9
					c-0.9,3.7-20,48-11.2,63.5c8.8,15.6,98.6,61.4,98,64.8c-0.6,3.4,15.5-34.6,15.5-34.6S769.9,989.2,764,983
					c-9.7-10.1-30-21-25.9-33.6c4.9-14.8,19.7-64.5,23.1-71.8C764.6,870.3,794.5,796.4,772.6,787.1z"/>
			</g>
		</g>
		<g>
			<g>
				<g>
					<g>
						<g>
							<path class="st18" d="M857.5,639.7c0,0,46.2,14.5,21.1,94.2c-25.1,79.7-88.1-9.2-81.5-57.8
								C803.6,627.6,857.5,639.7,857.5,639.7z"/>
						</g>
					</g>
				</g>
			</g>
		</g>
		<g>
			<g>
				<g>
					<g>
						<g>
							<path class="st10" d="M883.3,686.2c0,0-22.9,22.5-61.3,25.3c0,0-14.8,17.3-15.9,24.1c0,0-34.3-58.4,7.9-93.4
								C856,607.2,898.7,671.8,883.3,686.2z"/>
						</g>
					</g>
				</g>
			</g>
		</g>
		<g>
			<g>
				<g>
					<g>
						<g>
							<path class="st18" d="M822.4,713.1c-0.3-5.8-3.9-19-12.5-15.3c-8.6,3.7,0.5,30.6,6.2,28.9
								C816.2,726.7,823.1,726.8,822.4,713.1z"/>
						</g>
					</g>
				</g>
			</g>
		</g>
		<g>
			<path class="st9" d="M852.9,765.5c-0.3,3-0.6,6.4-0.8,9.8c0,0-20.4-1.2-34-31.5C819,745.1,833.9,767,852.9,765.5z"/>
		</g>
	</g>
	<g>
		<g>
			
				<linearGradient id="SVGID_5_" gradientUnits="userSpaceOnUse" x1="-3961.584" y1="1254.3564" x2="-3834.1958" y2="1254.3564" gradientTransform="matrix(-1 0 0 1 -3489.5742 0)">
				<stop  offset="0" style="stop-color:#3076A1"/>
				<stop  offset="1" style="stop-color:#48C9B6"/>
			</linearGradient>
			<path class="st19" d="M347.4,1494c29.6-20.8,64.2-165.9,66.3-252.3c1.1-44.3,14.1-62.7,25.7-79c11-15.6,20.6-29,15-59.8
				c-10.6-58.9,17.3-84.4,17.6-84.6l-3.2-3.7c-1.2,1.1-30.3,27.3-19.2,89.2c5.2,28.8-3.4,40.9-14.2,56.1
				c-11.4,16-25.5,35.9-26.6,81.7c-2.2,92.7-37.6,229.7-64.2,248.4L347.4,1494z"/>
		</g>
		<g>
			
				<linearGradient id="SVGID_6_" gradientUnits="userSpaceOnUse" x1="-3862.6077" y1="1359.5096" x2="-3631.0198" y2="1359.5096" gradientTransform="matrix(-1 0 0 1 -3489.5742 0)">
				<stop  offset="0" style="stop-color:#3076A1"/>
				<stop  offset="1" style="stop-color:#48C9B6"/>
			</linearGradient>
			<path class="st20" d="M285.4,1451.7c-2.8-6.3-5.7-12.9-9-19.8c-16.9-35.7-31.9-41.6-56.7-51.3c-6.1-2.4-12.9-5.1-20.5-8.5
				c-35.5-16-28.7-39.5-22.6-60.3c0.8-2.9,1.7-5.8,2.4-8.7c3.1-12.2-2.9-18.3-12-27.6c-6.8-6.9-15.2-15.5-21.7-29
				c-7.1-14.8-3.5-22.8,0.8-26.8c9-8.5,29.8-7,49.4,3.7c6.1,3.3,11.1,8.6,16.4,14.2c12.5,13.1,28.1,29.4,67.5,29.6
				c22.5,0.1,34.8,3.2,41.1,10.4c7.2,8.1,5.9,20.3,4,37.1c-0.7,5.8-1.4,12.4-1.8,19.6c-2.7,42.5,22.4,73.2,22.7,73.5
				c15,17.9,33.5,54.9,25.5,77.8c-3.3,9.6-10.8,15.6-22.2,17.9c-4.5,0.9-8.7,1.4-12.5,1.4C308.8,1504.8,298.7,1482,285.4,1451.7z
				 M193.4,1227.7c-17.5-9.6-36.3-11.5-43.7-4.5c-5.6,5.3-3,14.5,0.2,21.2c6.1,12.8,13.9,20.7,20.7,27.7c9.5,9.7,17,17.4,13.2,32.3
				c-0.7,2.9-1.6,5.9-2.5,8.8c-6,20.7-11.8,40.2,19.9,54.5c7.4,3.3,14.2,6,20.3,8.4c25.1,9.8,41.6,16.3,59.3,53.8
				c3.3,7,6.2,13.5,9,19.9c15.3,34.7,24.6,55.7,58,48.9c9.6-1.9,15.8-6.9,18.6-14.7c7-20.1-9.8-55.3-24.6-73
				c-1.1-1.3-26.6-32.4-23.8-77c0.5-7.2,1.2-13.9,1.9-19.8c1.7-15.6,3-26.8-2.8-33.3c-5.3-5.9-16.9-8.6-37.5-8.7
				c-41.5-0.2-57.8-17.3-71-31.1C203.3,1235.5,198.8,1230.7,193.4,1227.7L193.4,1227.7z"/>
		</g>
		<g>
			
				<linearGradient id="SVGID_7_" gradientUnits="userSpaceOnUse" x1="-3842.8115" y1="1393.1875" x2="-3668.9893" y2="1393.1875" gradientTransform="matrix(-1 0 0 1 -3489.5742 0)">
				<stop  offset="0" style="stop-color:#3076A1"/>
				<stop  offset="1" style="stop-color:#48C9B6"/>
			</linearGradient>
			<path class="st21" d="M348.3,1533.1l4.9-0.3c-0.2-4.6-6.4-112.9-49.9-144.5c-47.7-34.8-62.7-72.1-69.9-97.2
				c-8.4-29.5-51.4-37.4-53.2-37.8l-0.9,4.8c0.4,0.1,41.8,7.7,49.4,34.3c7.4,25.8,22.8,64.2,71.7,99.8
				C342.1,1422.5,348.3,1532,348.3,1533.1z"/>
		</g>
		<g>
			
				<linearGradient id="SVGID_8_" gradientUnits="userSpaceOnUse" x1="-4052.9258" y1="1216.6116" x2="-3791.9011" y2="1216.6116" gradientTransform="matrix(-1 0 0 1 -3489.5742 0)">
				<stop  offset="0" style="stop-color:#3076A1"/>
				<stop  offset="1" style="stop-color:#48C9B6"/>
			</linearGradient>
			<path class="st22" d="M340.1,1557.4c-10.2-5.1-9.9-25.6-9.3-56.6c0.7-39.2,1.7-92.8-18.8-142.2c-21.8-52.4-2.4-67.7,16.4-82.6
				c21-16.6,40.9-32.3,2.8-103c-17.5-32.5-23.1-54.5-17.5-69.2c5.5-14.5,21-20.2,37.4-26.2c28.3-10.3,60.3-22.1,56.2-81.9
				c-1.3-18.3,0.9-29.6,6.8-35.5c6.4-6.4,15.8-5.7,26.8-4.9c16.5,1.2,35.2,2.6,51.5-18.7c1.7-5.3,17.3-52.7,35.9-60.9
				c3.9-1.7,7.8-1.7,11.4,0.1l0,0c12.9,6.2,20.3,13.5,22.8,22.3c4.3,15.4-7,32.8-20,52.9c-20.5,31.6-43.8,67.5-19.7,110.2
				c31.9,56.4,15.1,76.2-8.3,103.5c-13.4,15.7-28.5,33.4-38.7,62.3c-8.1,23.3,5.8,45.5,19.2,66.9c16.9,26.9,34.3,54.8-2.4,78.9
				c-60.7,39.9-120.7,170.3-121.3,171.6l-0.2,0.5l-0.5,0.4c-11.2,8.8-19.3,12.9-25.5,12.9C343.3,1558.5,341.6,1558.2,340.1,1557.4z
				 M489.9,1369c32.7-21.5,18-45,1-72.2c-13.4-21.4-28.6-45.7-19.7-71.1c10.4-29.8,25.9-47.9,39.6-63.9c22.9-26.8,38-44.5,7.7-97.9
				c-25.6-45.3-0.4-84.1,19.8-115.2c12.4-19.1,23.2-35.7,19.4-48.9c-2.1-7.4-8.7-13.7-20.2-19.2l0,0c-2.3-1.1-4.7-1.1-7.3,0
				c-17.3,7.5-33.2,57.7-33.3,58.2l-0.1,0.4l-0.3,0.3c-18,23.7-39.1,22.2-56,20.9c-10.1-0.7-18.1-1.3-23,3.5
				c-4.8,4.7-6.5,15.1-5.4,31.7c4.4,63.5-31,76.4-59.4,86.8c-16,5.8-29.7,10.9-34.5,23.3c-5,13.3,0.4,34,17.2,65.1
				c40.1,74.4,17.7,92.1-4.1,109.2c-18.2,14.3-35.3,27.8-14.9,76.8c20.9,50.3,19.9,104.5,19.2,144.1c-0.5,27-0.9,48.4,6.6,52.1
				c4.4,2.2,12.7-1.5,24.8-10.9C371.9,1531.6,429.4,1408.8,489.9,1369z"/>
		</g>
		<linearGradient id="SVGID_9_" gradientUnits="userSpaceOnUse" x1="407.935" y1="1501.5405" x2="255.9583" y2="1045.6091">
			<stop  offset="0" style="stop-color:#3076A1"/>
			<stop  offset="1" style="stop-color:#48C9B6"/>
		</linearGradient>
		<path class="st23" d="M244.3,989.2c30.9-10.6,24.5,49,37.5,93s145.2,19.2,89.8,129.5s70.2,36.9,32.6,133.2
			c-37.5,96.3-3.3,199.2-44.1,173.1c-40.8-26.2-22.9-147.4-65.3-161.8c-42.4-14.4-49.4-31.2-7.3-70.4c42-39.2-110.1-78-72.5-157.1
			C252.4,1049.6,208.6,1001.4,244.3,989.2z"/>
		<g>
			<path class="st24" d="M345.9,1511.6c3.9-16.5,37.1-161.5,6.1-179.1c-27.3-15.5-26.6-75.6-22.4-132.3
				c3.8-50.2-60.8-73.7-63.5-74.7l-1.6,4.6c0.6,0.2,63.7,23.2,60.3,69.7c-4.4,58.3-4.8,120.1,24.8,136.9
				c23.5,13.3,1.9,129.9-8.5,173.7L345.9,1511.6z"/>
		</g>
		<linearGradient id="SVGID_10_" gradientUnits="userSpaceOnUse" x1="290.3509" y1="1799.3005" x2="366.3395" y2="1471.728">
			<stop  offset="0" style="stop-color:#C9C4C1"/>
			<stop  offset="1" style="stop-color:#FFF6DE"/>
		</linearGradient>
		<polygon class="st25" points="462.5,1460 418.4,1627.3 319.8,1627.3 275.7,1460 		"/>
		
			<linearGradient id="SVGID_11_" gradientUnits="userSpaceOnUse" x1="256.1264" y1="1543.6729" x2="442.9281" y2="1543.6729" gradientTransform="matrix(1 0 0 1 19.5338 0)">
			<stop  offset="0" style="stop-color:#C9C4C1"/>
			<stop  offset="1" style="stop-color:#FFF6DE"/>
		</linearGradient>
		<path class="st26" d="M462.5,1460c0,0-97.1,18.2-97.1,167.4h-45.6L275.7,1460H462.5z"/>
	</g>
	<linearGradient id="SVGID_12_" gradientUnits="userSpaceOnUse" x1="1557.0205" y1="457.3976" x2="1557.0205" y2="140.8139">
		<stop  offset="0" style="stop-color:#D1D7E0"/>
		<stop  offset="1" style="stop-color:#EBEBFF"/>
	</linearGradient>
	<path class="st27" d="M1702.6,406.2h-291.1c-26.6,0-48.2-21.6-48.2-48.2V105.4c0-26.6,21.6-48.2,48.2-48.2h291.1
		c26.6,0,48.2,21.6,48.2,48.2v252.6C1750.8,384.6,1729.2,406.2,1702.6,406.2z"/>
	<g>
		<rect x="1540.2" y="340.1" class="st3" width="30.7" height="5.7"/>
	</g>
	<g>
		<g>
			<g>
				<g>
					<path class="st28" d="M1583.3,26.6c0,0,24.8,13.6,16.9,47c-7.9,33.4-10.9,37.9-4.5,51.4c6.4,13.5,12,70.1,5.2,80.5
						s-75.9-50.5-83.6-99.2c-7.7-48.7,9.6-69.4,15.7-77.1S1561.5,14.2,1583.3,26.6z"/>
				</g>
			</g>
		</g>
		<g>
			<path class="st7" d="M1629.8,302.9h-26.5c-1.3-13.1-2.5-22.2-2.2-23.5c0.4-2.2-26.4-72.4-28.9-78.3c-2.5-5.8-12.3-21.4-13.6-36
				c-1.3-14.7,17.8-20.6,17.8-20.6c25.8,4.6,34.6,40.3,34.6,40.3s10.8,72.4,16.3,92.8C1628.7,282.9,1629.5,292.1,1629.8,302.9z"/>
		</g>
		<path class="st29" d="M1616.5,202.3l-39.5,16.6c0,0-36.3-90.1-5.9-80C1601.5,149,1615.1,167.8,1616.5,202.3z"/>
		<g>
			<path class="st29" d="M1607.7,244.7c-1.2,8.9-5.9,40.6-4.8,49.2c0.2,1.4,0.8,4.7,1.6,9.1h-95.2c2.5-9,4.8-17,6.2-21.7
				c4.6-15.3,0.2-19.4-2.1-31.7c-0.9-4.8-4.1-13.9-7.6-24.2c-1.2-3.4-2.4-7-3.5-10.6c-4.2-13-6.1-26.3-7.3-34
				c-5.7-36.6,22.4-40.1,22.4-40.1c10.5-1.9,28.8-7.6,28.8-7.6l28.6,6c0,0,2.7,1,6.7,4c0,0,0,0,0,0c1.9,1.4,4.1,3.3,6.4,5.6
				c3.1,3.2,9.4,12.4,15.6,22.5c1.9,3.1,3.8,6.3,5.6,9.4c5.8,10.1,10,18.2,9.8,27.4C1618.9,216.9,1608.9,235.8,1607.7,244.7z"/>
		</g>
		<path class="st7" d="M1574.8,138.9c0,0,17.9,30.7,11.3,33c-6.7,2.3-41.8-5.5-55.6-34.4C1530.5,137.5,1553.6,127,1574.8,138.9z"/>
		<path class="st7" d="M1572.2,152.9c0,0-15.9,6.7-30.4-15.5c0,0,3.9-25.2-4.3-39.8c-8.2-14.6,35.8,17.5,35.8,17.5s-0.7,3-1.5,7.4
			c-0.4,2.3-0.8,4.9-1.1,7.7c-0.2,2.3-0.4,4.8-0.5,7.2C1570.1,143.2,1570.5,148.9,1572.2,152.9z"/>
		<path class="st30" d="M1532.6,187.3c-3.3,16.9-26.8,38-26.8,38c-1.2-3.4-2.4-7-3.5-10.6C1518.5,204.3,1532.6,187.3,1532.6,187.3z"
			/>
		<g>
			<path class="st7" d="M1526.7,200.7c-1.5,6.2-8.4,68.4-7.6,70.6c0.4,1.2,3.8,15.6,7.1,31.6h-30.7c-3.1-10.3-5-18.9-4.6-23.7
				c2-21-5.2-88-5.2-88s-6.4-40.5,27.2-45.6c0,0,19.9,2.6,21.1,17.3C1535.3,177.6,1528.2,194.6,1526.7,200.7z"/>
		</g>
		<path class="st29" d="M1483.3,209.3l41.7,9.7c0,0,33.1-64.3,3.3-76C1496.9,130.7,1475.8,174.3,1483.3,209.3z"/>
		<g>
			<g>
				<g>
					<path class="st18" d="M1579.5,30.1c0,0,36.3,13.3,13.3,75.9c-23,62.6-69.9-10.7-62.8-49.1C1537,18.4,1579.5,30.1,1579.5,30.1z"
						/>
				</g>
			</g>
		</g>
		<g>
			<g>
				<g>
					<path class="st28" d="M1598.3,68.2c0,0-19.1,17.1-49.9,17.9c0,0-7.2,17.5-8.3,22.9c0,0-30.3-52.1,4.5-78.4
						C1579.6,4.2,1611.2,57.3,1598.3,68.2z"/>
				</g>
			</g>
		</g>
		<g>
			<g>
				<g>
					<path class="st18" d="M1552.6,89.8c0-4.6-2.4-15.3-9.4-12.7c-7,2.6-0.7,24.4,3.9,23.3C1547.1,100.4,1552.7,100.8,1552.6,89.8z"
						/>
				</g>
			</g>
		</g>
		<path class="st9" d="M1570.4,136.5c-17-4.7-23.6-21-23.8-21.5c13.9,17.9,24.3,15.3,24.3,15.3
			C1570.6,132.7,1570.6,134.1,1570.4,136.5z"/>
	</g>
	<g>
		<path class="st3" d="M1649.1,120.3v5.6h32.8v30.8h5.6v-36.3H1649.1z M1426.6,156.6h5.6v-30.8h32.8v-5.6h-38.3V156.6z
			 M1681.9,315.3v30.8h-32.8v5.6h38.3v-36.3H1681.9z M1432.1,315.3h-5.6v36.3h38.3v-5.6h-32.8V315.3z"/>
	</g>
	<g>
		<rect x="1027.2" y="600.9" class="st3" width="41.1" height="7.6"/>
	</g>
	<g>
		<path class="st3" d="M1170.7,307.3v7.4h43.8v41.1h7.4v-48.5H1170.7z M873.5,355.8h7.4v-41.1h43.8v-7.4h-51.2V355.8z M1214.5,567.8
			v41.1h-43.8v7.4h51.2v-48.5H1214.5z M880.9,567.8h-7.4v48.5h51.2v-7.4h-43.8V567.8z"/>
	</g>
	<g>
		<g>
			<path class="st31" d="M1964.8,878.5H1930c-0.6-1.4-1.1-2.6-1.6-3.6c-10.3-24.3-63.4-80.1-63.4-80.1s0,0,0,0.1c0,0,0,0,0,0.1
				c0,0,0,0,0,0.1c0,0.1-0.1,0.2-0.1,0.2c0,0.1-0.1,0.3-0.1,0.5c0,0.1-0.1,0.2-0.1,0.3c0,0.1-0.1,0.2-0.1,0.2
				c-2.2,8.1-12.9,48.6-18.2,82.2h-235c-0.5-3.1-1.2-6.1-1.9-8.8c-2.1-8.3-3.6-16.6-4.5-24.3c0-0.4-0.1-0.8-0.1-1.1
				c-0.2-1.4-0.3-2.8-0.5-4.2c-2-21.1-0.5-37.3-0.4-38.9c-0.7,1.4-5.4,18.8-11.6,40.3c-3.4,11.8-7.3,24.8-11.1,37.1h-55.5
				l69.6-200.9c1.5-1.2,19.6-9.9,32.8-16.2c13.4-6.4,29.7-15.8,44.3-23.8c7.5-4.1,14.6-7.8,20.7-10.6l0.9-0.4v0
				c10.1-4.6,16.9-7.7,16.9-7.7s0,0,0,0c0.2,0,1.8-0.2,4.4-0.4c14.1-1.4,58-5.5,72.7-6.3c1.2-0.1,2.2-0.1,3-0.2c0.7,0,1.2,0,1.5,0
				c1.8,0.1,10.9,3.3,22.8,7.8c0.5,0.2,0.9,0.3,1.4,0.5c0.6,0.2,1.1,0.4,1.7,0.6c1,0.4,2.1,0.8,3.1,1.2c2.1,0.8,4.3,1.7,6.5,2.6
				c0.8,0.3,1.5,0.6,2.3,0.9c23.8,9.4,51,21.1,57.5,25.8c4.3,3.1,17.6,28.2,33.1,59.2C1937.7,763.8,1958.1,840.6,1964.8,878.5z"/>
		</g>
		<g>
			<path class="st7" d="M1792.3,605c-0.6,31.6-61.8,48.9-61.8,48.9s-25.6-32.1-19.5-35.1c2.4-1.2,3.4-6,3.7-11.4
				c0.3-5.1,0-10.7-0.3-14.3c-0.2-2.2-0.4-3.7-0.4-3.7s8.7-9.2,19.9-20.2c19.4-19.2,46.1-43.8,46.2-34c0,0.5-0.1,1.1-0.2,1.9
				C1775.2,559,1792.3,605,1792.3,605z"/>
		</g>
		<g>
			<path class="st9" d="M1768.8,558.7C1768.8,558.7,1768.8,558.7,1768.8,558.7c-0.1,0.2-2.7,4.1-7.1,9.6c-9.4,11.8-27,31.2-46.9,39
				c0.3-5.1,0-10.7-0.3-14.3c-2-0.1-4.1-0.3-6.1-0.7c5.4-9.5,13.3-19.5,13.3-19.5l12.3-3.7L1768.8,558.7z"/>
		</g>
		<g>
			<path class="st7" d="M1780.5,535.6c-5.3,11.5-10.3,19.9-11.7,23.2c0,0,0,0,0,0c-0.9,2.2-3.5,5.7-7.1,9.6
				c-10.1,10.9-28.8,25.2-47.2,24.7c-2-0.1-4.1-0.3-6.1-0.7c-7.4-1.6-16.2-5.1-21-14.5c-38.2-74.7-10.5-135.8-10.5-135.8
				s104.3-29.5,120.6,1.9C1808.8,465.9,1792.9,508.6,1780.5,535.6z"/>
		</g>
		<g>
			<path class="st32" d="M1676.7,442c0,0-9.7-0.5-12.1-18.9c-2.4-18.1,2.4-23.2,2.4-23.2s43.1-18,58.5-20.4s53.5-4.6,62.4,5.6
				c0,0,21.7-5,27.6,30.9c9.4,57-31.9,112.4-31.9,112.4s0.4-37.3-7.9-42.2c-8.2-4.9-15.3,6.8-15.3,6.8l-16.8,3
				c0,0,25.5-55.1-5.1-57.2C1708,436.9,1694.3,445.2,1676.7,442z"/>
		</g>
		<g>
			<path class="st7" d="M1761,478.2c1.6-16.4,31.3-22.7,29.3-5.5c-2,17.2-16.6,33.7-23.4,33.2C1760.2,505.3,1759.8,490.8,1761,478.2
				z"/>
		</g>
		<g>
			<path class="st33" d="M1934.8,712c-9.7-31-18-55.5-21.8-58.1c-6.5-4.7-58-18.8-82.4-28.4c-0.8-0.3-1.6-0.6-2.3-0.9
				c-2.2-0.9-4.4-1.7-6.5-2.6c-1.1-0.4-2.1-0.8-3.1-1.2c-0.6-0.2-1.1-0.4-1.7-0.6c-0.5-0.2-0.9-0.4-1.4-0.5c0,0-0.1,0.1-0.1,0.1
				c-2.2,2.4-13.5,15.3-27,34.5c-25.3,35.9-58.2,94.1-53.1,147.8c1.6,17.2,3.6,42,7,69.8c0.2,2.2,0.5,4.4,0.8,6.6h114
				c1.4-29.1,3.9-67.4,7.6-82.2c0-0.1,0.1-0.2,0.1-0.2c0-0.1,0-0.2,0.1-0.3c0-0.2,0.1-0.3,0.1-0.5c0-0.1,0.1-0.2,0.1-0.2
				c0,0,0-0.1,0-0.1c0,0,0-0.1,0-0.1s27.6,43.1,29,83.6h71.7C1962.3,840.9,1951.3,765.2,1934.8,712z"/>
		</g>
		<g>
			<path class="st33" d="M1693.8,627.2c0,0-8.6,28.7-19.7,100.2c0,0,0,0,0,0c-0.4,2.4-0.8,4.8-1.1,7.3c0,0.3-0.1,0.6-0.1,0.9
				c-0.3,1.6-0.5,3.3-0.8,5c0,0.2-0.1,0.4-0.1,0.6c-0.2,1.1-0.4,2.3-0.5,3.4c-0.4,2.8-0.8,5.7-1.3,8.6
				c-4.2,29.2-9.7,75.6-15.4,125.1h-45.1c-2.4-13.8-4.7-26.3-4.6-34.8c-0.1,0.2-0.2,0.4-0.2,0.6c-3.6,10-7.6,20.8-11.6,31.4
				c-0.4,1-0.7,1.9-1.1,2.9h-77.7l77.4-202.4c1.5-1.2,21.5-11.9,34.6-18.2c13.8-6.6,31.1-14.6,46.5-21.7c7.4-3.4,14.3-6.6,20.2-9.3
				L1693.8,627.2z"/>
		</g>
		<g>
			<path class="st34" d="M1798.5,698l-29.8,16.8l12.7,13l-27.9,150.7h-10.5c-3.9-30.5-6.1-57.8-7.8-76.4
				c-7.8-83.1,75.1-176.7,80.2-182.4c4,1.5,8.3,3.2,12.7,4.9L1798.5,698z"/>
		</g>
		<g>
			<path class="st34" d="M1694.2,626.5c0,0-11.1,36.3-24.1,126.9c-4.2,29.2-9.8,75.6-15.4,125.1h-4.4l-5.8-142.4l14.2-15.4
				l-12.6-15.7l27-68.8c7.4-3.4,14.3-6.6,20.2-9.3L1694.2,626.5z"/>
		</g>
		<g>
			<path class="st35" d="M1817,620l-24.7-15c0,0-0.7,13.5-61.8,48.9l17.3,48.9L1817,620z"/>
		</g>
		<g>
			<path class="st35" d="M1714.3,611.8c0,0,1,14.6,16.3,42.1l-33.9,44.1l-2.5-71.6L1714.3,611.8z"/>
		</g>
		<g>
			<path class="st36" d="M1730.6,653.9c0,0,6.6,26.2,4.2,33.6c0,0-14.4,5.2-24.8-1.3C1710,686.2,1717.4,667.8,1730.6,653.9z"/>
		</g>
		<g>
			<path class="st36" d="M1722.7,743.1c-6.9,47.1-6.9,94.8-4.4,135.3h-28.9c-0.4-5.7-0.8-11.7-1.1-17.9
				c-5.4-93.4,27.6-176.8,27.6-176.8l14.7-3.7C1730.6,680.1,1725.9,721.4,1722.7,743.1z"/>
		</g>
		<g>
			<path class="st37" d="M1606.1,801.3c-1.1,22.4-0.9,42.3-0.9,42.3s0,0,0,0c0,0.1,0,0.7-0.1,1.7c0-0.4-0.1-0.8-0.1-1.1
				c-3.6,10-7.6,20.8-11.6,31.4c-0.9-12.2-1.2-23.6-0.9-34.2c1.6-62.8,21.4-95.7,21.4-95.7C1609.3,756.6,1607.1,780.1,1606.1,801.3z
				"/>
		</g>
	</g>
	<g>
		<g>
			<polygon class="st38" points="1335.7,878.7 1243.3,929.5 1150.5,783.5 1262.7,744.5 			"/>
		</g>
		<g>
			<polygon class="st24" points="1329.9,874.4 1243.4,921.9 1156.7,785.3 1261.6,748.8 			"/>
		</g>
		<g>
			<path class="st7" d="M1361.5,848.8c0,0-16.1-7.7-23.1-11.7c-7.1-4-25.2-9.5-26.7-10.9c-1.5-1.3-53.8-4.5-57-7.3
				c-3.2-2.7-6.3,6.4,7.3,9.4c13.6,3,32.5,10.2,33.5,15.5c1,5.3-13.9,6.6-15.5,10.9c-1.5,4.4,0.4,3.4,2.6,4.3
				c2.1,0.9,17.8-7.7,24.7-5.3c6.9,2.5,17.4-0.9,22.7,0.9c5.3,1.8,31,10.4,31,10.4L1361.5,848.8z"/>
		</g>
		<g>
			<path class="st7" d="M1238.8,911.2c0,0-13.5-12.2-20.1-17.2c-6.5-5.1-18.8-20.1-20.6-20.9c-1.8-0.9-25.2-49-29.1-50.9
				c-3.8-1.9,3.6-8.4,11.7,3.2c8.1,11.6,22.3,26.6,27.7,25.5c5.4-1.1,0.8-15.7,4.3-18.8c3.5-3.1,3.4-0.9,5.1,0.7
				c1.7,1.7-0.4,19.8,4.6,25.3c5,5.5,5.9,16.8,9.6,21.1c3.8,4.3,21.9,25.1,21.9,25.1L1238.8,911.2z"/>
		</g>
		<g>
			<path class="st39" d="M1529.8,1561.2c0,0,2.9,20.3,3.3,23.3c0.4,3,32.5-1.8,32.5-1.8l2.6-24.2
				C1568.2,1558.6,1533.8,1558.4,1529.8,1561.2z"/>
		</g>
		<g>
			<path class="st38" d="M1532.8,1582c0,0-10.2,12.2-20,17.6c-9.9,5.3-25.3,7.4-31.2,13c-4.2,4-15.3,21.1,25.6,20.8
				c40.9-0.3,60.6,2.4,65-4.2c4.4-6.6-6.3-48.5-6.3-48.5S1556.2,1584.1,1532.8,1582z"/>
		</g>
		<g>
			<path class="st39" d="M1299.4,1561.2c0,0,2.9,20.3,3.3,23.3c0.4,3,32.5-1.8,32.5-1.8l2.6-24.2
				C1337.9,1558.6,1303.5,1558.4,1299.4,1561.2z"/>
		</g>
		<g>
			<path class="st38" d="M1302.4,1582c0,0-10.2,12.2-20,17.6c-9.9,5.3-46.1,9.7-51.9,15.2c-4.2,4-11.2,20,46.4,18.5
				c40.9-1.1,60.6,2.4,65-4.2c4.4-6.6-6.3-48.5-6.3-48.5S1326.4,1584.3,1302.4,1582z"/>
		</g>
		<g>
			<path class="st38" d="M1503.2,1039.9c0,0,30.2,48,28,91.4c-2.3,43.4,11,90.8,15.5,136.1c5.1,50.5,25.8,170.1,26.5,197.2
				c0.8,27-3.2,113.3-3.2,113.3l-41.4,0.9c0,0-34.8-209.1-43.8-230.5c-9-21.3-53.7-173.5-55.2-190.5
				C1427.9,1140.8,1503.2,1039.9,1503.2,1039.9z"/>
		</g>
		<g>
			<path class="st38" d="M1344.2,1046.4c0,0-22.8,118.9-25.8,145.5s-5,128.5-6.5,145.1s-10,217.2-18,241.8h53
				c0,0,40.7-145.8,40.7-214.8c0-69,31.4-150,51.7-195.5c20.3-45.5,66.7-46.6,79.2-131C1518.4,1037.5,1361,1019.6,1344.2,1046.4z"/>
		</g>
		<g>
			<path class="st7" d="M1452.8,636.4c0,0-40.5-15.1-59.2,15.7s-16.9,92.7,3.5,100.3c20.4,7.6,51.1,3.6,61.6-15.7
				c10.5-19.3,19.9-47.2,19.5-65.9C1477.7,652.1,1463.4,641.8,1452.8,636.4z"/>
		</g>
		<g>
			<path class="st7" d="M1401.5,753.8c0,0,1.7,10.9-1.1,16.3c-2.8,5.4,52.5,5.5,52.5,5.5s4.5-29.3,13-54.1
				C1474.4,696.8,1401.5,753.8,1401.5,753.8z"/>
		</g>
		<g>
			<path class="st40" d="M1465.9,721.6c0,0-3.8,6.3-19.4,3.9c-15.6-2.4-34.6-23.2-41.1-25.5c-6.5-2.3-6.6-6.1-6.6-6.1l-4.1,6
				l-6.9,0.4c0,0,6.3-18.5-3.2-26.1c-9.5-7.6,9.9-60,59.9-42.6c0,0,38.4,10.6,37,32.4C1480.1,685.8,1474.5,710.7,1465.9,721.6z"/>
		</g>
		<g>
			<path class="st41" d="M1397.1,769.5c0,0,0.2-10.3,4.8-11.3c4.7-1,51.6-5.5,57.3-3.2v12C1459.2,767,1448.2,773.8,1397.1,769.5z"/>
		</g>
		<g>
			<path class="st7" d="M1399.9,685.9c0.9-3.7,10.2-14.1,13.8-2.9c3.6,11.2-5.4,26.3-10.4,25
				C1398.2,706.7,1397.6,695.2,1399.9,685.9z"/>
		</g>
		<g>
			<path class="st42" d="M1211,891.2C1211,891.2,1211.1,891.2,1211,891.2C1210.8,891.4,1210.7,891.4,1211,891.2z"/>
		</g>
		<g>
			<path class="st43" d="M1537.3,1154.3c0,0-24.9,7.3-67.3,12s-148.4-1.7-149-6.7c-0.7-5,22.8-186.5,21.5-195.9
				c-1.3-9.3-2.1-42.7-2.1-42.7c-0.5,9.1-9.8,46.4-21,66.7c-4.1,7.3-17.7,30.4-24.2,25.1c-31.7-25.3-80.9-120.8-84-121.6
				c2.6-1.1,23.3-10.7,26.2-11.6c2.5-0.8,25.4,23.4,39.3,38.4c6.2,6.7,10.6,11.6,10.6,11.6c4-9,18.6-65.8,23.1-85.5
				c10.2-44.3,8.7-46.2,8.7-46.2c31-9.4,78.1-28.5,78.1-28.5l62.1-2.5c0,0,57,12.6,79.5,22.7c2.1,1,2.1,50.9,8,64l-18.6,39.3
				c0,0-10.8,77.8-13,112.4C1514.1,1021.2,1537.3,1154.3,1537.3,1154.3z"/>
		</g>
		<g>
			<path class="st43" d="M1549.3,918.4c-1.6,5.2-9,9.7-13.8,11.6c-3.1,1.2-6.5,1.6-9.9,1l-2.4-0.5v0l-42.6-7.9
				c0,0-9.3-107.3,58.2-133C1540.5,790.2,1564.2,870.4,1549.3,918.4z"/>
		</g>
		<g>
			<path class="st44" d="M1535.5,930L1535.5,930c-3.1,1.2-6.5,1.6-9.9,1l-2.4-0.5v0l4.2-54.8L1535.5,930z"/>
		</g>
		<g>
			<path class="st44" d="M1287.2,929.6l-5.2,22c0,0-5.6-22.1-5.4-33.6C1282.8,924.7,1287.2,929.6,1287.2,929.6z"/>
		</g>
		<g>
			<path class="st40" d="M1464.3,640c0,0,53.1-6.7,0.9,82.1L1464.3,640z"/>
		</g>
		<g>
			<polygon class="st38" points="1193.2,775.7 1187.8,766.4 1230.4,751.7 1235.8,760.9 			"/>
		</g>
	</g>
	<g class="st45">
		<linearGradient id="SVGID_13_" gradientUnits="userSpaceOnUse" x1="1995.501" y1="368.4077" x2="2034.8691" y2="368.4077">
			<stop  offset="0" style="stop-color:#D1D7E0"/>
			<stop  offset="1" style="stop-color:#EBEBFF"/>
		</linearGradient>
		<polygon class="st46" points="2004.7,378 2034.9,378 2025.6,358.8 1995.5,358.8 		"/>
		<linearGradient id="SVGID_14_" gradientUnits="userSpaceOnUse" x1="1981.3965" y1="368.4077" x2="1997.8047" y2="368.4077">
			<stop  offset="0" style="stop-color:#D1D7E0"/>
			<stop  offset="1" style="stop-color:#EBEBFF"/>
		</linearGradient>
		<polygon class="st47" points="1990.6,378 1997.8,378 1988.6,358.8 1981.4,358.8 		"/>
		<linearGradient id="SVGID_15_" gradientUnits="userSpaceOnUse" x1="1882.4316" y1="350.4019" x2="2008.5352" y2="350.4019">
			<stop  offset="0" style="stop-color:#D1D7E0"/>
			<stop  offset="1" style="stop-color:#EBEBFF"/>
		</linearGradient>
		<polygon class="st48" points="1886.5,355.2 2008.5,355.2 2004.5,345.6 1882.4,345.6 		"/>
	</g>
	<g>
		<g>
			<linearGradient id="SVGID_16_" gradientUnits="userSpaceOnUse" x1="1182.1006" y1="42.2994" x2="1233.8213" y2="42.2994">
				<stop  offset="0" style="stop-color:#D1D7E0"/>
				<stop  offset="1" style="stop-color:#EBEBFF"/>
			</linearGradient>
			<path class="st49" d="M1231,50.1h-46.1c-1.6,0-2.8-1.3-2.8-2.8v-10c0-1.6,1.3-2.8,2.8-2.8h46.1c1.6,0,2.8,1.3,2.8,2.8v10
				C1233.8,48.8,1232.6,50.1,1231,50.1z"/>
		</g>
		<g>
			<linearGradient id="SVGID_17_" gradientUnits="userSpaceOnUse" x1="1182.1006" y1="79.6753" x2="1233.8213" y2="79.6753">
				<stop  offset="0" style="stop-color:#D1D7E0"/>
				<stop  offset="1" style="stop-color:#EBEBFF"/>
			</linearGradient>
			<path class="st50" d="M1231,87.5h-46.1c-1.6,0-2.8-1.3-2.8-2.8v-10c0-1.6,1.3-2.8,2.8-2.8h46.1c1.6,0,2.8,1.3,2.8,2.8v10
				C1233.8,86.2,1232.6,87.5,1231,87.5z"/>
		</g>
		<g>
			<linearGradient id="SVGID_18_" gradientUnits="userSpaceOnUse" x1="1182.1006" y1="117.0518" x2="1233.8213" y2="117.0518">
				<stop  offset="0" style="stop-color:#D1D7E0"/>
				<stop  offset="1" style="stop-color:#EBEBFF"/>
			</linearGradient>
			<path class="st51" d="M1231,124.8h-46.1c-1.6,0-2.8-1.3-2.8-2.8v-10c0-1.6,1.3-2.8,2.8-2.8h46.1c1.6,0,2.8,1.3,2.8,2.8v10
				C1233.8,123.6,1232.6,124.8,1231,124.8z"/>
		</g>
		<g>
			<linearGradient id="SVGID_19_" gradientUnits="userSpaceOnUse" x1="1255.1768" y1="42.2994" x2="1269.8926" y2="42.2994">
				<stop  offset="0" style="stop-color:#D1D7E0"/>
				<stop  offset="1" style="stop-color:#EBEBFF"/>
			</linearGradient>
			<path class="st52" d="M1267.1,50.1h-9.1c-1.6,0-2.8-1.3-2.8-2.8v-10c0-1.6,1.3-2.8,2.8-2.8h9.1c1.6,0,2.8,1.3,2.8,2.8v10
				C1269.9,48.8,1268.6,50.1,1267.1,50.1z"/>
		</g>
		<g>
			<linearGradient id="SVGID_20_" gradientUnits="userSpaceOnUse" x1="1255.1768" y1="79.6753" x2="1269.8926" y2="79.6753">
				<stop  offset="0" style="stop-color:#D1D7E0"/>
				<stop  offset="1" style="stop-color:#EBEBFF"/>
			</linearGradient>
			<path class="st53" d="M1267.1,87.5h-9.1c-1.6,0-2.8-1.3-2.8-2.8v-10c0-1.6,1.3-2.8,2.8-2.8h9.1c1.6,0,2.8,1.3,2.8,2.8v10
				C1269.9,86.2,1268.6,87.5,1267.1,87.5z"/>
		</g>
		<g>
			<linearGradient id="SVGID_21_" gradientUnits="userSpaceOnUse" x1="1255.1768" y1="117.0518" x2="1269.8926" y2="117.0518">
				<stop  offset="0" style="stop-color:#D1D7E0"/>
				<stop  offset="1" style="stop-color:#EBEBFF"/>
			</linearGradient>
			<path class="st54" d="M1267.1,124.8h-9.1c-1.6,0-2.8-1.3-2.8-2.8v-10c0-1.6,1.3-2.8,2.8-2.8h9.1c1.6,0,2.8,1.3,2.8,2.8v10
				C1269.9,123.6,1268.6,124.8,1267.1,124.8z"/>
		</g>
	</g>
	<g>
		<linearGradient id="SVGID_22_" gradientUnits="userSpaceOnUse" x1="1050.2705" y1="874.6743" x2="1120.9365" y2="874.6743">
			<stop  offset="0" style="stop-color:#D1D7E0"/>
			<stop  offset="1" style="stop-color:#EBEBFF"/>
		</linearGradient>
		<polygon class="st55" points="1066.8,891.8 1120.9,891.8 1104.4,857.5 1050.3,857.5 		"/>
		<linearGradient id="SVGID_23_" gradientUnits="userSpaceOnUse" x1="1024.9531" y1="874.6743" x2="1054.4062" y2="874.6743">
			<stop  offset="0" style="stop-color:#D1D7E0"/>
			<stop  offset="1" style="stop-color:#EBEBFF"/>
		</linearGradient>
		<polygon class="st56" points="1041.5,891.8 1054.4,891.8 1037.8,857.5 1025,857.5 		"/>
	</g>
</g>
</svg>
