<?xml version="1.0" encoding="utf-8"?>
<!-- Generator: Adobe Illustrator 22.0.0, SVG Export Plug-In . SVG Version: 6.00 Build 0)  -->
<svg version="1.1" id="Layer_1" xmlns="http://www.w3.org/2000/svg" xmlns:xlink="http://www.w3.org/1999/xlink" x="0px" y="0px"
	 viewBox="0 0 617.9 328.3" style="enable-background:new 0 0 617.9 328.3;" xml:space="preserve">
<style type="text/css">
	.st0{clip-path:url(#SVGID_2_);fill:#FFFFFF;}
	.st1{fill:#ADAAAE;}
	.st2{fill:#F8BDA7;}
	.st3{fill:#68A5CD;}
	.st4{fill:#FCBAA0;}
	.st5{fill:#E19491;}
	.st6{fill:#6C1005;}
	.st7{fill:#0E1C34;}
	.st8{fill:#FFFFFF;}
	.st9{fill:#4FA466;}
	.st10{fill:#387E6B;}
	.st11{fill:#12243D;}
	.st12{fill:#08093E;}
	.st13{fill:#FB1A2A;}
	.st14{fill:#285B50;}
	.st15{fill:#D70E16;}
	.st16{fill:#B0AAA2;}
	.st17{fill:#E01018;}
	.st18{clip-path:url(#SVGID_4_);fill:#FCDD0E;}
	.st19{clip-path:url(#SVGID_4_);fill:#FFAD00;}
	.st20{clip-path:url(#SVGID_7_);}
	.st21{clip-path:url(#SVGID_8_);}
	.st22{clip-path:url(#SVGID_13_);}
	.st23{clip-path:url(#SVGID_14_);}
	.st24{clip-path:url(#SVGID_18_);}
	.st25{clip-path:url(#SVGID_22_);}
	.st26{fill:#2F0D0D;}
	.st27{fill:#1A1516;}
</style>
<g>
	<g>
		<defs>
			<rect id="SVGID_1_" x="-65" y="-53.7" width="749.9" height="500"/>
		</defs>
		<clipPath id="SVGID_2_">
			<use xlink:href="#SVGID_1_"  style="overflow:visible;"/>
		</clipPath>
		<polyline class="st0" points="684.9,446.3 -65.1,446.3 -65.1,-53.7 684.9,-53.7 684.9,446.3 		"/>
	</g>
	<text transform="matrix(1 0 0 1 92.6193 377.7358)" style="fill:#675A85; font-family:'SofiaPro-Light'; font-size:9px;">Lo</text>
	<text transform="matrix(1 0 0 1 102.1662 377.7358)" style="fill:#675A85; font-family:'SofiaPro-Light'; font-size:9px;">r</text>
	<text transform="matrix(1 0 0 1 105.424 377.7358)" style="fill:#675A85; font-family:'SofiaPro-Light'; font-size:9px;">em ipsum dolor</text>
	<text transform="matrix(1 0 0 1 168.9865 377.7358)" style="fill:#675A85; font-family:'SofiaPro-Light'; font-size:9px;"> sit</text>
	<text transform="matrix(1 0 0 1 179.8381 377.7358)" style="fill:#675A85; font-family:'SofiaPro-Light'; font-size:9px;"> amet</text>
	<text transform="matrix(1 0 0 1 203.3927 377.7358)" style="fill:#675A85; font-family:'SofiaPro-Light'; font-size:9px;">, c</text>
	<text transform="matrix(1 0 0 1 212.3849 377.7358)" style="fill:#675A85; font-family:'SofiaPro-Light'; font-size:9px;">onsectetur</text>
	<text transform="matrix(1 0 0 1 254.7209 377.7358)" style="fill:#675A85; font-family:'SofiaPro-Light'; font-size:9px;"> adipiscing elit</text>
	<text transform="matrix(1 0 0 1 312.7756 377.7358)" style="fill:#675A85; font-family:'SofiaPro-Light'; font-size:9px;">. P</text>
	<text transform="matrix(1 0 0 1 322.6974 377.7358)" style="fill:#675A85; font-family:'SofiaPro-Light'; font-size:9px;">ellentesque suscipit</text>
	<text transform="matrix(1 0 0 1 400.6974 377.7358)" style="fill:#675A85; font-family:'SofiaPro-Light'; font-size:9px;"> t</text>
	<text transform="matrix(1 0 0 1 405.6818 377.7358)" style="fill:#675A85; font-family:'SofiaPro-Light'; font-size:9px;">ellus </text>
	<text transform="matrix(1 0 0 1 425.7912 377.7358)" style="fill:#675A85; font-family:'SofiaPro-Light'; font-size:9px;">vitae purus dignissim, nec </text>
	<text transform="matrix(1 0 0 1 120.1428 389.8764)" style="fill:#675A85; font-family:'SofiaPro-Light'; font-size:9px;">tincidunt</text>
	<text transform="matrix(1 0 0 1 154.7209 389.8764)" style="fill:#675A85; font-family:'SofiaPro-Light'; font-size:9px;"> neque c</text>
	<text transform="matrix(1 0 0 1 189.4865 389.8764)" style="fill:#675A85; font-family:'SofiaPro-Light'; font-size:9px;">ondimentum. Nam nec ligula pr</text>
	<text transform="matrix(1 0 0 1 318.2599 389.8764)" style="fill:#675A85; font-family:'SofiaPro-Light'; font-size:9px;">etium mi inte</text>
	<text transform="matrix(1 0 0 1 370.8068 389.8764)" style="fill:#675A85; font-family:'SofiaPro-Light'; font-size:9px;">rd</text>
	<text transform="matrix(1 0 0 1 379.5881 389.8764)" style="fill:#675A85; font-family:'SofiaPro-Light'; font-size:9px;">um hendr</text>
	<text transform="matrix(1 0 0 1 418.8693 389.8764)" style="fill:#675A85; font-family:'SofiaPro-Light'; font-size:9px;">erit</text>
	<text transform="matrix(1 0 0 1 431.9162 389.8764)" style="fill:#675A85; font-family:'SofiaPro-Light'; font-size:9px;"> in sit</text>
	<text transform="matrix(1 0 0 1 452.2443 389.8764)" style="fill:#675A85; font-family:'SofiaPro-Light'; font-size:9px;"> amet</text>
	<text transform="matrix(1 0 0 1 475.7834 389.8764)" style="fill:#675A85; font-family:'SofiaPro-Light'; font-size:9px;"> ligula.</text>
	<text transform="matrix(1 0 0 1 252.0646 361.4858)" class="st12" style="font-family:'Roboto-Black'; font-size:24px;">Contact Us</text>
	<path class="st1" d="M73.2,203.9c-30.8,19.3-46.9,63-22,121.1h490.1c8.3-21.1,13.3-48.7,14.9-65.2c3.4-35.9-8.8-73.2-30.3-92.9
		c-29.8-27.3-56.9-18.9-79.9-10.5c-19.1,6.9-35.5,13.9-48.4,0.6c-16.5-16.9-15-64.3-27.9-86.3C341,22,287.3-1.9,234.3,6.7
		c-35.3,5.7-67.1,24.4-86.5,55.9c-26.6,43.2-7.2,74.2-19,104.1C115.8,200,93.8,190.9,73.2,203.9"/>
	<path class="st2" d="M116.8,127.6c-0.1,0.3,4.5-2.5,4.5-2.5l1.9-3c0,0,1.9-1.2,3.2-1.9c1.3-0.7,3.8-4.7,3.8-4.7l-1-1.2
		c0,0-1.4,1.7-1.9,2c-0.5,0.3-1.4,0-1.4,0s0.3-1.2,1.1-3c0.8-1.8,3-4.7,3-4.7l-0.9-0.9c0,0-1.4,1.3-1.9,2c-0.5,0.7-1.5,2-1.5,2
		s1-2.4,1.6-3.3c0.6-0.9,1.3-2.1,1.3-2.1l-1-0.7c0,0-1.2,1.4-1.8,2.5c-0.6,1.1-1.7,2.9-1.7,2.9s0.8-2.7,1.3-3.5
		c0.4-0.8,0.6-1.2,0.6-1.2l-1.2-0.4c0,0-0.9,1.1-1.4,2.5c-0.5,1.4-0.9,2.1-0.9,2.1s0.3-2.3,0.7-3c0.4-0.7,0.4-1,0.4-1l-1-0.2
		c0,0-1.8,3.4-2.8,5.5c-1,2.1-1.7,4.9-2.3,6.5c-0.5,1.5-1.3,6.8-1.3,6.8L116.8,127.6L116.8,127.6z"/>
	<path class="st3" d="M145.2,147.8l-23.3-4c0,0-0.6-5.5-0.3-11.9c0.4-7,1.3-8.9,1.3-8.9l-6.3-0.9c0,0-1.2,5.5-2.1,9.4
		c-2,8.8-3.8,16.9-2.3,18.8c2.2,2.6,21.6,8,28.2,13C144.4,166.3,144.2,156.7,145.2,147.8L145.2,147.8z"/>
	<path class="st3" d="M176.6,152.6c-1.8-0.7-7.7-0.2-7.7-0.2s-0.6,6.3,1.8,11.1c2.4,4.8,8.3,22.4,9,24.1c0.7,1.7-1.6,26.5-1.6,26.5
		l8.6-1.8c0,0,4.1-19.2,4.1-24c0-4.9-4.6-23.1-7.8-28.9C179.8,153.5,180.9,154.2,176.6,152.6L176.6,152.6z"/>
	<path class="st4" d="M162.5,134.7c0,0-1.9,8.3-0.4,10.2c0.9,1.1,4.5,5.1,4.5,5.1s-12.1,6.4-15.7,6.4c-3.6,0-2.3-7.1-2.3-7.1
		s3.9-3.1,4.5-4.6c0.6-1.6,0.9-6,0.9-6L162.5,134.7L162.5,134.7z"/>
	<path class="st2" d="M163.9,135c0,0-0.1-3,2.4-2.9c1.6,0,1.7,1.5,0.5,3.4c-0.5,0.8-0.6,2.6-1.2,3.2c-0.8,0.7-1.5-0.4-1.7-0.9
		C163.4,137,163.9,135,163.9,135L163.9,135z"/>
	<path class="st2" d="M150.3,135c0,0,0.1-3-2.4-2.9c-1.6,0-1.7,1.5-0.5,3.4c0.5,0.8,0.6,2.6,1.2,3.2c0.8,0.7,1.5-0.4,1.7-0.9
		C150.8,137,150.3,135,150.3,135L150.3,135z"/>
	<path class="st2" d="M166.4,127.6c-0.1,1-0.3,1.6-0.5,3.1c-0.1,0.3-0.1,0.7-0.2,1.2c-0.5,3.6-1.2,8.5-1.5,9.2
		c-0.5,1.2-3,3.2-4.3,3.9c-1.2,0.7-4.3,0.6-5.5-0.1s-4-2.5-4.5-3.8c-0.3-0.7-1-5.8-1.5-9.5c-0.1-0.4-0.1-0.8-0.2-1.1
		c-0.2-1.4-0.4-2-0.5-3c-0.2-3,3.2-7.5,9.3-7.5C164.3,120.1,166.6,124.6,166.4,127.6"/>
	<path class="st5" d="M162,124.2c-2.2-1-4.3-1.3-6.1-1.3c-3,0-5,0.9-5,0.9s1.2-2.5,5.6-2.6c0,0,0.1,0,0.1,0c4.4,0,7.5,1.6,7.5,1.6
		L162,124.2"/>
	<path class="st6" d="M165.9,130.7c-0.1,0.3-0.1,0.7-0.2,1.2c-0.5,3.6-1.2,8.5-1.5,9.2c-0.5,1.2-3,3.2-4.3,3.9
		c-1.2,0.7-4.3,0.6-5.5-0.1s-4-2.5-4.5-3.8c-0.3-0.7-1-5.8-1.5-9.5c-0.1-0.4-0.1-0.8-0.2-1.1l0.5-0.7c0,0,0.9,5.2,2.3,6.9
		c1.4,1.6,1.6,1.7,1.6,1.7s1.5-0.4,2.8-0.7l0.2-0.1c1.1-0.3,2.2-0.3,3.3,0l0.2,0l0.2,0.1l2.1,0.6c0,0,0.5-0.1,1.9-1.7
		c1.4-1.6,2-6.9,2-6.9L165.9,130.7L165.9,130.7z"/>
	<path class="st6" d="M166.9,125.7c0,0.1-0.5,3.7-0.7,4.2c-0.3,0.9-0.5,1.5-0.5,1.5l-0.4-0.8c-0.7-1.5-1-3.1-1.1-4.7l-0.1-3.1l1-0.9
		C167.1,122.2,167.3,123.4,166.9,125.7L166.9,125.7z"/>
	<path class="st6" d="M151,123L151,123l-0.5,3.2c-0.2,1.5-0.7,2.9-1.5,4.1l0,0.1l-0.6,1c0,0-0.2-0.6-0.4-1.3c-0.2-0.6-0.6-3.6-0.7-4
		c0-0.1-0.1-0.3-0.1-0.4c-0.4-2.2,0-3.2,2-3.5L151,123L151,123z"/>
	<path class="st6" d="M165.1,121.9l-1,0.9l-1.9,0.7c-0.2-0.2-3.8-1.5-6.8-1.2c-3.9,0.3-4.4,1.4-4.5,1.5l0,0l-0.4-0.1l-1.9-0.4
		l-0.4-0.1c0,0,0.4-1.7,0.8-2.2c1.5-2.3,5.7-3.8,9.5-3.4c0.1,0,0.3,0,0.4,0c3.5,0.5,5.1,2.1,5.1,2.1L165.1,121.9L165.1,121.9z"/>
	<path class="st7" d="M174.6,317.8v7.6H160c0,0,0.5-2.7,7.4-4l1-3.6H174.6L174.6,317.8z"/>
	<path class="st7" d="M152.5,317.8v7.6h-14.5c0,0,0.5-2.7,7.4-4l1-3.6H152.5L152.5,317.8z"/>
	<path class="st7" d="M172.1,205.3c0,0,2,24.4,2.1,44.2c0.1,19.9,1.3,70.1,1.3,70.1h-8c0,0-8.3-48.2-11.3-61s-10.8-53.1-10.8-53.1
		L172.1,205.3"/>
	<path class="st7" d="M154.7,231.4c0,0-1.5,30.3-1.8,36.2c-0.3,6,0,51.9,0,51.9s-7.5,0.2-7.5,0c0-0.2-7.1-48.9-8-63.6
		c-0.9-14.7-0.4-32.1-1.6-34.1c-1.2-2,3.3-16.5,3.3-16.5l10.6,2.8L154.7,231.4"/>
	<path class="st8" d="M151.4,146.5c0,0-3.3,7.6,1.7,8.4c8,1.3,10.4-8.9,10.4-8.9l8.8,4.5c0,0-0.2,54.7,3.3,71.4
		c2,9.7-31.4,5.1-36.3-3.5c-4.2-7.5,8-69.4,8-69.4L151.4,146.5"/>
	<path class="st3" d="M165.6,147c-0.2,0.3-12,34.8-8,67.3c0.9,7.6,14.7,1.3,18,1.3c0,0,1.6-24.2,1.9-33.3s-3.9-12-3.5-16.4
		c0.4-4.4,5.2-12.3,5.2-12.3L165.6,147"/>
	<path class="st3" d="M145.8,217.7c1.3-22.6,1.9-69.8,1.9-69.8l-8-0.6c0,0-4,39.6-4,44.1c0,1.8,0.5,23.6-0.7,27.6
		C137.7,219.5,145.7,220.4,145.8,217.7"/>
	<path class="st8" d="M232.3,133.7c-6.3,2.2-12.8,4.4-18,8.9c-4.1,3.6-7.1,8.9-7.1,14.4c0,1.5,0.2,3,0.7,4.4
		c0.8,2.4,2.5,4.5,4.6,5.9c2.1,1.4,4.5,2.3,7,2.3c2.1,0,4.2-0.6,5.9-2.1c1.5-1.3,2.7-3.3,2.7-5.4c0-0.7-0.1-1.4-0.4-2.1
		c-0.5-1-1.2-1.8-2.1-2.3c-0.9-0.5-1.9-0.7-2.9-0.7c-1.5,0-3.1,0.4-4.6,1.1c-1.5,0.7-2.8,1.7-3.9,2.8c-3.3,3.7-5.6,8.5-5.6,13.6
		c0,0.9,0.1,1.7,0.2,2.6c0.5,3,2,5.8,4.2,7.8c2.2,2.1,5,3.4,8.1,3.4v-0.2l0,0.2h0v-0.2l0,0.2h0h0c1.3,0,2.6-0.4,3.9-1
		c1.9-0.9,3.7-2.3,5-3.8c0.7-0.8,1.2-1.6,1.7-2.4c0.4-0.8,0.7-1.7,0.7-2.6c0-0.6-0.1-1.3-0.5-1.9c-0.3-0.6-0.8-1.1-1.5-1.5
		c-1.1-0.7-2.4-1-3.6-1c-1.6,0-3.1,0.5-4.6,1.3c-2.2,1.2-4.2,3.1-5.9,5.1c-1.7,2.1-3.2,4.4-4.2,6.5c-1,2.2-1.5,4.5-1.5,6.9
		c0,2.6,0.6,5.2,1.7,7.5c1.1,2.3,2.9,4.3,5.1,5.6c1.7,1,3.9,1.4,6.1,1.4c2.9,0,5.9-0.7,8.3-1.9c1.2-0.6,2.2-1.3,3-2.2
		c0.8-0.9,1.3-2,1.3-3.2c0-0.8-0.3-1.7-0.8-2.5c-0.5-0.9-1.3-1.6-2.1-2c-0.8-0.4-1.7-0.6-2.6-0.6c-1.5,0-3,0.5-4.5,1.2
		c-2.2,1.1-4.4,3-6.2,5c-1.8,2.1-3.1,4.4-3.6,6.8c-0.2,0.9-0.3,1.8-0.3,2.7c0,3.5,1.4,7,3.7,9.7c2.3,2.7,5.5,4.6,9,5.1
		c0.4,0.1,0.8,0.1,1.3,0.1c3.4,0,7.3-1.4,10.5-3.5c1.6-1,3-2.2,4-3.5c1-1.3,1.7-2.7,1.7-4.3c0-1.2-0.5-2.4-1.5-3.5
		c-1.3-1.4-2.9-2.1-4.5-2.1c-1.8,0-3.6,0.8-5.2,2.1c-2.4,1.9-4.6,5-6.2,8.3c-1.6,3.4-2.6,7.1-2.6,10.6c0,1.6,0.2,3,0.7,4.4
		c1.3,3.6,3.8,6.5,7,8.4c3.1,2,6.9,3,10.6,3c3.8,0,7.6-1.1,10.7-3.7c0.8-0.6,1.5-1.4,2.1-2.3c0.6-0.9,1-1.9,1-3.1c0-0.2,0-0.4,0-0.7
		c-0.1-0.8-0.4-1.5-0.8-2.1c-0.6-0.9-1.6-1.5-2.5-1.9c-1-0.4-2.1-0.6-3.2-0.6c-1,0-2,0.2-3,0.5c-3.1,1-5.6,3.2-7.3,5.9
		c-1.7,2.7-2.7,5.9-2.7,9.1c0,2.9,0.8,5.8,2.5,8.2c2.8,3.9,7.6,5.8,12.3,5.8c4.6,0,9.2-1.8,12-5.6c0.9-1.2,1.7-2.8,1.8-4.5
		c0-0.4,0-0.7-0.1-1.1c-0.3-1.3-1.1-2.3-2.2-3c-1-0.7-2.3-1-3.5-1.1c-0.4,0-0.7,0-1.1,0.1c-1.4,0.3-2.6,0.9-3.6,1.7
		c-1,0.8-1.9,1.8-2.6,2.9c-2,2.9-2.9,6.4-2.9,9.9c0,5.4,2.3,10.9,6.6,14.4c3.2,2.6,7.2,3.8,11.2,3.8c4.9,0,9.9-1.8,13.3-5.5
		c0.7-0.8,1.4-1.6,1.9-2.6c0.5-1,0.8-2,0.8-3.2c0-0.3,0-0.7-0.1-1c-0.3-1.5-1.2-2.8-2.4-3.6c-1.2-0.9-2.7-1.3-4.1-1.3l-0.2,0h0
		c-1.5,0-2.8,0.5-4.1,1.1c-1.2,0.7-2.3,1.6-3.3,2.5c-3,3.1-4.4,7.3-4.4,11.5c0,3.5,0.9,7,2.7,10c1.8,3,4.4,5.5,7.7,6.9
		c1.6,0.6,3.4,0.9,5.3,0.9c4.5,0,9.5-1.6,13.4-4.1c2-1.2,3.7-2.6,4.9-4.2c1.2-1.6,2-3.3,2-5.2c0-1.5-0.6-3-1.7-4.3
		c-0.5-0.6-1.1-1-1.7-1.3c-0.6-0.3-1.3-0.4-1.9-0.4c-1.4,0-2.8,0.6-4,1.5c-1.9,1.3-3.6,3.4-4.9,5.7c-1.3,2.3-2.1,4.9-2.1,7.3
		c0,0.5,0,1,0.1,1.5c0.6,3.3,2.5,6.2,5.1,8.1c2.6,2,5.8,3.2,9.1,3.2c1.1,0,2.2-0.1,3.3-0.4c3-0.8,6.2-2.9,8.7-5.4
		c1.3-1.3,2.3-2.7,3.1-4.1c0.8-1.4,1.3-2.9,1.3-4.4c0-1.6-0.6-3.2-2-4.3c-0.8-0.8-1.9-1.1-2.9-1.1c-1.2,0-2.3,0.4-3.3,1.1
		c-1.6,1-3,2.5-4.1,4.1c-1.1,1.7-2,3.5-2.4,5.2c-0.2,0.9-0.3,1.8-0.3,2.6c0,2.3,0.7,4.6,1.9,6.6c1.2,2,2.9,3.6,5,4.7
		c1.9,0.9,3.9,1.3,6,1.3c3.7,0,7.5-1.3,10.6-3.2c4.9-2.9,8.8-6.8,13.3-9.8c6.5-4.4,14.4-6.7,22.3-6.7c2.9,0,5.7,0.3,8.5,0.9l0.4-2
		c-2.9-0.7-5.9-1-8.9-1c-8.3,0-16.5,2.4-23.4,7c-4.7,3.1-8.6,7.1-13.2,9.7c-2.9,1.7-6.4,2.9-9.6,2.9c-1.8,0-3.5-0.3-5.1-1.1
		c-1.7-0.8-3.2-2.2-4.2-3.9c-1-1.7-1.6-3.6-1.6-5.6c0-0.7,0.1-1.5,0.3-2.2c0.4-1.8,1.7-4.1,3.2-5.9c0.8-0.9,1.6-1.6,2.4-2.2
		c0.8-0.5,1.6-0.8,2.2-0.8c0.6,0,1.1,0.2,1.6,0.6c0.9,0.8,1.3,1.7,1.3,2.8c0,1-0.4,2.2-1,3.5c-1,1.9-2.7,3.8-4.6,5.3
		c-1.9,1.6-4.1,2.7-5.9,3.2c-0.9,0.2-1.9,0.4-2.8,0.4c-2.8,0-5.7-1-7.9-2.8c-2.3-1.7-3.9-4.1-4.3-6.9c-0.1-0.4-0.1-0.7-0.1-1.1
		c0-2.6,1.3-5.8,3.1-8.3c0.9-1.3,2-2.3,3-3.1c1-0.7,2-1.1,2.9-1.1c0.4,0,0.7,0.1,1.1,0.2c0.3,0.2,0.7,0.4,1,0.8c0.9,1,1.2,2,1.2,3
		c0,1.2-0.6,2.6-1.6,3.9c-1.6,2-4.2,3.9-7.3,5.3c-3,1.4-6.4,2.2-9.5,2.2c-1.7,0-3.2-0.3-4.5-0.8c-2.9-1.2-5.2-3.3-6.8-6
		c-1.6-2.7-2.4-5.9-2.4-9c0-3.8,1.2-7.5,3.8-10.2c0.8-0.9,1.8-1.6,2.8-2.2c1-0.5,2.1-0.9,3.2-0.9h0l0.1,0c1,0,2.1,0.4,3,1
		c0.9,0.6,1.4,1.4,1.6,2.4c0,0.2,0.1,0.4,0.1,0.7c0,0.7-0.2,1.5-0.6,2.3c-0.4,0.8-1,1.5-1.6,2.1c-3,3.2-7.4,4.8-11.8,4.8
		c-3.6,0-7.2-1.1-10-3.3c-3.8-3-5.9-8-5.9-12.8c0-3.1,0.8-6.2,2.6-8.8c0.6-0.9,1.4-1.8,2.2-2.5c0.8-0.7,1.8-1.1,2.7-1.3
		c0.2,0,0.5-0.1,0.7-0.1c0.9,0,1.7,0.3,2.4,0.7c0.7,0.5,1.2,1.1,1.3,1.8c0,0.2,0.1,0.4,0.1,0.6c0,1-0.6,2.3-1.4,3.3
		c-2.4,3.2-6.4,4.8-10.4,4.8c-4.2,0-8.3-1.7-10.7-5c-1.5-2-2.2-4.5-2.2-7c0-2.8,0.8-5.6,2.3-8c1.5-2.4,3.7-4.2,6.3-5.1
		c0.7-0.2,1.5-0.4,2.4-0.4c1.2,0,2.3,0.3,3.1,0.8c0.4,0.2,0.7,0.5,1,0.9c0.2,0.3,0.4,0.7,0.5,1.2c0,0.1,0,0.3,0,0.4
		c0,0.7-0.2,1.3-0.7,2c-0.4,0.7-1,1.3-1.7,1.9c-2.6,2.2-6,3.2-9.4,3.2c-3.3,0-6.7-1-9.5-2.7c-2.8-1.8-5-4.3-6.1-7.4
		c-0.4-1.1-0.6-2.4-0.6-3.8c0-4.1,1.7-9,4.1-12.7c1.2-1.9,2.6-3.5,4-4.6c1.4-1.1,2.8-1.7,4-1.7c1.1,0,2,0.4,3.1,1.5
		c0.7,0.7,0.9,1.4,0.9,2.1c0,0.9-0.4,1.9-1.3,3c-1.3,1.6-3.4,3.2-5.8,4.4c-2.4,1.2-5,1.9-7.1,1.9c-0.4,0-0.7,0-1-0.1
		c-3-0.4-5.8-2-7.8-4.4c-2-2.4-3.2-5.4-3.2-8.4c0-0.8,0.1-1.5,0.2-2.3c0.5-2.5,2.5-5.4,4.9-7.7c1.2-1.1,2.5-2.1,3.8-2.7
		c1.3-0.7,2.6-1,3.6-1c0.6,0,1.2,0.1,1.7,0.4c0.5,0.3,0.9,0.7,1.3,1.3c0.3,0.6,0.5,1,0.5,1.4c0,0.6-0.3,1.2-0.8,1.8
		c-0.8,0.9-2.3,1.8-4.1,2.5c-1.8,0.6-3.8,1-5.8,1c-2,0-3.8-0.4-5.1-1.1c-1.9-1.1-3.4-2.8-4.4-4.8c-1-2-1.5-4.3-1.5-6.6
		c0-2.1,0.4-4.2,1.3-6.1c1.2-2.6,3.2-5.6,5.6-7.9c1.2-1.2,2.4-2.1,3.7-2.8c1.2-0.7,2.5-1.1,3.6-1.1c0.9,0,1.7,0.2,2.6,0.7
		c0.4,0.2,0.6,0.5,0.8,0.7c0.1,0.3,0.2,0.5,0.2,0.9c0,0.6-0.3,1.5-0.8,2.4c-0.8,1.3-2.2,2.7-3.8,3.8c-1.5,1-3.3,1.7-4.6,1.7l0,1l0-1
		h0c-2.5,0-4.8-1.1-6.7-2.9c-1.9-1.8-3.2-4.2-3.6-6.7c-0.1-0.7-0.2-1.5-0.2-2.3c0-4.4,2.1-8.8,5.1-12.2c0.8-0.9,2-1.8,3.2-2.4
		c1.2-0.6,2.6-0.9,3.7-0.9c0.8,0,1.4,0.2,1.9,0.4c0.5,0.3,0.9,0.7,1.2,1.4c0.2,0.4,0.3,0.9,0.3,1.3c0,1.3-0.8,2.9-2,3.9
		c-1.3,1.1-2.9,1.6-4.6,1.6c-2,0-4.1-0.7-5.8-1.9c-1.8-1.2-3.2-2.9-3.8-4.9c-0.4-1.2-0.6-2.5-0.6-3.8c0-4.7,2.7-9.6,6.4-12.9
		c4.8-4.2,11.1-6.4,17.3-8.6L232.3,133.7"/>
	<path class="st9" d="M548.2,167.2c-10.1-6.5-100.4,69.7-97.1,129.8c0,0,17.6-23.7,32.9-35.3c15.3-11.6,16.8-23.7,16.8-35.7
		c0-12,22.9-7,25.5-20.3C530.8,182.2,557.3,173.1,548.2,167.2"/>
	<path class="st10" d="M554.1,223.3c-14.6,8.8-10.3,20.6-18.9,27.5c-6.3,5-16.7,2.4-21.9,9.2c-5.9,7.7,0.8,18.2,1.3,27.5
		c0.7,12.8-10.7,22.4-22.3,26.2c-13.5,4.5-30.9,3.1-38.2-10.3c-8.7-15.8-2.2-39.6,13.1-47c3.7-1.8,8.4-2.3,11.4-5.9
		c5.1-6.2,1.8-15,4.2-22.8c2.3-7.6,9.9-13,16.8-15.4c7-2.4,14-2.9,20.8-5.6c9.2-3.8,17.3-12,25-17.6c6.9-5,31-14.3,34.9,2
		C583.9,205.9,566.4,215.8,554.1,223.3"/>
	<path class="st11" d="M555.4,199.1c-0.1,0-59.8,30.1-107.4,126.9l0.9,0.4c23.8-48.3,50.5-79.9,71.3-99.4
		c10.4-9.8,19.3-16.5,25.6-20.8c3.2-2.2,5.7-3.7,7.4-4.7c0.9-0.5,1.5-0.9,2-1.1c0.2-0.1,0.4-0.2,0.5-0.3c0.1-0.1,0.2-0.1,0.2-0.1
		L555.4,199.1L555.4,199.1z"/>
	<path class="st8" d="M591.6,244.2l-0.1,0c-3.5,0-78.2,0.8-140.6,72.4l0.8,0.7c62.1-71.2,136.5-72,139.9-72l0.1,0L591.6,244.2
		L591.6,244.2z"/>
	<path class="st9" d="M553.6,278.9c-7.3,2.9-9.3,15.2-17.2,16.8c-5.7,1.1-11.8-3.9-17.4-1.3c-6.3,3-5.2,11.9-7.8,17.9
		c-3.6,8.3-14.1,10.7-23,9.4c-10.3-1.5-21.5-8.1-22.2-19c-0.8-12.9,11-25.9,23.4-25.6c3,0.1,6.3,1.3,9.5,0c5.3-2.2,5.9-8.9,10-13.1
		c3.9-4.1,10.6-5,16-4.3c5.4,0.8,10.2,2.8,15.6,3.2c7.3,0.6,15.3-2,22.1-3c6.1-0.9,31.1-0.4,22.5,12.7
		C579.2,281.6,563.3,275,553.6,278.9L553.6,278.9z"/>
	<path class="st11" d="M569.3,266.3c-0.1,0-53.4,4.6-115.4,50.5l0.6,0.8c30.9-22.9,59.7-35.5,80.7-42.3c10.5-3.4,19.1-5.4,25-6.6
		c3-0.6,5.3-0.9,6.9-1.1c0.8-0.1,1.4-0.2,1.8-0.2c0.4,0,0.6-0.1,0.6-0.1L569.3,266.3L569.3,266.3z"/>
	<path class="st10" d="M395.8,324.1c0,0,12.1-21.2,14.1-23.4c12.5-13.8,29-14,45.8-10.5c4.9,1,17.8,7.8,22.4,6.8
		c3.6-0.7,8-14.6,19.7-13.9c11.7,0.7,12.4,14.6,12.4,14.6s7.3-16.1,19-14.6c11.7,1.5,11.7,12.4,2.9,20.4c0,0,18.6-5.6,36.6,3.1
		c18,8.6,9.4,20,9.4,20L395.8,324.1L395.8,324.1z"/>
	<path class="st9" d="M71.6,167.2c10.1-6.5,100.4,69.7,97.1,129.8c0,0-17.6-23.7-32.9-35.3C120.4,250.2,119,238,119,226.1
		c0-12-22.9-7-25.5-20.3C89,182.2,62.4,173.1,71.6,167.2"/>
	<path class="st10" d="M65.6,223.3c14.6,8.8,10.3,20.6,18.9,27.5c6.3,5,16.7,2.4,21.9,9.2c5.9,7.7-0.8,18.2-1.3,27.5
		c-0.7,12.8,10.7,22.4,22.3,26.2c13.5,4.5,30.9,3.1,38.2-10.3c8.7-15.8,2.2-39.6-13.1-47c-3.7-1.8-8.4-2.3-11.4-5.9
		c-5.1-6.2-1.8-15-4.2-22.8c-2.3-7.6-9.8-13-16.8-15.4c-6.9-2.4-14-2.9-20.8-5.6c-9.2-3.8-17.3-12-25-17.6c-6.9-5-31-14.3-34.9,2
		C35.8,205.9,53.4,215.8,65.6,223.3"/>
	<path class="st11" d="M63.9,200c0,0,0.1,0,0.2,0.1c3.5,1.8,60.8,32.8,106.8,126.3l0.9-0.4C124.1,229.2,64.4,199.1,64.3,199.1
		L63.9,200"/>
	<path class="st8" d="M28.1,245.2l0.1,0c3.3,0,77.8,0.8,139.9,72l0.8-0.7C106.5,245,31.7,244.2,28.2,244.2l-0.1,0L28.1,245.2
		L28.1,245.2"/>
	<path class="st9" d="M66.1,278.9c7.3,2.9,9.3,15.2,17.2,16.8c2.6,0.5,5.2-0.2,7.8-0.9c3.3-0.9,6.5-1.8,9.6-0.4
		c6.3,3,5.2,11.9,7.8,17.9c3.6,8.3,14.1,10.7,23,9.4c10.3-1.5,21.5-8.1,22.2-19c0.8-12.9-11-25.9-23.4-25.6c-3,0.1-6.3,1.3-9.5,0
		c-5.3-2.2-5.9-8.9-10-13.1c-3.9-4.1-10.6-5-16-4.3c-5.4,0.8-10.2,2.8-15.6,3.2c-7.3,0.6-15.3-2-22.1-3c-6.1-0.9-31.1-0.4-22.5,12.7
		c3.6,5.4,10.7,5.2,17.9,5.1C57.3,277.4,62.2,277.3,66.1,278.9"/>
	<path class="st11" d="M50.3,267.3c0,0,0.2,0,0.6,0.1c6,0.7,56.4,7.3,114.3,50.3l0.6-0.8c-62-46-115.4-50.5-115.4-50.5L50.3,267.3"
		/>
	<path class="st10" d="M223.9,324.1c0,0-12.1-21.2-14.1-23.4c-12.5-13.8-29-14-45.8-10.5c-4.9,1-17.8,7.8-22.4,6.8
		c-3.6-0.7-8-14.6-19.7-13.9c-11.7,0.7-12.4,14.6-12.4,14.6s-7.3-16.1-19-14.6c-11.7,1.5-11.7,12.4-2.9,20.4c0,0-18.6-5.6-36.6,3.1
		c-18,8.6-9.4,20-9.4,20L223.9,324.1"/>
	<path class="st12" d="M354.5,325.9h-18.9c-2.1,0-3.8-1.6-4-3.7l-1.2-14.9h29.3l-1.2,14.9C358.3,324.3,356.6,325.9,354.5,325.9
		L354.5,325.9z"/>
	<path class="st12" d="M465.8,325.9H447c-2.1,0-3.8-1.6-4-3.7l-1.2-14.9h29.3l-1.2,14.9C469.7,324.3,467.9,325.9,465.8,325.9
		L465.8,325.9z"/>
	<path class="st13" d="M469.1,287.8H332.4l9.7-70.5c0.8-5.5,5.5-9.6,11-9.6h95.4c5.6,0,10.2,4.1,11,9.6L469.1,287.8"/>
	<path class="st13" d="M450.7,274.1h-99.8l7.1-70.8c0.5-5.3,5-9.3,10.2-9.3h65.2c5.3,0,9.7,4,10.2,9.3L450.7,274.1"/>
	<polyline class="st14" points="469.1,287.8 466.9,271.8 466.9,271.8 469.1,287.8 	"/>
	<polyline class="st15" points="469.1,287.8 367.8,287.8 353.9,287.8 332.4,287.8 334.6,271.8 351,271.8 350.8,274.1 450.7,274.1 
		450.4,271.8 466.9,271.8 469.1,287.8 	"/>
	<polyline class="st15" points="450.7,274.1 350.8,274.1 351,271.8 450.4,271.8 450.7,274.1 	"/>
	<polygon class="st13" points="483.9,315.2 317.6,315.2 320.6,279 480.8,279 483.9,315.2 	"/>
	<path class="st15" d="M400.7,268.6c-12,0-23.5-7.2-28.2-19.1c-6.3-15.6,1.3-33.3,16.8-39.6c3.7-1.5,7.6-2.2,11.4-2.2
		c12,0,23.5,7.2,28.2,19.1c6.3,15.6-1.3,33.3-16.8,39.6C408.4,267.9,404.5,268.6,400.7,268.6"/>
	<path class="st8" d="M425.1,228.3c5.4,13.5-1.1,28.8-14.6,34.2c-13.5,5.4-28.8-1.1-34.2-14.6c-5.4-13.5,1.1-28.8,14.6-34.2
		C404.4,208.3,419.7,214.8,425.1,228.3L425.1,228.3z"/>
	<path class="st16" d="M408.1,259.8c-0.9,0-1.8-0.4-2.4-1c-0.2-0.2-0.3-0.3-0.4-0.5c-0.1-0.2-0.2-0.4-0.3-0.6
		c-0.1-0.2-0.1-0.4-0.2-0.6c0-0.2-0.1-0.4-0.1-0.7c0-0.9,0.4-1.8,1-2.4c0.8-0.8,2-1.2,3.1-0.9c0.2,0,0.4,0.1,0.6,0.2
		c0.2,0.1,0.4,0.2,0.6,0.3c0.2,0.1,0.4,0.3,0.5,0.4c0.6,0.6,1,1.5,1,2.4c0,0.2,0,0.4-0.1,0.7c0,0.2-0.1,0.4-0.2,0.6
		c-0.1,0.2-0.2,0.4-0.3,0.6c-0.1,0.2-0.3,0.4-0.4,0.5c-0.2,0.2-0.3,0.3-0.5,0.4c-0.2,0.1-0.4,0.2-0.6,0.3c-0.2,0.1-0.4,0.2-0.6,0.2
		C408.5,259.7,408.3,259.8,408.1,259.8L408.1,259.8z"/>
	<path class="st16" d="M403,222c-1.9-0.3-3.2-2-2.9-3.9c0.3-1.9,2-3.2,3.9-2.9c1.9,0.3,3.2,2,2.9,3.9c-0.2,1.7-1.7,2.9-3.4,2.9
		C403.3,222.1,403.1,222.1,403,222L403,222z M390.2,221.2c-0.7-1.7,0.1-3.7,1.9-4.4c1.7-0.7,3.7,0.1,4.5,1.9
		c0.7,1.7-0.1,3.7-1.9,4.5c-0.4,0.2-0.8,0.2-1.3,0.2C392,223.3,390.7,222.5,390.2,221.2L390.2,221.2z M410.7,225.3
		c-1.5-1.2-1.8-3.3-0.6-4.8c1.2-1.5,3.3-1.8,4.8-0.6c1.5,1.2,1.8,3.3,0.6,4.8c-0.7,0.9-1.7,1.3-2.7,1.3
		C412.1,226,411.3,225.8,410.7,225.3L410.7,225.3z M383.1,228.7c-1.5-1.2-1.8-3.3-0.6-4.8c1.2-1.5,3.3-1.8,4.8-0.6
		c1.5,1.2,1.8,3.3,0.6,4.8c-0.7,0.9-1.7,1.3-2.7,1.3C384.5,229.4,383.8,229.2,383.1,228.7L383.1,228.7z M380.8,238.8
		c-1.9-0.3-3.2-2-2.9-3.9c0.3-1.9,2-3.2,3.9-2.9c1.9,0.3,3.2,2,2.9,3.9c-0.2,1.7-1.7,2.9-3.4,2.9
		C381.1,238.8,380.9,238.8,380.8,238.8L380.8,238.8z M379.3,246.8c-0.7-1.7,0.1-3.7,1.9-4.4c1.7-0.7,3.7,0.1,4.4,1.9
		c0.7,1.7-0.1,3.7-1.9,4.5c-0.4,0.2-0.8,0.2-1.3,0.2C381.2,248.9,379.9,248.1,379.3,246.8L379.3,246.8z M386.5,256.3L386.5,256.3
		c-1.5-1.2-1.7-3.3-0.6-4.8c1.2-1.5,3.3-1.7,4.8-0.6c1.5,1.2,1.7,3.3,0.6,4.8c-0.7,0.9-1.7,1.3-2.7,1.3
		C387.9,257,387.1,256.8,386.5,256.3L386.5,256.3z M397.5,261L397.5,261c-1.9-0.3-3.2-2-2.9-3.9c0.3-1.9,2-3.2,3.9-2.9
		c1.9,0.3,3.2,2,2.9,3.9c-0.2,1.7-1.7,2.9-3.4,2.9C397.8,261,397.7,261,397.5,261L397.5,261z"/>
	<path class="st16" d="M419,234.2c-0.2,0-0.4,0-0.7-0.1c-0.2,0-0.4-0.1-0.6-0.2c-0.2-0.1-0.4-0.2-0.6-0.3c-0.2-0.1-0.4-0.3-0.5-0.4
		c-0.6-0.6-1-1.5-1-2.4c0-0.2,0-0.4,0.1-0.7c0-0.2,0.1-0.4,0.2-0.6c0.1-0.2,0.2-0.4,0.3-0.6c0.1-0.2,0.3-0.4,0.4-0.5
		c0.2-0.2,0.3-0.3,0.5-0.4c0.2-0.1,0.4-0.2,0.6-0.3c0.2-0.1,0.4-0.1,0.6-0.2c1.1-0.2,2.3,0.1,3.1,0.9c0.2,0.2,0.3,0.3,0.4,0.5
		c0.1,0.2,0.2,0.4,0.3,0.6c0.1,0.2,0.2,0.4,0.2,0.6c0,0.2,0.1,0.4,0.1,0.7c0,0.9-0.4,1.8-1,2.4C420.7,233.8,419.9,234.2,419,234.2
		L419,234.2z"/>
	<path class="st17" d="M361.5,127.3c0,0-3.6-7.8,2.9-15.3c0,0,24.7,16,52.4,11.5c0,0,3,8.3-5.5,16.1
		C411.4,139.6,381.8,145.2,361.5,127.3L361.5,127.3z"/>
	<path class="st13" d="M403.9,91.8c-17.8-15-51.5-17.1-94.2-10.3c-36.7,5.9-74.1,19.8-86.6,39.4c-5.7,8.9-1.8,33.7-1.8,33.7
		c33.8,2.1,46.2-27,46.2-27s-2.3-8.2,5.3-11.9c26.5-12.8,67.6-17.1,82.9-13.4c8.2,2,8.8,9.6,8.8,9.6s20.9,23.7,52.3,11.1
		C416.8,123.1,411.9,98.6,403.9,91.8L403.9,91.8z"/>
	<path class="st17" d="M274.3,140.9c0,0,1-8.6-7.6-13.6c0,0-18.5,23-46.1,27.4c0,0-0.3,8.9,10.2,13.5
		C230.8,168.3,260.7,164.3,274.3,140.9L274.3,140.9z"/>
	<g>
		<defs>
			<path id="SVGID_3_" d="M267.5,325.7H133.7c-7.9,0-14.2-6.4-14.2-14.2v-78.7c0-7.9,6.4-14.2,14.2-14.2h133.9
				c7.9,0,14.2,6.4,14.2,14.2v78.7C281.8,319.4,275.4,325.7,267.5,325.7"/>
		</defs>
		<clipPath id="SVGID_4_">
			<use xlink:href="#SVGID_3_"  style="overflow:visible;"/>
		</clipPath>
		<path class="st18" d="M267.5,325.7H133.7c-7.9,0-14.2-6.4-14.2-14.2v-78.7c0-7.9,6.4-14.2,14.2-14.2h133.9
			c7.9,0,14.2,6.4,14.2,14.2v78.7C281.8,319.4,275.4,325.7,267.5,325.7"/>
		<path class="st19" d="M200.5,295.1c-2.6,0-5.3-0.9-7.5-2.6l-64.1-52V236c0-2.7,0.7-5.2,2-7.3l60.7,53.4c2.6,2.3,5.8,3.4,9,3.4
			c3.2,0,6.4-1.1,9-3.4l67.7-59.6c2.2,2.1,3.8,4.9,4.3,8.1c0.1,0.7,0.2,1.5,0.2,2.2l0,0L208,292.5
			C205.8,294.2,203.2,295.1,200.5,295.1 M119.5,232.8L119.5,232.8c0-4.1,1.7-7.7,4.4-10.3h0C121.2,225.1,119.5,228.7,119.5,232.8
			L119.5,232.8"/>
	</g>
	<g>
		<defs>
			<path id="SVGID_5_" d="M191.6,282.1l-72.2-63.5h162.3l-72.2,63.5C204.5,286.6,196.8,286.6,191.6,282.1"/>
		</defs>
		<defs>
			<path id="SVGID_6_" d="M267.5,325.7H133.7c-7.9,0-14.2-6.4-14.2-14.2v-78.7c0-7.9,6.4-14.2,14.2-14.2h133.9
				c7.9,0,14.2,6.4,14.2,14.2v78.7C281.8,319.4,275.4,325.7,267.5,325.7"/>
		</defs>
		<clipPath id="SVGID_7_">
			<use xlink:href="#SVGID_5_"  style="overflow:visible;"/>
		</clipPath>
		<clipPath id="SVGID_8_" class="st20">
			<use xlink:href="#SVGID_6_"  style="overflow:visible;"/>
		</clipPath>
		<g class="st21">
			<defs>
				<rect id="SVGID_9_" x="123.6" y="218.6" width="153.8" height="67"/>
			</defs>
			<clipPath id="SVGID_10_">
				<use xlink:href="#SVGID_9_"  style="overflow:visible;"/>
			</clipPath>
			<g style="clip-path:url(#SVGID_10_);">
				
					<image style="overflow:visible;" width="328" height="144" xlink:href="6C59F1A0E6248196.jpg"  transform="matrix(0.48 0 0 -0.48 122.4572 286.7326)">
				</image>
			</g>
		</g>
	</g>
	<g>
		<defs>
			<path id="SVGID_11_" d="M200.6,285.5c-3.2,0-6.4-1.1-9-3.4l-60.7-53.4c2.5-4.2,7-6.9,12.2-6.9h33.9l0,0.3l2.4,5.5l1.8-2.4
				l0.3-3.4h94.9c-2.4-1.9-5.3-3.1-8.5-3.2c0,0,0,0,0,0c-0.1,0-0.2,0-0.3,0h-82v0h82c3.8,0,7.2,1.5,9.8,3.9l-67.7,59.6
				C207,284.4,203.8,285.5,200.6,285.5 M123.9,222.5L123.9,222.5c2-1.9,4.5-3.2,7.3-3.7c0.8-0.1,1.6-0.2,2.5-0.2h43.8v0h-43.8
				C129.9,218.6,126.5,220.1,123.9,222.5"/>
		</defs>
		<defs>
			<path id="SVGID_12_" d="M267.5,325.7H133.7c-7.9,0-14.2-6.4-14.2-14.2v-78.7c0-7.9,6.4-14.2,14.2-14.2h133.9
				c7.9,0,14.2,6.4,14.2,14.2v78.7C281.8,319.4,275.4,325.7,267.5,325.7"/>
		</defs>
		<clipPath id="SVGID_13_">
			<use xlink:href="#SVGID_11_"  style="overflow:visible;"/>
		</clipPath>
		<clipPath id="SVGID_14_" class="st22">
			<use xlink:href="#SVGID_12_"  style="overflow:visible;"/>
		</clipPath>
		<g class="st23">
			<defs>
				<rect id="SVGID_15_" x="123.9" y="218.6" width="153.6" height="67"/>
			</defs>
			<clipPath id="SVGID_16_">
				<use xlink:href="#SVGID_15_"  style="overflow:visible;"/>
			</clipPath>
			<g style="clip-path:url(#SVGID_16_);">
				
					<image style="overflow:visible;" width="328" height="144" xlink:href="6C59F1A0E624819A.jpg"  transform="matrix(0.48 0 0 -0.48 122.5196 286.7326)">
				</image>
			</g>
		</g>
	</g>
	<path class="st4" d="M330.3,153.8c0,0,4.6-13.3,4.9-14.8c1.9-8.7,2.4-27.4,2.3-31.4c-0.1-4-0.5-7.5-0.6-8c-0.1-0.5-2.6-3.2-2.6-3.2
		l-0.8,0.1l0,0.5l-1.1-0.9l-0.9,0l-0.1,0.4l-1.3-0.6l-1.2,0c0,0,0.8,2.5,1.2,4.1c0.5,1.5,0,1.7,0,1.7s-1,0.4-1.4,0.3
		c-0.4-0.1-1.7-0.1-1.7-0.1s3.7,4.9,3.9,5.3c0.2,0.5,2.3,2.7,1.5,7c-1.4,7.8-5.3,19.4-5.3,19.4c0.1-0.3-5,14.4-5,14.4L330.3,153.8
		L330.3,153.8z"/>
	<path class="st3" d="M327.9,171.4c1.4-11.2,7.2-24.3,7.2-24.3s-8.8-1.7-11-4.9c0,0-3,7.4-4.8,11.1c-1.9,4.1-4.6,8.5-1.2,10.9
		C321.3,166.5,327.4,175.3,327.9,171.4L327.9,171.4z"/>
	<path class="st7" d="M294.2,318.7v7.2h13.9c0,0-0.5-2.6-7.1-3.8l-1-3.4H294.2L294.2,318.7z"/>
	<path class="st7" d="M315.3,318.7v7.2h13.9c0,0-0.5-2.6-7.1-3.8l-1-3.4H315.3L315.3,318.7z"/>
	<path class="st7" d="M296.6,211.3c0,0-1.9,20.2-2,39.1c-0.1,18.9-1.2,69.9-1.2,69.9h7.7c0,0,7.9-49.1,10.8-61.3
		c2.9-12.2,10.3-47.5,10.3-47.5L296.6,211.3L296.6,211.3z"/>
	<path class="st4" d="M308.3,144.4c0,0-0.5,3.9-0.9,5.8c-0.4,2-0.7,3-1,3.6c-0.7,1.3-4.7,5.4-4.7,5.4s12.7,6.7,16.4,6.7
		c3.7,0,2.4-7.5,2.4-7.5s-4.1-3.2-4.7-4.8c-0.6-1.6-0.9-6.3-0.9-6.3L308.3,144.4L308.3,144.4z"/>
	<path class="st7" d="M313.2,233.2c0,0,1.4,31.9,1.7,37.6c0.3,5.7,0,49.5,0,49.5s7.2,0.2,7.2,0c0-0.2,6.8-49.7,7.6-63.7
		c0.9-14,0.4-30.6,1.5-32.5c1.2-1.9-3.1-12.6-3.1-12.6L318,211L313.2,233.2L313.2,233.2z"/>
	<path class="st3" d="M304.2,155.5c0,0-10.7-4.3-12.5-0.8c-1.3,2.7-0.2,19.8,0.4,24.6c0.5,4.2,3.4,39.2,3.4,39.2s4,6.2,23.3,3.7
		c7.4-1,11.1-4.6,11.1-4.6s-2.1-41.8-2.7-46c-0.6-4.2-2.6-10.7-2.6-10.7l-5.7-3.8c0,0,1.8,4-3.3,5.2
		C305.2,164.6,304.2,155.5,304.2,155.5L304.2,155.5z"/>
	<path class="st4" d="M318.5,129.9c1.2,0.5,3.3,1.6,3.6,2.6c0.2,1,1.1,4,1.2,5.7c0.1,1.8,0.4,5.1,0.4,7.2c0,2.1-1.3,6.3-1.7,6.8
		c-0.5,0.4-4,1.2-5.2,0.8c-1.2-0.3-8.2-4-8.6-8.4c0,0-1.2,0.7-3.5-3c-0.6-1,1.5-8.1,1.7-9.4c0.7-3.1,8.3-0.7,10-1.1
		C318,130.6,318.5,129.9,318.5,129.9L318.5,129.9z"/>
	<path class="st7" d="M322,132.5c0,0-5.4,3.4-7.4,3.5c-2.1,0.2-5.2,3-5.1,3.9c0.1,0.9-0.9,1.5-0.9,1.5s-1.3-2.1-2.4-1.9
		c-2.1,0.4-0.9,3,0.3,3.6c1.1,0.6,2.3,0.9,2.3,0.9s0.2,1.2,0.1,2.2c-0.1,1-0.9,2.6-0.9,2.6s-2.5-5.2-4.7-7.1
		c-5.3-4.6-1.5-13.2,3.7-14.8c2.1-0.7,7.9-1.1,10.7,0.2C321.4,128.8,322,132.5,322,132.5L322,132.5z"/>
	<path class="st12" d="M307.9,140.4l2.9-0.6l1-1.4c0,0-1.1,0.2-3,0.6c-0.9,0.2-1.8,0.8-1.8,0.8S307.5,140,307.9,140.4L307.9,140.4z
		 M312.3,139.1c0.2-0.3,2-0.5,3.3-0.7c1.3-0.2,1.8-0.2,2,0.3c0.1,0.2,0.2,0.9,0.2,1.7c0,0.9-0.2,1.6-2.3,2c-1.5,0.3-2.2-0.1-2.8-1.2
		C312.2,140.1,312.2,139.4,312.3,139.1L312.3,139.1z M320,138.2c0.1-0.5,0.1-0.5,1.4-0.8c1.3-0.3,1.4-0.2,1.7,0
		c0.3,0.2,0.5,1,0.3,2.1c-0.1,0.6-0.2,1.3-1.3,1.5c-1.2,0.2-1.4-0.4-1.8-1.2C320.1,139.1,320,138.4,320,138.2L320,138.2z
		 M310.8,139.8c0.1,0.2,0.6,0.2,0.7,0.3c0.2,0.1,0.1,0.1,1.1,1.6c0.7,1.1,1.9,1.4,4.1,0.7c1.7-0.6,1.5-2,1.6-2.7
		c0.1-0.7,0.3-0.8,0.5-0.9c0.3,0,0.4,0,0.8,0.6c0.4,0.6,0.5,2.2,2.3,1.9c1.2-0.2,1.5-0.5,1.7-1.5c0.1-0.9,0.2-1.7,0.1-2.3
		c0-0.6-0.1-1-0.4-1.1c-0.4,0-0.9,0.1-1.5,0.2c-1.1,0.2-1.8,0.2-2.4,0.6c-0.6,0.4-0.5,0.7-0.8,0.7c-0.3,0.1-0.4-0.2-1-0.4
		c-0.7-0.2-3.5,0.3-4.6,0.5c-1.1,0.2-2.5,0.6-2.5,1C310.7,139.3,310.7,139.6,310.8,139.8L310.8,139.8z"/>
	<path class="st4" d="M284.8,155c0,0-2.5-16.1-2.6-17.6c-0.1-8.9,4.4-20.8,5.3-24.7c0.9-3.9,1.5-3.3,1.7-3.8
		c0.2-0.5,6.6-1.5,6.6-1.5s1.7-0.7,2.1-0.8c0.4,0,2.1-0.5,2.1-0.5l-1,1.8c0,0-4,3.1-4.3,3.5c-0.3,0.4-2.8,2.1-2.9,6.6
		c-0.2,7.9-0.1,16.5-0.1,16.5c-0.1-0.3,3.8,16.4,3.8,16.4L284.8,155L284.8,155z"/>
	<path class="st3" d="M292.2,179.3c-2.7-7.7-9-28.5-9-28.5s9.3-2.3,11.9-5.2c0,0,3.1,9.3,4.4,13.1c1.4,4.3,3.6,9,0,11
		C295.9,171.7,293.5,183,292.2,179.3L292.2,179.3z"/>
	<g>
		<defs>
			<path id="SVGID_17_" d="M471.4,192.3c2.4,2.2,4.1,1.5,7.7,13.9c2.3,7.9,10.7,47.8,10.7,47.8l-5,2.2c-6.8-19.1-6.8-19-14.7-34.5
				c-3.9-7.5-5.5-14.9-5.5-14.9l-14.7-0.9c-9.2-3.8-6-17.2-6-17.2S469,190,471.4,192.3L471.4,192.3z"/>
		</defs>
		<clipPath id="SVGID_18_">
			<use xlink:href="#SVGID_17_"  style="overflow:visible;"/>
		</clipPath>
		<g class="st24">
			<defs>
				<rect id="SVGID_19_" x="440.8" y="188.6" width="49.1" height="67.5"/>
			</defs>
			<clipPath id="SVGID_20_">
				<use xlink:href="#SVGID_19_"  style="overflow:visible;"/>
			</clipPath>
			<g style="clip-path:url(#SVGID_20_);">
				
					<image style="overflow:visible;" width="108" height="145" xlink:href="6C59F1A0E624819D.jpg"  transform="matrix(0.48 0 0 -0.48 439.6696 257.3678)">
				</image>
			</g>
		</g>
	</g>
	<g>
		<defs>
			<path id="SVGID_21_" d="M415.8,180.4l13.3-8.5l12.8,10l16,5.2l-0.1,0c6.4,2.2,13.8,5.5,16,7.6c2.4,2.2,7.2,5.4,3.3,17.7
				c-2.4,7.9-13.1,47.7-13.1,47.7l-5.4-1c0,0,1.9-23.1,3.8-40.4c0.9-8.4,1.2-10.7,1.2-10.7s-35.7,3.9-47.2-2.2
				C408.5,201.6,415.8,186.8,415.8,180.4L415.8,180.4z"/>
		</defs>
		<clipPath id="SVGID_22_">
			<use xlink:href="#SVGID_21_"  style="overflow:visible;"/>
		</clipPath>
		<g class="st25">
			<defs>
				<rect id="SVGID_23_" x="408.5" y="171.9" width="72.4" height="88.2"/>
			</defs>
			<clipPath id="SVGID_24_">
				<use xlink:href="#SVGID_23_"  style="overflow:visible;"/>
			</clipPath>
			<g style="clip-path:url(#SVGID_24_);">
				
					<image style="overflow:visible;" width="156" height="188" xlink:href="6C59F1A0E624819E.jpg"  transform="matrix(0.48 0 0 -0.48 407.3376 261.2713)">
				</image>
			</g>
		</g>
	</g>
	<path class="st7" d="M464.4,257.2c0,0-0.2,1.4-2.5,2.1c-2.3,0.7-3.9-1.3-3.9-1.3l-0.5,4.7l7.4,5.2h6.2l-3.3-3.7L464.4,257.2
		L464.4,257.2z"/>
	<path class="st7" d="M489.1,250.6c0,0,1.1,2-0.9,3.4c-2,1.3-4.1,0-4.1,0l1,4.7l17.5-5.5L489.1,250.6L489.1,250.6z"/>
	<path class="st4" d="M468.9,132.6c0,0.3-2.9-3.5-2.9-3.5l-0.7-3c0,0-1.2-1.6-2.1-2.5c-0.9-1-1.7-5-1.7-5l1.2-0.7
		c0,0,0.6,1.9,0.9,2.2c0.3,0.4,1.2,0.5,1.2,0.5s0.1-1.1,0-2.8c-0.1-1.7-1.1-4.8-1.1-4.8l1-0.5c0,0,0.7,1.5,0.9,2.2
		c0.2,0.7,0.6,2.1,0.6,2.1s-0.1-2.3-0.3-3.2c-0.2-0.9-0.4-2.2-0.4-2.2l1-0.3c0,0,0.5,1.5,0.7,2.6c0.2,1.1,0.5,2.9,0.5,2.9
		s0.1-2.5,0-3.3c-0.1-0.8-0.1-1.2-0.1-1.2l1.1,0c0,0,0.4,1.1,0.4,2.5c0,1.3,0.1,2,0.1,2s0.4-2,0.3-2.7c-0.1-0.7,0-0.9,0-0.9l0.8,0.1
		c0,0,0.5,3.4,0.6,5.4c0.2,2-0.1,4.6-0.1,6c0,1.4-0.1,2.6-0.1,2.6L468.9,132.6L468.9,132.6z"/>
	<path class="st4" d="M446.5,136.6c6.8,5.6,13.7,9.8,13.7,9.8s2.5-6.4,3.8-10.9c1.4-5.4,1.9-7.9,1.9-7.9l5.2-0.4
		c0,0-1.6,13.8-3.7,23.2c-2,9.1-4.5,7.5-6.6,7c-2.2-0.4-22.7-11.5-22.7-11.5l2.2-11.7C440.1,134.1,441.6,132.5,446.5,136.6
		L446.5,136.6z"/>
	<path class="st26" d="M424.8,103.4c1.1-0.6,6.4-1.1,9.7,1c6.3,3.9,3.3,14.6,2.9,17.1c-0.4,2.5,1.9,6.9,1.8,9.9c0,2.9-0.7,4-2.9,6.9
		c-0.7,0.8-0.8,2.3-0.8,2.3s-2.4-3.6-3-8.7c-0.5-5.1-1.6-3.9-4.1-9.5c-2.5-5.6-2.6-14-2.6-14L424.8,103.4L424.8,103.4z"/>
	<path class="st26" d="M430.1,107l-5.3-3.6c0,0-4.5-0.6-7.1,3.4c-2.6,4-3.5,9.8-4.1,14.2c-0.6,4.4-2.1,12.6-2,15.8
		c0.1,3.3,4.1,3.7,4.1,3.7l13.3-5.7c0,0-1.6-7-0.1-14.4C430.2,113,430.1,107,430.1,107L430.1,107z"/>
	<path class="st4" d="M434.5,108.2c0.3,1.7,1.6,6.5,1.7,9.6c0.1,3.1-0.2,8.2-2.3,9.7c-2.1,1.4-5.9,0.3-8.8-0.9
		c-2.8-1.2-3.5-3.2-4.1-5c-0.6-1.8-0.4-6.7,0.3-10.2c0.6-3.5,2.9-4.9,5.4-5.4C429.3,105.6,434.5,108.2,434.5,108.2L434.5,108.2z"/>
	<path class="st4" d="M422.9,119.7c0,0,0.7,7.7-0.9,11.4c-1.1,2.5-5.7,3.6-5.7,3.6s-0.2,7,4.4,13.7c4.6,6.7,18.8,9.2,18.8,9.2
		s2.8-5.6,4.3-11.9c1.5-6.3-2.5-11.1-2.5-11.1s-3.9-1.3-5.7-2c-4.5-1.7-4-8.8-4-8.8L422.9,119.7L422.9,119.7z"/>
	<path class="st3" d="M431.6,137.6c0,0-9.2-2.3-12-4.1l-9.1,5.4c0,0-5.4,5.1,3.8,18.6c0,0,3.5,12.3-2.2,33.9c0,0,1.5,5.6,10.1,2.6
		c7.4-2.6,7.5-4.5,14-6.2c9.5-2.4,12-3.9,12-3.9c-5-7.5-4.1-19.3-4.1-19.3s5.7-5.4,3.2-11c-3.5-8-4.7-19.4-4.7-19.4l-4.9-1.2
		c0,0-2.6,3.2-3.9,4.2C432.5,138.2,431.6,137.6,431.6,137.6L431.6,137.6z"/>
	<path class="st8" d="M435.6,132.6c0,0-1.1,4.2-4,5.1c0,0,1.1,5.7,3.8,4.7c3.8-1.4,2.3-9.3,2.3-9.3L435.6,132.6L435.6,132.6z"/>
	<path class="st8" d="M418.5,132.8c0,0,1.8,8.7,6.6,9.5c4.8,0.7,6.5-4.6,6.5-4.6s-10.2-3-11.2-6.1L418.5,132.8L418.5,132.8z"/>
	<path class="st26" d="M427,106c-0.9,0.1-1.5,4.3-1.6,6.6c-0.1,2.4-3.6,4.2-2.1,9.4c1.6,5.2,1.3,10.2,3.4,15.8
		c2.1,5.7-0.5,7.7-1.6,9.7c0,0-4.5-4.9-6-7.3c-2.4-3.9-6.4-2.9-6.4-2.9s6.8-13.2,6.6-16.8c-0.2-3.6-0.9-9,2-12.3
		C424.1,105,427,106,427,106L427,106z"/>
	<path class="st4" d="M423.4,116.5c0,0-1.9-2.1-3.1-1.8c-1.2,0.3-1.3,2.2-0.4,3.7c1,1.5,4.5,2.4,4.5,2.4L423.4,116.5L423.4,116.5z"
		/>
	<path class="st26" d="M427.7,112.5c1.7,0.2,2.7-0.1,5.4-0.4c3.4-0.4,4.9,0.5,4.9,0.5l-1.3-5.7c0,0-4-2.2-6.8-2.2
		c-3.6,0-6.8,1.4-5,2.6C426.7,108.5,427.7,112.5,427.7,112.5L427.7,112.5z"/>
	<path class="st4" d="M418.2,145.3c-0.6,7.2-2.7,27.6-2.7,27.6c6.5,5.7,15.7,15.2,15.7,15.2s-2.6,5.2-3.7,4.3c-9-7-19.2-11.2-20-16
		c-1.2-8-1.6-28.2,1.3-34.8C411.1,136.5,418.8,137.7,418.2,145.3L418.2,145.3z"/>
	<path class="st4" d="M435.2,188.7c2.7,1,4.4,2,4.3,3c-0.1,0.7-2.4-0.6-3.8-0.5c0.5,1,1.7,2.5,3.3,3.3c1.8,0.9,2.8,2.1,1.8,3.2
		c-1,1-2.7,2.5-3.9,2c-1.2-0.5-5.3-3.4-6.8-4.2c-1.5-0.8-2.2-2.7-3-3.3c-0.8-0.5,1.5-4.6,1.5-4.6c0.4,0.1,2.7,0.6,2.7,0.6
		s1.8,0.3,2.2,0.2C433.9,188.2,435.2,188.7,435.2,188.7L435.2,188.7z"/>
	<polyline class="st11" points="5.1,325.9 614.6,325.9 614.6,324.9 5.1,324.9 	"/>
	<path class="st27" d="M320,410.4c-0.4,0.4-0.8,0.9-1.1,1.5l-0.5-0.2c-0.1-0.3-0.3-0.5-0.7-0.5c-0.3,0-0.6,0.3-0.5,0.7
		c0,0.3,0.3,0.6,0.7,0.5l0.2-0.1l0.5,0.2c-0.3,0.6-0.4,1.1-0.5,1.7l0.7,0.1c0.2-1.3,0.9-2.5,1.8-3.5L320,410.4L320,410.4z"/>
	<path class="st27" d="M325.5,408.1c-0.2,0-0.3,0-0.5,0l-0.1-0.6c0.2-0.1,0.3-0.4,0.3-0.6c0-0.4-0.4-0.7-0.8-0.6
		c-0.4,0-0.7,0.4-0.6,0.8c0,0.3,0.2,0.5,0.4,0.6l0.1,0.6c-0.7,0.1-1.4,0.3-2.1,0.6l0.3,0.7c0.9-0.4,1.9-0.7,3-0.7
		c0.5,0,1,0.1,1.5,0.2l0.2-0.7C326.6,408.2,326,408.1,325.5,408.1L325.5,408.1z"/>
	<path class="st27" d="M332.1,410.7c0.3,0,0.6-0.3,0.5-0.7c0-0.3-0.3-0.6-0.7-0.5c-0.3,0-0.5,0.3-0.5,0.6l-0.4,0.4
		c-0.4-0.4-0.9-0.8-1.4-1.1l-0.4,0.6c1.1,0.7,2,1.7,2.6,2.9l0.7-0.3c-0.3-0.6-0.6-1.1-0.9-1.5l0.4-0.4L332.1,410.7L332.1,410.7z"/>
	<path class="st27" d="M324.9,418.3c-0.4,0-0.8,0-1.2,0c-0.9,0-1.7-0.1-2.5-0.2c-0.4-0.1-0.8-0.2-1.3-0.3c1,1.9,3.1,3.1,5.4,3.1
		c2.9,0,5.3-1.9,6-4.5c-0.7,0.4-1.5,0.8-2.5,1.1C327.7,418,326.3,418.3,324.9,418.3L324.9,418.3z"/>
	<path class="st27" d="M328,415.3c-0.8,0-1.4-0.6-1.4-1.4s0.6-1.4,1.4-1.4s1.4,0.6,1.4,1.4S328.8,415.3,328,415.3L328,415.3z
		 M323.3,416.2c-1,0-1.9-0.8-1.9-1.9c0-1,0.8-1.8,1.9-1.8c1,0,1.8,0.8,1.8,1.8C325.1,415.3,324.3,416.2,323.3,416.2L323.3,416.2z
		 M325.5,409.6c-3.4,0-6.1,2.7-6.1,5.9c0,0.4,0,0.8,0.1,1.3c0.7,0.5,2.7,0.9,5.3,0.7c2.9-0.2,5.3-1,6.7-2.2c0-0.2,0-0.4,0-0.6
		C331.1,411.9,328.5,409.6,325.5,409.6L325.5,409.6z"/>
	<path class="st27" d="M341.5,411.5c-0.3-0.1-0.8-0.3-1.4-0.2c-0.6,0.1-0.8,0.3-0.8,1v0.9h2.2v1.7h-2.2v5.5h-1.9v-5.5H336v-1.7h1.3
		v-0.9c0-1.7,0.9-2.8,2.6-2.8c0.6,0,1.2,0.1,1.6,0.3V411.5L341.5,411.5z"/>
	<path class="st27" d="M346.2,414.8c-0.2,0-0.4,0-0.5,0c-0.9,0-1.5,0.5-1.5,1.6v3.9h-1.9v-7.2h1.9v0.8c0.5-0.7,1.1-1,2-1
		c0.4,0,0.8,0.1,1.1,0.3L346.2,414.8L346.2,414.8z"/>
	<path class="st27" d="M348.7,416.1h3.2c-0.2-0.9-0.7-1.4-1.6-1.4C349.4,414.6,348.9,415.2,348.7,416.1L348.7,416.1z M353.8,416.7
		c0,0.2,0,0.5,0,0.7h-5.1c0.2,1,0.9,1.5,1.8,1.5c0.6,0,1.3-0.3,1.8-0.7l1.1,1.2c-0.8,0.7-1.9,1.1-3.1,1.1c-2.2,0-3.7-1.5-3.7-3.8
		c0-2.3,1.5-3.8,3.6-3.8C352.4,413,353.8,414.5,353.8,416.7L353.8,416.7z"/>
	<path class="st27" d="M356.4,416.1h3.2c-0.2-0.9-0.7-1.4-1.6-1.4C357.1,414.6,356.5,415.2,356.4,416.1L356.4,416.1z M361.5,416.7
		c0,0.2,0,0.5,0,0.7h-5.1c0.2,1,0.9,1.5,1.8,1.5c0.6,0,1.3-0.3,1.8-0.7l1.1,1.2c-0.8,0.7-1.9,1.1-3.1,1.1c-2.2,0-3.7-1.5-3.7-3.8
		c0-2.3,1.5-3.8,3.6-3.8C360.1,413,361.5,414.5,361.5,416.7L361.5,416.7z"/>
	<path class="st27" d="M364.2,416.7c0,1.1,0.7,2,1.8,2c1.1,0,1.8-0.9,1.8-2c0-1.1-0.7-2-1.8-2C364.9,414.8,364.2,415.6,364.2,416.7
		L364.2,416.7z M369.8,416.7c0,2.2-1.5,3.8-3.5,3.8c-1,0-1.6-0.4-2.1-0.9v3.7h-1.9v-10.1h1.9v0.8c0.5-0.6,1.2-1,2.1-1
		C368.3,413,369.8,414.6,369.8,416.7L369.8,416.7z"/>
	<path class="st27" d="M372.7,420.3h-1.9v-7.2h1.9V420.3L372.7,420.3z M372.9,410.8c0,0.7-0.5,1.2-1.2,1.2c-0.7,0-1.2-0.5-1.2-1.2
		c0-0.7,0.5-1.2,1.2-1.2C372.4,409.6,372.9,410.1,372.9,410.8L372.9,410.8z"/>
	<polygon class="st27" points="375.9,415.7 378.6,413.1 381,413.1 377.5,416.5 381,420.3 378.6,420.3 375.9,417.4 375.9,420.3 
		374,420.3 374,409.7 375.9,409.7 375.9,415.7 	"/>
	<path class="st27" d="M244.3,418.3v-3.2c-0.4-0.6-1.2-1.1-2.1-1.1c-1.4,0-2.3,1.2-2.3,2.7c0,1.6,0.8,2.7,2.3,2.7
		C243,419.5,243.9,419,244.3,418.3L244.3,418.3z M244.3,420.3v-1.1c-0.5,0.7-1.4,1.2-2.4,1.2c-1.8,0-3.1-1.4-3.1-3.7
		c0-2.3,1.3-3.7,3.1-3.7c1,0,1.8,0.5,2.4,1.2v-3.8h1.1v9.8H244.3L244.3,420.3z"/>
	<path class="st27" d="M250.3,413.9c-1.5,0-2.3,1.3-2.3,2.4h4.6C252.6,415.2,251.9,413.9,250.3,413.9L250.3,413.9z M246.8,416.7
		c0-2.1,1.5-3.7,3.5-3.7c2.1,0,3.4,1.7,3.4,3.8v0.3H248c0.1,1.3,1,2.4,2.5,2.4c0.8,0,1.6-0.3,2.2-0.9l0.5,0.7
		c-0.7,0.7-1.7,1.1-2.8,1.1C248.3,420.4,246.8,418.9,246.8,416.7L246.8,416.7z"/>
	<path class="st27" d="M254.5,419.3l0.6-0.8c0.5,0.5,1.4,1,2.3,1c1.1,0,1.7-0.5,1.7-1.2c0-1.7-4.4-0.7-4.4-3.3c0-1.1,1-2,2.6-2
		c1.2,0,2.1,0.5,2.6,1l-0.5,0.8c-0.4-0.5-1.2-0.9-2.1-0.9c-1,0-1.6,0.5-1.6,1.1c0,1.6,4.4,0.5,4.4,3.3c0,1.2-1,2.1-2.8,2.1
		C256.2,420.4,255.2,420.1,254.5,419.3L254.5,419.3z"/>
	<path class="st27" d="M261.5,420.3v-7.1h1.1v7.1H261.5L261.5,420.3z M261.3,411.4c0-0.4,0.3-0.7,0.7-0.7c0.4,0,0.7,0.3,0.7,0.7
		c0,0.4-0.3,0.7-0.7,0.7C261.7,412.2,261.3,411.8,261.3,411.4L261.3,411.4z"/>
	<path class="st27" d="M269.6,418.2v-3.1c-0.4-0.6-1.2-1.1-2.1-1.1c-1.4,0-2.3,1.1-2.3,2.7c0,1.6,0.8,2.7,2.3,2.7
		C268.3,419.4,269.2,418.8,269.6,418.2L269.6,418.2z M264.4,422.1l0.6-0.8c0.6,0.7,1.3,1,2.3,1c1.2,0,2.3-0.6,2.3-2.1v-1
		c-0.5,0.7-1.4,1.3-2.4,1.3c-1.8,0-3.1-1.4-3.1-3.7c0-2.3,1.3-3.7,3.1-3.7c1,0,1.8,0.5,2.4,1.2v-1.1h1.1v6.9c0,2.3-1.6,3.1-3.4,3.1
		C266.1,423.1,265.3,422.9,264.4,422.1L264.4,422.1z"/>
	<path class="st27" d="M277.3,420.3v-4.6c0-1.2-0.6-1.6-1.6-1.6c-0.9,0-1.7,0.5-2.1,1.1v5.2h-1.1v-7.1h1.1v1
		c0.5-0.6,1.5-1.2,2.5-1.2c1.5,0,2.3,0.7,2.3,2.3v5H277.3L277.3,420.3z"/>
	<path class="st27" d="M283.3,413.9c-1.5,0-2.3,1.3-2.3,2.4h4.6C285.6,415.2,284.9,413.9,283.3,413.9L283.3,413.9z M279.8,416.7
		c0-2.1,1.5-3.7,3.5-3.7c2.1,0,3.4,1.7,3.4,3.8v0.3H281c0.1,1.3,1,2.4,2.5,2.4c0.8,0,1.6-0.3,2.2-0.9l0.5,0.7
		c-0.7,0.7-1.7,1.1-2.8,1.1C281.3,420.4,279.8,418.9,279.8,416.7L279.8,416.7z"/>
	<path class="st27" d="M293.2,418.3v-3.2c-0.4-0.6-1.2-1.1-2.1-1.1c-1.4,0-2.3,1.2-2.3,2.7c0,1.6,0.8,2.7,2.3,2.7
		C292,419.5,292.8,419,293.2,418.3L293.2,418.3z M293.2,420.3v-1.1c-0.5,0.7-1.4,1.2-2.4,1.2c-1.8,0-3.1-1.4-3.1-3.7
		c0-2.3,1.3-3.7,3.1-3.7c1,0,1.8,0.5,2.4,1.2v-3.8h1.1v9.8H293.2L293.2,420.3z"/>
	<path class="st27" d="M302.8,419.5c1.4,0,2.3-1.2,2.3-2.7c0-1.6-0.8-2.7-2.3-2.7c-0.9,0-1.7,0.5-2.1,1.1v3.2
		C301,419,301.9,419.5,302.8,419.5L302.8,419.5z M299.6,420.3v-9.8h1.1v3.8c0.6-0.8,1.4-1.2,2.4-1.2c1.8,0,3.2,1.5,3.2,3.7
		c0,2.3-1.3,3.7-3.2,3.7c-1,0-1.9-0.5-2.4-1.2v1.1H299.6L299.6,420.3z"/>
	<path class="st27" d="M307.4,422c0.2,0.1,0.4,0.1,0.6,0.1c0.5,0,0.8-0.2,1.1-0.7l0.5-1.1l-3-7.1h1.2l2.4,5.8l2.3-5.8h1.2l-3.5,8.5
		c-0.4,1-1.1,1.4-2.1,1.4c-0.2,0-0.6,0-0.8-0.1L307.4,422L307.4,422z"/>
	<g>
		<defs>
			<path id="SVGID_25_" d="M119.5,232c0.4-7.5,6.6-13.4,14.2-13.4h43.8l0.7-4.6l6.8-7.1l0.4,9.2l0.1,2.5h82c0.1,0,0.2,0,0.3,0h0
				c3.2,0.1,6.2,1.3,8.5,3.2h-94.9l-0.3,3.4l-1.8,2.4l-2.4-5.5l0-0.3h-33.9c-6.5,0-12,4.3-13.7,10.3H119.5"/>
		</defs>
		<clipPath id="SVGID_26_">
			<use xlink:href="#SVGID_25_"  style="overflow:visible;"/>
		</clipPath>
		<g style="clip-path:url(#SVGID_26_);">
			
				<image style="overflow:visible;" width="160" height="28" xlink:href="6C59F1A0E624819C.jpg"  transform="matrix(1.0008 0 0 1.0131 117.8396 205.0942)">
			</image>
		</g>
	</g>
	<g>
		<defs>
			<path id="SVGID_27_" d="M134.3,325.7L134.3,325.7 M133.7,325.7c-7.9,0-14.2-6.4-14.2-14.2v-78.7c0-0.3,0-0.5,0-0.8h10
				c-0.4,1.2-0.6,2.6-0.6,3.9v78.7c0,4.5,2.1,8.5,5.4,11.1H133.7"/>
		</defs>
		<clipPath id="SVGID_28_">
			<use xlink:href="#SVGID_27_"  style="overflow:visible;"/>
		</clipPath>
		<g style="clip-path:url(#SVGID_28_);">
			
				<image style="overflow:visible;" width="18" height="97" xlink:href="6C59F1A0E624819B.jpg"  transform="matrix(1.0027 0 0 1.0026 117.8396 230.2942)">
			</image>
		</g>
	</g>
</g>
<rect x="86.4" y="334.8" class="st8" width="456" height="97"/>
</svg>
