<?xml version="1.0" encoding="utf-8"?>
<!-- Generator: Adobe Illustrator 22.0.0, SVG Export Plug-In . SVG Version: 6.00 Build 0)  -->
<svg version="1.1" id="Layer_1" xmlns="http://www.w3.org/2000/svg" xmlns:xlink="http://www.w3.org/1999/xlink" x="0px" y="0px"
	 viewBox="0 0 677.8 771.7" style="enable-background:new 0 0 677.8 771.7;" xml:space="preserve">
<style type="text/css">
	.st0{clip-path:url(#SVGID_4_);}
	.st1{clip-path:url(#SVGID_5_);fill:url(#SVGID_6_);}
	.st2{fill:#3E3D4D;}
	.st3{opacity:0.72;fill:url(#SVGID_7_);enable-background:new    ;}
	.st4{fill:#FFFFFF;}
	.st5{fill:#EEA886;}
	.st6{fill:#353A3D;}
	.st7{fill:#81807E;}
	.st8{fill:#2D3133;}
	.st9{fill:#DECBC4;}
	.st10{fill:#495055;}
	.st11{fill:#A77860;}
	.st12{fill:#0E2D3D;}
	.st13{fill:#67ADE0;}
	.st14{fill:#2A74A8;}
	.st15{fill:#F5E2D9;}
	.st16{fill:#1D3B54;}
	.st17{fill:#AD9F99;}
	.st18{fill:#69737A;}
	.st19{fill:#1F557A;}
	.st20{fill:#EEA987;}
	.st21{fill:#DB9C7C;}
	.st22{fill:#234663;}
	.st23{fill:#285173;}
	.st24{fill:#14293B;}
	.st25{opacity:0.72;fill:url(#SVGID_8_);enable-background:new    ;}
	.st26{fill:#EBEBEB;}
</style>
<g>
	<g>
		<defs>
			<polygon id="SVGID_1_" points="-337.4,2.8 -336.4,2.8 -337.4,3.8 			"/>
		</defs>
		<defs>
			<polygon id="SVGID_3_" points="-339.4,0.8 -340.4,0.8 -339.4,-0.2 			"/>
		</defs>
		<clipPath id="SVGID_4_">
			<use xlink:href="#SVGID_1_"  style="overflow:visible;"/>
		</clipPath>
		<clipPath id="SVGID_5_" class="st0">
			<use xlink:href="#SVGID_3_"  style="overflow:visible;"/>
		</clipPath>
		
			<linearGradient id="SVGID_6_" gradientUnits="userSpaceOnUse" x1="347.1242" y1="248.4555" x2="347.1242" y2="618.4174" gradientTransform="matrix(1 0 0 -1 0 771.673)">
			<stop  offset="0" style="stop-color:#000000"/>
			<stop  offset="1" style="stop-color:#FFFFFF"/>
		</linearGradient>
		<polygon class="st1" points="330.5,2.1 187.6,542.8 349.9,542.8 506.6,542.8 369.3,2.1 		"/>
	</g>
</g>
<polygon class="st2" points="330.5,2.1 187.6,542.8 349.9,542.8 506.6,542.8 369.3,2.1 "/>
<linearGradient id="SVGID_7_" gradientUnits="userSpaceOnUse" x1="161.2242" y1="144.4365" x2="284.6242" y2="144.4365" gradientTransform="matrix(1 0 0 -1 0 771.673)">
	<stop  offset="5.208330e-03" style="stop-color:#571911"/>
	<stop  offset="1" style="stop-color:#F24584"/>
</linearGradient>
<ellipse class="st3" cx="222.9" cy="627.2" rx="61.7" ry="60"/>
<g>
	<g>
		<path class="st4" d="M573.4,245.5c-63-60.4-146.8-93.8-235.9-93.9c-89.2-0.1-173,33.1-236.1,93.3c-63.1,60.3-97.9,140.5-98,225.9
			s34.5,165.7,97.5,226.1c24.1,23.2,51.4,42.4,80.8,57.2h8.1C81.3,702.1,6.8,594.6,6.9,470.8c0.2-174.4,148.5-316.1,330.6-315.9
			c182.1,0.2,330.1,142.2,329.9,316.6c-0.1,123.8-75,231.2-183.5,282.9h8.1c29.4-14.8,56.7-33.9,80.9-57.1
			c63.1-60.3,97.9-140.5,98-225.9C671,386.3,636.4,306,573.4,245.5z"/>
	</g>
</g>
<g>
	<path class="st4" d="M517,767.8H133.8c17.1-31.9,96.4-56,191.6-56S499.9,735.9,517,767.8z"/>
</g>
<g>
	<g>
		<path class="st5" d="M360.9,573c0,0-3.7,0-5-1.4s-3.6-2.6-4.4-3c-1-0.5-3.7-3.1-4.1-1.8c-0.3,1.3,4.4,4.5,5.3,5.3
			c0.9,0.9-3.9,1.2-4.6,2.1c-0.7,0.8,1.7,9.7,4.9,9s5.8-3.8,6.4-3.8c0.6,0,2.4-0.4,2.4-0.4L360.9,573z"/>
	</g>
	<g>
		<path class="st5" d="M348.8,573.8c0,0-9.5,2.8-9.9,3.6s-0.1,1.4,0.8,1.2c0.9-0.2,9.3-2.4,9.3-2.4s-10.4,5.6-10.9,6.1
			c-0.3,0.3,0.2,1.5,0.7,1.4s11.2-4.9,11.2-4.9s-9.7,5.2-10,5.8c-0.2,0.5,0.4,1.5,1.2,1.2s10.1-4.5,10.1-4.5s-6.8,4.3-6.7,5
			c0.1,0.4,0.4,1.5,2.1,0.3c1.7-1.2,6.1-3.5,6.1-3.5L348.8,573.8z"/>
	</g>
	<g>
		<path class="st6" d="M381,729.8c0,0-3.1,4.5-7.4,5.4c-4.3,1-8.5,2.5-8.6,5.1c0,2.6,12.4,4.2,17.3,1.6c7.3-4,8.1-2.8,8.9-4.8
			c0.8-2-1-7.3-0.9-7.9C390.5,728.4,381,729.8,381,729.8z"/>
	</g>
	<g>
		<path class="st7" d="M381.5,727.6c0,0-0.6,2.2-0.5,2.2s9.7,1.2,9.4-0.6c-0.2-1.4-0.6-2.9-0.6-2.9L381.5,727.6z"/>
	</g>
	<g>
		<path class="st6" d="M441.3,729.5c0,0-2.2,4.3-5.9,5.7c-4,1.6-7.2,3.3-7.1,5.9c0.1,2.6,9.8,5.2,16.8,0.2c4.4-3.1,5.9-3.1,6.6-5.1
			c0.7-2-1.2-7.1-1.2-7.7C450.4,727.8,441.3,729.5,441.3,729.5z"/>
	</g>
	<g>
		<path class="st7" d="M441.2,727.3c0,0,0,2.2,0.1,2.2s9.4,0.8,9.1-0.9c-0.2-1.3-0.9-3-0.9-3L441.2,727.3z"/>
	</g>
	<g>
		<path class="st8" d="M407.1,596.9c0,0-12.2,45.4-16.8,56c-4.3,9.7-5.7,23.3-6.3,30.2c-0.7,8.6-5.2,42.1-5.7,44.6
			s14.3,1.4,14.3,1.4s10.2-57.9,14.5-66.4c2.8-5.6,19.3-46.1,21.2-43.8s4.2,42.8,5.6,49.6c1.4,6.7,5.7,59.9,5.7,59.9
			s9.6,1.4,12.1-0.7c0,0,1.2-45.4,0.3-58c-0.3-4.8,5.8-57.6-2.1-78.9C445.8,579.5,407.1,596.9,407.1,596.9z"/>
	</g>
	<g>
		<path class="st9" d="M475,564.3c0,0.5-1,2.6-2.6,5.6c-2.4-4.6-4.2-8.3-4.8-9.7c-2-4.6-12.2-15-12.2-15l0,0l0,0l0,0l0,0v0.1
			c0,0,0,0,0,0.1l0,0c-0.6,2-4,14.6-4.1,20.8c-0.1,6.8-2,19.3-2,19.3l0,0l-2.1,0.3l-4.7,0.6l-0.6,0.1l-1.4,0.2l-12.5,1.7l-4.4,0.6
			l-0.6,0.1l-2.5,0.3l-7,1l-1.8,0.2l0,0l-1.3,0.2l-1.9,0.3l0,0c-0.1-0.1-1.8-2.4-1.5-7.6c0.2-3.3,0.6-9.6,0.4-15.5v-0.1
			c0-0.1,0-0.1,0-0.2c0,0,0,0,0-0.1l0,0c-0.1-3.2-0.4-6.2-1-8.5c-0.4-1.6-0.7-3.1-0.9-4.6c0-0.1,0-0.1,0-0.2c0-0.3-0.1-0.5-0.1-0.8
			c-0.4-4-0.1-7.1-0.1-7.3l0,0c-0.1,0.3-1,3.5-2.2,7.6c-2,6.8-4.9,15.8-6.1,16.2c-1.8,0.6-30.2,8.8-36.3,9.7c-0.7,0.1-1.1,0.1-1.2,0
			c0-0.1-0.1-0.2-0.1-0.3c-0.7-2.4-1.8-6.5-1.9-7.1c0-0.1,0-0.1,0-0.1l1.1-0.3l31-9l14.1-39.7c0.3-0.2,3.8-1.9,6.3-3
			c2.6-1.2,5.7-3,8.5-4.5c1.4-0.8,2.8-1.5,4-2l0.2-0.1l0,0c1.9-0.9,3.2-1.4,3.2-1.4l0,0c0,0,0.4,0,0.8-0.1c2.7-0.3,11.2-1,14-1.2
			c0.2,0,0.4,0,0.6,0c0.1,0,0.2,0,0.3,0c0.4,0,2.1,0.6,4.4,1.5l0,0c0.1,0,0.2,0.1,0.3,0.1s0.2,0.1,0.3,0.1c0.2,0.1,0.4,0.1,0.6,0.2
			c0.4,0.2,0.8,0.3,1.3,0.5c0.1,0.1,0.3,0.1,0.4,0.2c4.6,1.8,9.8,4,11.1,4.8c0.8,0.6,3.4,5.3,6.4,11.1c3.8,11.9,8.7,30.2,8.8,34.7
			C475,564.2,475,564.2,475,564.3z"/>
	</g>
	<g>
		<path class="st10" d="M408.4,591.1c0,0-0.9,1.1-1.2,5.7c0,0,38.7-4.4,42.8-6.1c0,0,0.2-5.1-0.7-5.2
			C448.3,585.4,408.4,591.1,408.4,591.1z"/>
	</g>
	<g>
		<path class="st5" d="M441.4,509.6c-0.1,5.9-11.9,9.2-11.9,9.2s-4.9-6-3.7-6.6c0.5-0.2,0.6-1.1,0.7-2.1c0.1-1,0-2-0.1-2.7
			c0-0.4-0.1-0.7-0.1-0.7s1.7-1.7,3.8-3.8c3.7-3.6,8.9-8.2,8.9-6.4c0,0.1,0,0.2,0,0.3C438.1,501,441.4,509.6,441.4,509.6z"/>
	</g>
	<g>
		<path class="st6" d="M440.4,586.5c0,0,0.8,5.2,0.9,6.5l1.8-0.3c0,0-0.5-5.5-0.8-6.4L440.4,586.5z"/>
	</g>
	<g>
		<path class="st6" d="M411.6,590.5c0,0-0.7,4.7-0.7,6.5l1.9-0.2c0,0,0.4-5.9,0.6-6.5L411.6,590.5z"/>
	</g>
	<g>
		<path class="st11" d="M436.9,500.9L436.9,500.9c0,0-0.5,0.8-1.4,1.8c-1.8,2.2-5.2,5.8-9,7.3c0.1-1,0-2-0.1-2.7
			c-0.4,0-0.8-0.1-1.2-0.1c1-1.8,2.6-3.6,2.6-3.6l2.4-0.7L436.9,500.9z"/>
	</g>
	<g>
		<path class="st5" d="M439.1,496.6c-1,2.2-2,3.7-2.3,4.3l0,0c-0.2,0.4-0.7,1.1-1.4,1.8c-1.9,2-5.5,4.7-9.1,4.6
			c-0.4,0-0.8-0.1-1.2-0.1c-1.4-0.3-3.1-1-4.1-2.7c-7.3-14-2-25.4-2-25.4s20.1-5.5,23.2,0.4C444.6,483.5,441.5,491.5,439.1,496.6z"
			/>
	</g>
	<g>
		<path class="st12" d="M419.2,479c0,0-1.9-0.1-2.3-3.5c-0.5-3.4,0.5-4.3,0.5-4.3s8.3-3.4,11.3-3.8s10.3-0.9,12,1
			c0,0,4.2-0.9,5.3,5.8c1.8,10.7-6.1,21.1-6.1,21.1s0.1-7-1.5-7.9s-2.9,1.3-2.9,1.3l-3.2,0.6c0,0,4.9-10.3-1-10.7
			C425.2,478.1,422.5,479.6,419.2,479z"/>
	</g>
	<g>
		<path class="st5" d="M435.4,485.8c0.3-3.1,6-4.3,5.6-1c-0.4,3.2-3.2,6.3-4.5,6.2C435.2,490.9,435.1,488.2,435.4,485.8z"/>
	</g>
	<g>
		<path class="st13" d="M475,564.3c0-0.1,0-0.1,0-0.2c-0.1-4.5-2.4-22.5-6.2-34.5c-1.9-5.8-3.5-10.4-4.2-10.9
			c-1.2-0.9-11.2-3.5-15.9-5.3c-0.2-0.1-0.3-0.1-0.4-0.2c-0.4-0.2-0.8-0.3-1.3-0.5c-0.2-0.1-0.4-0.2-0.6-0.2c-0.1,0-0.2-0.1-0.3-0.1
			s-0.2-0.1-0.3-0.1l0,0c-0.4,0.5-2.6,2.9-5.2,6.5c-4.9,6.7-11.2,17.6-10.2,27.7c0.3,3.2,0.7,7.9,1.3,13.1c0.1,0.4,0.1,0.9,0.2,1.3
			c0.2,1.2,0.3,2.4,0.5,3.7c0.1,0.7,0.2,1.5,0.4,2.2c1.3,7.8,5.3,13.1,8.9,19.5c0,0.1,0.1,0.1,0.1,0.2c0,0,0,0.1,0.1,0.1
			c0.1,0.1,0.2,0.3,0.2,0.4c0.1,0.2,0.2,0.4,0.4,0.7c0.1,0.1,0.1,0.3,0.2,0.4c0.7,1.3,1.4,2.6,2,3.9c0.4,0.8,0.8,1.7,1.2,2.5
			c0,0.1,0.1,0.2,0.1,0.3c0,0,0.7,1.5,1.5,3.4c0.3,0.7,0.6,1.5,1,2.2c0.2,0.5,0.5,1.1,0.7,1.6c0.2,0.4,0.4,0.9,0.6,1.3
			c0.4,0.9,0.8,1.7,1,2.3c0.2,0.4,0.3,0.7,0.3,0.8c1.2,3,2.1,5.3,2.5,6.4c0.2,0.4,0.3,0.7,0.3,0.7l12.4-6.7c2.4-1.1,1.1-7.3,0.2-9.7
			c-0.7-2-1.8-4.2-2.9-6.4c-0.5-0.9-1-1.8-1.5-2.8c3.9-6.6,7.8-13.4,10.3-18C474,566.9,475,564.8,475,564.3z M455.3,545.4
			L455.3,545.4C455.3,545.4,455.3,545.3,455.3,545.4c0-0.1,0-0.2,0.1-0.2l0,0l0,0l0,0c0,0,6,9.2,5.6,17.1c-0.1,1.2-1.3,4.4-3.2,8.4
			l0,0c-0.7,1.5-1.4,3-2.2,4.7c0-0.1-0.1-0.1-0.1-0.2c-1.2-2.7-1.9-5.3-1.9-7.6C453.6,567.6,454.1,550.2,455.3,545.4z"/>
	</g>
	<g>
		<path class="st13" d="M422.4,513.8c0,0-1.7,5.4-3.8,18.8l0,0c-0.1,0.5-0.1,0.9-0.2,1.4c0,0.1,0,0.1,0,0.2c0,0.3-0.1,0.6-0.1,0.9
			v0.1c0,0.2-0.1,0.4-0.1,0.6c-0.1,0.5-0.2,1.1-0.2,1.6c-1,6.5-2.3,17.6-3.6,28.8l0,0c-1,8.8-3.3,17.9-4.1,24.7l0,0
			c-0.1,1.3-0.5,3.1-1,5.1c-0.1,0.2-0.1,0.5-0.2,0.7c-2.1,8.5-6.1,20.6-6.1,20.6l-1.2-1.1l-3.5-3.1c-0.8-0.7-1.1-1.8-0.8-2.8
			c1.9-6.1,8.5-27.5,9.7-42.5l0,0c-0.3-4.9-1.9-10.4-1.9-13.4v0.1c-0.7,1.9-1.5,3.9-2.2,5.9l0,0c-2.1,5.3-4.2,10.2-5.1,10.5
			c-2,0.7-37.2,10.8-37.4,9.4c0-0.1-0.1-0.3-0.1-0.5s-0.1-0.3-0.1-0.5c-0.4-1.9-1.2-4.7-1.8-6.6c-0.1-0.3-0.2-0.5-0.2-0.8
			c-0.2-0.8-0.4-1.3-0.4-1.3l29.8-9.5l15-38.3c0.3-0.2,4.1-2.2,6.7-3.4c2.6-1.2,6-2.7,9-4.1C419.9,514.8,421.2,514.2,422.4,513.8
			L422.4,513.8z"/>
	</g>
	<g>
		<path class="st14" d="M442.6,527l-5.7,3.1l2.4,2.4l-6.5,34.2c-1.3-8-1.9-15.6-2.4-20.3c-1.5-15.6,14.5-33.1,15.4-34.2
			c0.8,0.3,1.6,0.6,2.4,0.9L442.6,527z"/>
	</g>
	<g>
		<path class="st14" d="M422.5,513.6c0,0-2.1,6.8-4.6,23.8c-1,6.5-2.3,17.6-3.6,28.8l-1.3-32.1l2.7-2.9l-2.4-3l5.2-12.9
			C419.9,514.7,421.3,514.1,422.5,513.6L422.5,513.6z"/>
	</g>
	<g>
		<path class="st15" d="M446.1,512.4l-4.7-2.8c0,0-0.1,2.5-11.9,9.2l3.3,9.2L446.1,512.4z"/>
	</g>
	<g>
		<path class="st15" d="M426.4,510.9c0,0,0.2,2.7,3.1,7.9l-6.5,8.3l-0.5-13.4L426.4,510.9z"/>
	</g>
	<g>
		<path class="st16" d="M429.5,518.7c0,0,1.3,4.9,0.8,6.3c0,0-2.8,1-4.8-0.2C425.6,524.8,427,521.4,429.5,518.7z"/>
	</g>
	<g>
		<g>
			<path class="st17" d="M423,589.7c-0.7-3.5,0-13.9,0-14.3h0.6c0,0.1-0.7,10.8,0,14.2L423,589.7z"/>
		</g>
	</g>
	<g>
		<path class="st18" d="M427.9,588.1c0,0-5.7,0.7-7.6,1.1l0.2,6.2l7.5-0.8L427.9,588.1z"/>
	</g>
	<g>
		<path class="st16" d="M426.7,524.4c0,0-6.4,15.6-5.3,33.1c1.1,18.1,2.8,24.7,2.8,24.7l3.9,4.8l1.7-5.9c0,0-5.3-23.1-1.9-45.6
			c0.6-4.1,1.5-11.8,1.5-11.8L426.7,524.4z"/>
	</g>
	<g>
		<path class="st5" d="M445.8,598.2c0,0-1.4,2.7-2.7,3.1c-1.4,0.4-3.4,2.6-3.4,2.6l9.6,4.9c0,0,2.6-4.9,2.7-8
			S445.8,598.2,445.8,598.2z"/>
	</g>
	<g>
		<path class="st9" d="M444.9,598.4l-0.6,1.2c0,0,6.1,4.3,7.7,4.6l0.6-1.7L444.9,598.4z"/>
	</g>
	<g>
		<path class="st13" d="M444.2,598.5c0,0,4.6,3.7,8.4,5.4l13-22.7l-6.7-12.6C458.9,568.5,444.5,596.2,444.2,598.5z"/>
	</g>
	<g>
		<path class="st19" d="M405.5,546.4c-0.2,4.2-0.2,7.9-0.2,7.9l0,0c0,0,0,0.1,0,0.3c0-0.1,0-0.1,0-0.2c-0.7,1.9-1.5,3.9-2.2,5.9
			c-0.2-2.3-0.2-4.4-0.2-6.4c0.3-11.8,4.1-17.9,4.1-17.9C406.2,538,405.7,542.4,405.5,546.4z"/>
	</g>
	<g>
		<path class="st19" d="M463.6,590.7l-10.4,12.2l8.9-15C462.6,588.8,463.1,589.8,463.6,590.7z"/>
	</g>
</g>
<g>
	<g>
		<g>
			<g>
				<path class="st20" d="M264.1,571.7c0,0,3.2,3,4.3,2.9c1.1-0.2,2.8,0.6,3.8,0.7c1,0.1,3.8-0.8,4.8-0.3c0.4,0.2,2.5,2.2,3.4,2.5
					s2.7,0.6,2.5,1.3s-2,0.9-2,0.9s0.8,0.3,0.8,1c0,1.4-0.8,1.7-0.8,1.7s0.6,0.8,0.5,1.4c-0.3,1.2-1.1,1.6-1.1,1.6s0.2,0.7-0.2,1.5
					c-0.5,1-1.7,1-1.7,1s-0.4,1.4-1.2,1.5s-1.5-0.3-2.1-0.4c-0.7-0.1-6.1-2.9-9-6.3c-2.9-3.4-6.6-5.7-6.6-5.7L264.1,571.7z"/>
			</g>
		</g>
	</g>
	<g>
		<path class="st16" d="M237.2,514.8c0,0,0.2,4.5,2.8,9.4c2.6,5,2.6,11.9,3,14.3c0.4,2.4,7.2,25.1,7.8,25.7c0.6,0.6,2.7,1.5,6.8,8.4
			c4.2,6.9,12.9,13.2,12.9,13.2l-7.2,6.9c0,0-19.4-13.1-22.3-20.5c-3.1-7.9-10-30.7-10-30.7S223.9,518.8,237.2,514.8z"/>
	</g>
	<g>
		<polygon class="st4" points="235.2,586.8 263.7,538.7 293,555.2 264.5,603.2 		"/>
		<path d="M263.9,539.4l28.4,15.9l-28,47.2l-28.4-15.9L263.9,539.4 M263.6,538.1l-29,48.9l30.1,16.9l29-48.9L263.6,538.1
			L263.6,538.1z"/>
	</g>
	<path class="st21" d="M239.2,722.7c0,0,2.2,5.1,3.9,6.6s9.4,11.1,12,11.6s7.9,0.8,8.1,1.9c0.2,1.1,0.3,6.4-7.1,6.5
		c-7.5,0.2-9.5,0-11.3-1.7c-1.8-1.8-9-6.9-10.9-6.9l0.2,9.1h-2c0,0-2.1-11.3-3.7-13.4c-1.6-2.2-0.2-10.2,3.6-13.6
		C235.7,719.5,239.2,722.7,239.2,722.7z"/>
	<path class="st22" d="M255.1,740.8c0,0-8.3,1.1-11.8-1.6c-3.5-2.7-8-9.3-15-9.4c0,0-2.5,3.1,1.6,10.3c0,0,1.7,7.7,2.2,9.6h2
		l-0.2-9.1c0,0,7.1,3,11.9,8.3c0,0,14.4,2.2,17.1-2.1c0,0,1.5-2.2,0.8-4.3S255.1,740.8,255.1,740.8z"/>
	<path class="st21" d="M223.4,589.5c0,0-8.8,10.4,2.2,28.9c0,0,0.9,9.5,1.1,13c0.2,3.6,2.5,16.8,1.3,23.3
		c-1.3,6.5-5.4,16.1-3.8,25.4c1.5,9.3,8.6,36,7.2,42.8l7.8-0.2c0,0,2.8-56.6,3.6-58.6c0.9-2,4.3-6.3,3.9-15.1
		c-0.4-8.8,8.8-44.8,8.8-54.8C255.5,584.3,223.4,589.5,223.4,589.5z"/>
	<path class="st5" d="M234.2,722.9c0,0,2.1,5.2,3.7,6.7c1.7,1.5,9.1,11.3,11.7,11.8c2.6,0.5,7.9,1,8.1,2.1c0.2,1.1,0.2,6.4-7.3,6.4
		s-9.5-0.2-11.2-2c-1.8-1.8-8.8-7.1-10.8-7.1v9.1h-2c0,0-1.9-11.3-3.4-13.5s0.1-10.2,3.9-13.5S234.2,722.9,234.2,722.9z"/>
	<path class="st23" d="M249.7,741.4c0,0-8.3,0.9-11.8-1.8s-7.7-9.4-14.8-9.7c0,0-2.6,3.1,1.4,10.4c0,0,1.4,7.2,2,9.7h2v-9.1
		c0,0,7,3.2,11.7,8.6c0,0,14.3,2.6,17.1-1.7c0,0,1.5-2.1,0.9-4.3C257.6,741.1,249.7,741.4,249.7,741.4z"/>
	<path class="st5" d="M221.7,589.4c0,0-9,10.2,1.5,28.9c0,0,0.7,9.5,0.8,13c0.1,3.6,2.1,16.9,0.7,23.3c-1.4,6.4-5.8,16-4.5,25.3
		s8.3,36.1,6.7,42.9l7.3,0.1c0,0,4.2-56.5,5.1-58.5c0.9-2,4.5-6.2,4.3-15s12.5-42.5,12.7-52.5C256.5,587,221.7,589.4,221.7,589.4z"
		/>
	<path class="st24" d="M256.3,599.6c0,0-10.1,56.3-7.8,64.4c0,0-17-1.5-30.4-6.6c0,0,6.7-22,4.4-33.7s-7.4-18.1-4-29.9
		C221.9,582.1,256.3,599.6,256.3,599.6z"/>
	<g>
		<g>
			<g>
				<path class="st5" d="M306,572c0,0,3.2,0.9,4.5-0.5c1.1-1.2,3.3-2,4-2.3c0.9-0.3,3.4-2.4,3.9-1.3c0.4,1.1-3.9,3.6-4.7,4.3
					s4,1.4,4.7,2.2c0.8,0.8-0.9,8.4-4.1,7.5c-3.2-0.9-6-3.9-6.6-3.9s-2.4-0.5-2.4-0.5L306,572z"/>
			</g>
		</g>
	</g>
	<g>
		<g>
			<g>
				<path class="st5" d="M317.7,574.1c0,0,9.6,3.3,10.1,4s0.2,1.2-0.7,1c-0.9-0.3-9.4-2.9-9.4-2.9s10.7,5.8,11.2,6.3
					c0.3,0.3-0.1,1.3-0.6,1.2s-11.5-5.2-11.5-5.2s10,5.4,10.3,6c0.3,0.5-0.3,1.3-1.1,1s-10.4-4.8-10.4-4.8s7,4.4,7,5
					c0,0.4-0.3,1.2-2.1,0.1c-1.8-1.2-6.3-3.5-6.3-3.5L317.7,574.1z"/>
			</g>
		</g>
	</g>
	<path class="st5" d="M249.4,474.2c4.6-0.1,14.6,2.4,15.8,14.2c0,0-0.5,3.2-1.3,5.6c-0.9,2.5,1.2,9.9,0.6,10.2
		c-0.6,0.3-3.1,0.7-3.1,0.7s-2.9,8-5.8,7.8c-2.9-0.1-13.8-2.7-18.7-12.8C232.1,489.9,231,474.6,249.4,474.2z"/>
	<path class="st12" d="M265.2,488.4c0,0-7.5,4.7-14.9,5.5s-12.3,8-12.3,8s-10.8-14-1.5-24.8C245.9,466.4,267.2,474.7,265.2,488.4z"
		/>
	<path class="st16" d="M240.2,512.8c0,0,8.1,7.5,11.2,10.9c3,3.4,13,15.5,13.9,19.2s-2.7,8.9-5.2,11.5c-2.3,2.3-0.4,7.7-0.7,10.8
		s-1.9,31.5-3,34.6s-28.8,4.2-38.6-6.1c0,0,10.4-18.1,13.4-21.5c3-3.5-2.3-25.6-4.2-30.8C225.1,535.9,228.6,512.6,240.2,512.8z"/>
	<path class="st5" d="M239.4,512.8c0.7-3.7,0-8.9,0-8.9s13.7,6.2,11.4,7.9c-0.6,0.4-1,1.3-1.3,2.3c-0.8,2.9-0.6,7-0.6,7l4.6,5.3
		C257.3,531.7,239,514.6,239.4,512.8z"/>
	<path class="st5" d="M247.3,493.5c0-1.4-1.5-3.5-3.9-1.7s0.6,8.5,2.5,7.9S247.3,494.9,247.3,493.5z"/>
	<path class="st11" d="M250.7,511.7c-0.6,0.4-1.1,1.6-1.4,2.6c-5.3-3.1-7.9-8.1-7.9-8.2C244.2,509.6,250.7,511.7,250.7,511.7z"/>
	<g>
		<path class="st16" d="M230.4,521.4c0,0,6.8-5.2,11.5-1.7s5.6,7,7.1,9.1c1.4,2.1,18.3,20.5,19.2,20.8c0.8,0.3,14.9,8,22.5,11.7
			c7.5,3.7,18.7,10.4,18.7,10.4l-3.5,6.8c0,0-37.5-15.1-44.4-20c-6.7-4.8-26.4-20.2-26.4-20.2S222.8,532.5,230.4,521.4z"/>
	</g>
	<g>
		<g>
			<path class="st21" d="M280.5,579.1c0,0-4.7-2.3-6.3-1.6s0,1.6,0,1.6s-1.6-0.9-2.5,0.2c-0.9,1.1,1.1,2.1,1.1,2.1s-1.4-0.4-1.8,1
				c-0.4,1.4,1.4,1.9,1.4,1.9s-2.3,0.5-1.1,2c1.9,2.6,5.6,2.8,5.6,2.8s1,0,1.3-1.5c0,0,2.3,0,2-2.5c0,0,2.2-1.4,0.7-2.9
				C281,582.3,283.1,580.5,280.5,579.1z"/>
		</g>
	</g>
	<path class="st12" d="M249.1,494.1c0,0-4.2,18,1.6,21.5c0,0-12.5-3.3-18.2-10.3c0,0-6.3-29.2,13.2-32.5
		C265.1,469.6,249.1,494.1,249.1,494.1z"/>
</g>
<linearGradient id="SVGID_8_" gradientUnits="userSpaceOnUse" x1="385.4242" y1="487.0365" x2="606.8242" y2="487.0365" gradientTransform="matrix(1 0 0 -1 0 771.673)">
	<stop  offset="5.208330e-03" style="stop-color:#571911"/>
	<stop  offset="1" style="stop-color:#F24584"/>
</linearGradient>
<ellipse class="st25" cx="496.1" cy="284.6" rx="110.7" ry="107.8"/>
<g>
	
		<rect x="523.1" y="637.7" transform="matrix(-1 -1.224647e-16 1.224647e-16 -1 1075.4182 1277.3966)" class="st26" width="29.3" height="2"/>
	
		<rect x="523.1" y="641.5" transform="matrix(-1 -1.224647e-16 1.224647e-16 -1 1075.4182 1291.3407)" class="st26" width="29.3" height="8.4"/>
	
		<rect x="557.2" y="626.9" transform="matrix(-1 -1.224647e-16 1.224647e-16 -1 1115.6304 1277.3969)" class="st26" width="1.3" height="23.6"/>
</g>
<g>
	<polygon class="st26" points="159.3,330.4 176.5,330.4 171.2,323.2 154,323.2 	"/>
	<polygon class="st26" points="151.2,330.4 155.3,330.4 150,323.2 145.9,323.2 	"/>
</g>
</svg>
