<?xml version="1.0" encoding="utf-8"?>
<!-- Generator: Adobe Illustrator 22.0.0, SVG Export Plug-In . SVG Version: 6.00 Build 0)  -->
<svg version="1.0" id="Layer_1" xmlns="http://www.w3.org/2000/svg" xmlns:xlink="http://www.w3.org/1999/xlink" x="0px" y="0px"
	 viewBox="0 0 1366 768" style="enable-background:new 0 0 1366 768;" xml:space="preserve">
<style type="text/css">
	.st0{filter:url(#Adobe_OpacityMaskFilter);}
	.st1{filter:url(#Adobe_OpacityMaskFilter_1_);}
	.st2{mask:url(#SVGID_1_);fill:url(#SVGID_2_);}
	.st3{fill:#3E3D4D;}
	.st4{opacity:0.72;fill:url(#SVGID_3_);}
	.st5{fill:#FFFFFF;}
	.st6{fill:#EEA886;}
	.st7{fill:#353A3D;}
	.st8{fill:#81807E;}
	.st9{fill:#2D3133;}
	.st10{fill:#DECBC4;}
	.st11{fill:#495055;}
	.st12{fill:#A77860;}
	.st13{fill:#0E2D3D;}
	.st14{fill:#67ADE0;}
	.st15{fill:#2A74A8;}
	.st16{fill:#F5E2D9;}
	.st17{fill:#1D3B54;}
	.st18{fill:#AD9F99;}
	.st19{fill:#69737A;}
	.st20{fill:#1F557A;}
	.st21{fill:#EEA987;}
	.st22{fill:#DB9C7C;}
	.st23{fill:#234663;}
	.st24{fill:#285173;}
	.st25{fill:#14293B;}
	.st26{opacity:0.72;fill:url(#SVGID_4_);}
</style>
<defs>
	<filter id="Adobe_OpacityMaskFilter" filterUnits="userSpaceOnUse" x="526" y="0.3" width="319" height="540.7">
		<feFlood  style="flood-color:white;flood-opacity:1" result="back"/>
		<feBlend  in="SourceGraphic" in2="back" mode="normal"/>
	</filter>
</defs>
<mask maskUnits="userSpaceOnUse" x="526" y="0.3" width="319" height="540.7" id="SVGID_1_">
	<g class="st0">
		<defs>
			<filter id="Adobe_OpacityMaskFilter_1_" filterUnits="userSpaceOnUse" x="526" y="0.3" width="319" height="540.7">
				<feFlood  style="flood-color:white;flood-opacity:1" result="back"/>
				<feBlend  in="SourceGraphic" in2="back" mode="normal"/>
			</filter>
		</defs>
		<mask maskUnits="userSpaceOnUse" x="526" y="0.3" width="319" height="540.7" id="SVGID_1_">
			<g class="st1">
			</g>
		</mask>
		<linearGradient id="SVGID_2_" gradientUnits="userSpaceOnUse" x1="685.5" y1="521.381" x2="685.5" y2="151.4191">
			<stop  offset="0" style="stop-color:#000000"/>
			<stop  offset="1" style="stop-color:#FFFFFF"/>
		</linearGradient>
		<polygon class="st2" points="668.9,0.3 526,541 688.3,541 845,541 707.7,0.3 		"/>
	</g>
</mask>
<polygon class="st3" points="668.9,0.3 526,541 688.3,541 845,541 707.7,0.3 "/>
<linearGradient id="SVGID_3_" gradientUnits="userSpaceOnUse" x1="499.6374" y1="625.3635" x2="622.9627" y2="625.3635">
	<stop  offset="5.208330e-03" style="stop-color:#571911"/>
	<stop  offset="1" style="stop-color:#F24584"/>
</linearGradient>
<ellipse class="st4" cx="561.3" cy="625.4" rx="61.7" ry="60"/>
<g>
	<g>
		<path class="st5" d="M911.8,243.7c-63-60.4-146.8-93.8-235.9-93.9c-89.2-0.1-173,33.1-236.1,93.3c-63.1,60.3-97.9,140.5-98,225.9
			c-0.1,85.4,34.5,165.7,97.5,226.1c24.1,23.2,51.4,42.4,80.8,57.2l8.1,0c-108.5-52-183-159.5-182.9-283.3
			c0.2-174.4,148.5-316.1,330.6-315.9c182.1,0.2,330.1,142.2,329.9,316.6c-0.1,123.8-75,231.2-183.5,282.9l8.1,0
			c29.4-14.8,56.7-33.9,80.9-57.1c63.1-60.3,97.9-140.5,98-225.9C1009.4,384.5,974.8,304.2,911.8,243.7z"/>
	</g>
</g>
<g>
	<path class="st5" d="M473,767.5c18.1-31.9,98-55,190.8-55c92.8,0,172.7,23.1,190.8,55H473z"/>
	<path d="M663.8,713c45.6,0,90,5.7,124.9,16c33.2,9.8,56.2,23.3,65.1,38H473.9c8.9-14.7,31.9-28.2,65.1-38
		C573.8,718.7,618.2,713,663.8,713 M663.8,712c-95.3,0-174.6,24.1-191.6,56h383.3C838.3,736.1,759,712,663.8,712L663.8,712z"/>
</g>
<g>
	<g>
		<path class="st6" d="M699.3,571.2c0,0-3.7,0-5-1.4c-1.3-1.4-3.6-2.6-4.4-3c-1-0.5-3.7-3.1-4.1-1.8c-0.3,1.3,4.4,4.5,5.3,5.3
			c0.9,0.9-3.9,1.2-4.6,2.1c-0.7,0.8,1.7,9.7,4.9,9c3.2-0.7,5.8-3.8,6.4-3.8c0.6,0,2.4-0.4,2.4-0.4L699.3,571.2z"/>
	</g>
	<g>
		<path class="st6" d="M687.2,572c0,0-9.5,2.8-9.9,3.6c-0.4,0.8-0.1,1.4,0.8,1.2c0.9-0.2,9.3-2.4,9.3-2.4s-10.4,5.6-10.9,6.1
			c-0.3,0.3,0.2,1.5,0.7,1.4c0.5-0.1,11.2-4.9,11.2-4.9s-9.7,5.2-10,5.8c-0.2,0.5,0.4,1.5,1.2,1.2c0.8-0.3,10.1-4.5,10.1-4.5
			s-6.8,4.3-6.7,5c0.1,0.4,0.4,1.5,2.1,0.3c1.7-1.2,6.1-3.5,6.1-3.5L687.2,572z"/>
	</g>
	<g>
		<path class="st7" d="M719.4,728c0,0-3.1,4.5-7.4,5.4c-4.3,1-8.5,2.5-8.6,5.1c0,2.6,12.4,4.2,17.3,1.6c7.3-4,8.1-2.8,8.9-4.8
			c0.8-2-1-7.3-0.9-7.9C728.9,726.6,719.4,728,719.4,728z"/>
	</g>
	<g>
		<path class="st8" d="M719.9,725.8c0,0-0.6,2.2-0.5,2.2c0.1,0,9.7,1.2,9.4-0.6c-0.2-1.4-0.6-2.9-0.6-2.9L719.9,725.8z"/>
	</g>
	<g>
		<path class="st7" d="M779.7,727.7c0,0-2.2,4.3-5.9,5.7c-4,1.6-7.2,3.3-7.1,5.9c0.1,2.6,9.8,5.2,16.8,0.2c4.4-3.1,5.9-3.1,6.6-5.1
			c0.7-2-1.2-7.1-1.2-7.7C788.8,726,779.7,727.7,779.7,727.7z"/>
	</g>
	<g>
		<path class="st8" d="M779.6,725.5c0,0,0,2.2,0.1,2.2c0.1,0,9.4,0.8,9.1-0.9c-0.2-1.3-0.9-3-0.9-3L779.6,725.5z"/>
	</g>
	<g>
		<path class="st9" d="M745.5,595.1c0,0-12.2,45.4-16.8,56c-4.3,9.7-5.7,23.3-6.3,30.2c-0.7,8.6-5.2,42.1-5.7,44.6
			c-0.5,2.5,14.3,1.4,14.3,1.4s10.2-57.9,14.5-66.4c2.8-5.6,19.3-46.1,21.2-43.8c1.9,2.3,4.2,42.8,5.6,49.6
			c1.4,6.7,5.7,59.9,5.7,59.9s9.6,1.4,12.1-0.7c0,0,1.2-45.4,0.3-58c-0.3-4.8,5.8-57.6-2.1-78.9
			C784.2,577.7,745.5,595.1,745.5,595.1z"/>
	</g>
	<g>
		<path class="st10" d="M813.4,562.5c0,0.5-1,2.6-2.6,5.6c-2.4-4.6-4.2-8.3-4.8-9.7c-2-4.6-12.2-15-12.2-15s0,0,0,0c0,0,0,0,0,0
			c0,0,0,0,0,0c0,0,0,0,0,0c0,0,0,0.1,0,0.1c0,0,0,0,0,0.1c0,0,0,0,0,0c-0.6,2-4,14.6-4.1,20.8c-0.1,6.8-2,19.3-2,19.3l0,0l-2.1,0.3
			l-4.7,0.6l-0.6,0.1l-1.4,0.2l-12.5,1.7l-4.4,0.6l-0.6,0.1l-2.5,0.3l-7,1l-1.8,0.2l0,0l-1.3,0.2l-1.9,0.3c0,0,0,0,0,0
			c-0.1-0.1-1.8-2.4-1.5-7.6c0.2-3.3,0.6-9.6,0.4-15.5c0,0,0-0.1,0-0.1c0-0.1,0-0.1,0-0.2c0,0,0,0,0-0.1v0c-0.1-3.2-0.4-6.2-1-8.5
			c-0.4-1.6-0.7-3.1-0.9-4.6c0-0.1,0-0.1,0-0.2c0-0.3-0.1-0.5-0.1-0.8c-0.4-4-0.1-7.1-0.1-7.3l0,0c-0.1,0.3-1,3.5-2.2,7.6
			c-2,6.8-4.9,15.8-6.1,16.2c-1.8,0.6-30.2,8.8-36.3,9.7c-0.7,0.1-1.1,0.1-1.2,0c0-0.1-0.1-0.2-0.1-0.3c-0.7-2.4-1.8-6.5-1.9-7.1
			c0-0.1,0-0.1,0-0.1l1.1-0.3l31-9l14.1-39.7c0.3-0.2,3.8-1.9,6.3-3c2.6-1.2,5.7-3,8.5-4.5c1.4-0.8,2.8-1.5,4-2l0.2-0.1l0,0
			c1.9-0.9,3.2-1.4,3.2-1.4s0,0,0,0c0,0,0.4,0,0.8-0.1c2.7-0.3,11.2-1,14-1.2c0.2,0,0.4,0,0.6,0c0.1,0,0.2,0,0.3,0
			c0.4,0,2.1,0.6,4.4,1.5h0c0.1,0,0.2,0.1,0.3,0.1c0.1,0,0.2,0.1,0.3,0.1c0.2,0.1,0.4,0.1,0.6,0.2c0.4,0.2,0.8,0.3,1.3,0.5
			c0.1,0.1,0.3,0.1,0.4,0.2c4.6,1.8,9.8,4,11.1,4.8c0.8,0.6,3.4,5.3,6.4,11.1c3.8,11.9,8.7,30.2,8.8,34.7
			C813.4,562.4,813.4,562.4,813.4,562.5z"/>
	</g>
	<g>
		<path class="st11" d="M746.8,589.3c0,0-0.9,1.1-1.2,5.7c0,0,38.7-4.4,42.8-6.1c0,0,0.2-5.1-0.7-5.2
			C786.7,583.6,746.8,589.3,746.8,589.3z"/>
	</g>
	<g>
		<path class="st6" d="M779.8,507.8c-0.1,5.9-11.9,9.2-11.9,9.2s-4.9-6-3.7-6.6c0.5-0.2,0.6-1.1,0.7-2.1c0.1-1,0-2-0.1-2.7
			c0-0.4-0.1-0.7-0.1-0.7s1.7-1.7,3.8-3.8c3.7-3.6,8.9-8.2,8.9-6.4c0,0.1,0,0.2,0,0.3C776.5,499.2,779.8,507.8,779.8,507.8z"/>
	</g>
	<g>
		<path class="st7" d="M778.8,584.7c0,0,0.8,5.2,0.9,6.5l1.8-0.3c0,0-0.5-5.5-0.8-6.4L778.8,584.7z"/>
	</g>
	<g>
		<path class="st7" d="M750,588.7c0,0-0.7,4.7-0.7,6.5l1.9-0.2c0,0,0.4-5.9,0.6-6.5L750,588.7z"/>
	</g>
	<g>
		<path class="st12" d="M775.3,499.1C775.3,499.1,775.3,499.1,775.3,499.1c0,0-0.5,0.8-1.4,1.8c-1.8,2.2-5.2,5.8-9,7.3
			c0.1-1,0-2-0.1-2.7c-0.4,0-0.8-0.1-1.2-0.1c1-1.8,2.6-3.6,2.6-3.6l2.4-0.7L775.3,499.1z"/>
	</g>
	<g>
		<path class="st6" d="M777.5,494.8c-1,2.2-2,3.7-2.3,4.3c0,0,0,0,0,0c-0.2,0.4-0.7,1.1-1.4,1.8c-1.9,2-5.5,4.7-9.1,4.6
			c-0.4,0-0.8-0.1-1.2-0.1c-1.4-0.3-3.1-1-4.1-2.7c-7.3-14-2-25.4-2-25.4s20.1-5.5,23.2,0.4C783,481.7,779.9,489.7,777.5,494.8z"/>
	</g>
	<g>
		<path class="st13" d="M757.6,477.2c0,0-1.9-0.1-2.3-3.5c-0.5-3.4,0.5-4.3,0.5-4.3s8.3-3.4,11.3-3.8c3-0.4,10.3-0.9,12,1
			c0,0,4.2-0.9,5.3,5.8c1.8,10.7-6.1,21.1-6.1,21.1s0.1-7-1.5-7.9c-1.6-0.9-2.9,1.3-2.9,1.3l-3.2,0.6c0,0,4.9-10.3-1-10.7
			C763.6,476.3,760.9,477.8,757.6,477.2z"/>
	</g>
	<g>
		<path class="st6" d="M773.8,484c0.3-3.1,6-4.3,5.6-1c-0.4,3.2-3.2,6.3-4.5,6.2C773.6,489.1,773.5,486.4,773.8,484z"/>
	</g>
	<g>
		<path class="st14" d="M813.4,562.5c0-0.1,0-0.1,0-0.2c-0.1-4.5-2.4-22.5-6.2-34.5c-1.9-5.8-3.5-10.4-4.2-10.9
			c-1.2-0.9-11.2-3.5-15.9-5.3c-0.2-0.1-0.3-0.1-0.4-0.2c-0.4-0.2-0.8-0.3-1.3-0.5c-0.2-0.1-0.4-0.2-0.6-0.2c-0.1,0-0.2-0.1-0.3-0.1
			c-0.1,0-0.2-0.1-0.3-0.1c0,0,0,0,0,0c-0.4,0.5-2.6,2.9-5.2,6.5c-4.9,6.7-11.2,17.6-10.2,27.7c0.3,3.2,0.7,7.9,1.3,13.1
			c0.1,0.4,0.1,0.9,0.2,1.3c0.2,1.2,0.3,2.4,0.5,3.7c0.1,0.7,0.2,1.5,0.4,2.2c1.3,7.8,5.3,13.1,8.9,19.5c0,0.1,0.1,0.1,0.1,0.2
			c0,0,0,0.1,0.1,0.1c0.1,0.1,0.2,0.3,0.2,0.4c0.1,0.2,0.2,0.4,0.4,0.7c0.1,0.1,0.1,0.3,0.2,0.4c0.7,1.3,1.4,2.6,2,3.9
			c0.4,0.8,0.8,1.7,1.2,2.5c0,0.1,0.1,0.2,0.1,0.3c0,0,0.7,1.5,1.5,3.4c0.3,0.7,0.6,1.5,1,2.2c0.2,0.5,0.5,1.1,0.7,1.6
			c0.2,0.4,0.4,0.9,0.6,1.3c0.4,0.9,0.8,1.7,1,2.3c0.2,0.4,0.3,0.7,0.3,0.8c1.2,3,2.1,5.3,2.5,6.4c0.2,0.4,0.3,0.7,0.3,0.7l12.4-6.7
			c2.4-1.1,1.1-7.3,0.2-9.7c-0.7-2-1.8-4.2-2.9-6.4c-0.5-0.9-1-1.8-1.5-2.8c3.9-6.6,7.8-13.4,10.3-18
			C812.4,565.1,813.4,563,813.4,562.5z M793.7,543.6C793.7,543.6,793.7,543.6,793.7,543.6C793.7,543.6,793.7,543.5,793.7,543.6
			c0-0.1,0-0.2,0.1-0.2c0,0,0,0,0,0c0,0,0,0,0,0c0,0,0,0,0,0c0,0,6,9.2,5.6,17.1c-0.1,1.2-1.3,4.4-3.2,8.4c0,0,0,0,0,0
			c-0.7,1.5-1.4,3-2.2,4.7c0-0.1-0.1-0.1-0.1-0.2c-1.2-2.7-1.9-5.3-1.9-7.6C792,565.8,792.5,548.4,793.7,543.6z"/>
	</g>
	<g>
		<path class="st14" d="M760.8,512c0,0-1.7,5.4-3.8,18.8c0,0,0,0,0,0c-0.1,0.5-0.1,0.9-0.2,1.4c0,0.1,0,0.1,0,0.2
			c0,0.3-0.1,0.6-0.1,0.9c0,0,0,0.1,0,0.1c0,0.2-0.1,0.4-0.1,0.6c-0.1,0.5-0.2,1.1-0.2,1.6c-1,6.5-2.3,17.6-3.6,28.8v0
			c-1,8.8-3.3,17.9-4.1,24.7c0,0,0,0,0,0c-0.1,1.3-0.5,3.1-1,5.1c-0.1,0.2-0.1,0.5-0.2,0.7c-2.1,8.5-6.1,20.6-6.1,20.6l-1.2-1.1
			l-3.5-3.1c-0.8-0.7-1.1-1.8-0.8-2.8c1.9-6.1,8.5-27.5,9.7-42.5c0,0,0,0,0,0c-0.3-4.9-1.9-10.4-1.9-13.4c0,0,0,0.1,0,0.1
			c-0.7,1.9-1.5,3.9-2.2,5.9v0c-2.1,5.3-4.2,10.2-5.1,10.5c-2,0.7-37.2,10.8-37.4,9.4c0-0.1-0.1-0.3-0.1-0.5c0-0.2-0.1-0.3-0.1-0.5
			c-0.4-1.9-1.2-4.7-1.8-6.6c-0.1-0.3-0.2-0.5-0.2-0.8c-0.2-0.8-0.4-1.3-0.4-1.3l29.8-9.5l15-38.3c0.3-0.2,4.1-2.2,6.7-3.4
			c2.6-1.2,6-2.7,9-4.1C758.3,513,759.6,512.4,760.8,512L760.8,512z"/>
	</g>
	<g>
		<path class="st15" d="M781,525.2l-5.7,3.1l2.4,2.4l-6.5,34.2c-1.3-8-1.9-15.6-2.4-20.3c-1.5-15.6,14.5-33.1,15.4-34.2
			c0.8,0.3,1.6,0.6,2.4,0.9L781,525.2z"/>
	</g>
	<g>
		<path class="st15" d="M760.9,511.8c0,0-2.1,6.8-4.6,23.8c-1,6.5-2.3,17.6-3.6,28.8l-1.3-32.1l2.7-2.9l-2.4-3l5.2-12.9
			c1.4-0.6,2.8-1.2,3.9-1.7L760.9,511.8z"/>
	</g>
	<g>
		<path class="st16" d="M784.5,510.6l-4.7-2.8c0,0-0.1,2.5-11.9,9.2l3.3,9.2L784.5,510.6z"/>
	</g>
	<g>
		<path class="st16" d="M764.8,509.1c0,0,0.2,2.7,3.1,7.9l-6.5,8.3l-0.5-13.4L764.8,509.1z"/>
	</g>
	<g>
		<path class="st17" d="M767.9,516.9c0,0,1.3,4.9,0.8,6.3c0,0-2.8,1-4.8-0.2C764,523,765.4,519.6,767.9,516.9z"/>
	</g>
	<g>
		<g>
			<path class="st18" d="M761.4,587.9c-0.7-3.5,0-13.9,0-14.3l0.6,0c0,0.1-0.7,10.8,0,14.2L761.4,587.9z"/>
		</g>
	</g>
	<g>
		<path class="st19" d="M766.3,586.3c0,0-5.7,0.7-7.6,1.1l0.2,6.2l7.5-0.8L766.3,586.3z"/>
	</g>
	<g>
		<path class="st17" d="M765.1,522.6c0,0-6.4,15.6-5.3,33.1c1.1,18.1,2.8,24.7,2.8,24.7l3.9,4.8l1.7-5.9c0,0-5.3-23.1-1.9-45.6
			c0.6-4.1,1.5-11.8,1.5-11.8L765.1,522.6z"/>
	</g>
	<g>
		<path class="st6" d="M784.2,596.4c0,0-1.4,2.7-2.7,3.1c-1.4,0.4-3.4,2.6-3.4,2.6l9.6,4.9c0,0,2.6-4.9,2.7-8
			C790.5,595.9,784.2,596.4,784.2,596.4z"/>
	</g>
	<g>
		<path class="st10" d="M783.3,596.6l-0.6,1.2c0,0,6.1,4.3,7.7,4.6l0.6-1.7L783.3,596.6z"/>
	</g>
	<g>
		<path class="st14" d="M782.6,596.7c0,0,4.6,3.7,8.4,5.4l13-22.7l-6.7-12.6C797.3,566.7,782.9,594.4,782.6,596.7z"/>
	</g>
	<g>
		<path class="st20" d="M743.9,544.6c-0.2,4.2-0.2,7.9-0.2,7.9s0,0,0,0c0,0,0,0.1,0,0.3c0-0.1,0-0.1,0-0.2c-0.7,1.9-1.5,3.9-2.2,5.9
			c-0.2-2.3-0.2-4.4-0.2-6.4c0.3-11.8,4.1-17.9,4.1-17.9C744.6,536.2,744.1,540.6,743.9,544.6z"/>
	</g>
	<g>
		<path class="st20" d="M802,588.9l-10.4,12.2l8.9-15C801,587,801.5,588,802,588.9z"/>
	</g>
</g>
<g>
	<g>
		<g>
			<g>
				<path class="st21" d="M602.5,569.9c0,0,3.2,3,4.3,2.9c1.1-0.2,2.8,0.6,3.8,0.7c1,0.1,3.8-0.8,4.8-0.3c0.4,0.2,2.5,2.2,3.4,2.5
					c0.9,0.3,2.7,0.6,2.5,1.3c-0.2,0.7-2,0.9-2,0.9s0.8,0.3,0.8,1c0,1.4-0.8,1.7-0.8,1.7s0.6,0.8,0.5,1.4c-0.3,1.2-1.1,1.6-1.1,1.6
					s0.2,0.7-0.2,1.5c-0.5,1-1.7,1-1.7,1s-0.4,1.4-1.2,1.5c-0.8,0.1-1.5-0.3-2.1-0.4c-0.7-0.1-6.1-2.9-9-6.3
					c-2.9-3.4-6.6-5.7-6.6-5.7L602.5,569.9z"/>
			</g>
		</g>
	</g>
	<g>
		<path class="st17" d="M575.6,513c0,0,0.2,4.5,2.8,9.4c2.6,5,2.6,11.9,3,14.3c0.4,2.4,7.2,25.1,7.8,25.7c0.6,0.6,2.7,1.5,6.8,8.4
			c4.2,6.9,12.9,13.2,12.9,13.2l-7.2,6.9c0,0-19.4-13.1-22.3-20.5c-3.1-7.9-10-30.7-10-30.7S562.3,517,575.6,513z"/>
	</g>
	<g>
		<polygon class="st5" points="573.6,585 602.1,536.9 631.4,553.4 602.9,601.4 		"/>
		<path d="M602.3,537.6l28.4,15.9l-28,47.2l-28.4-15.9L602.3,537.6 M602,536.3l-29,48.9l30.1,16.9l29-48.9L602,536.3L602,536.3z"/>
	</g>
	<path class="st22" d="M577.6,720.9c0,0,2.2,5.1,3.9,6.6s9.4,11.1,12,11.6c2.6,0.5,7.9,0.8,8.1,1.9c0.2,1.1,0.3,6.4-7.1,6.5
		c-7.5,0.2-9.5,0-11.3-1.7c-1.8-1.8-9-6.9-10.9-6.9l0.2,9.1l-2,0c0,0-2.1-11.3-3.7-13.4c-1.6-2.2-0.2-10.2,3.6-13.6
		C574.1,717.7,577.6,720.9,577.6,720.9z"/>
	<path class="st23" d="M593.5,739c0,0-8.3,1.1-11.8-1.6c-3.5-2.7-8-9.3-15-9.4c0,0-2.5,3.1,1.6,10.3c0,0,1.7,7.7,2.2,9.6l2,0
		l-0.2-9.1c0,0,7.1,3,11.9,8.3c0,0,14.4,2.2,17.1-2.1c0,0,1.5-2.2,0.8-4.3S593.5,739,593.5,739z"/>
	<path class="st22" d="M561.8,587.7c0,0-8.8,10.4,2.2,28.9c0,0,0.9,9.5,1.1,13c0.2,3.6,2.5,16.8,1.3,23.3
		c-1.3,6.5-5.4,16.1-3.8,25.4c1.5,9.3,8.6,36,7.2,42.8l7.8-0.2c0,0,2.8-56.6,3.6-58.6c0.9-2,4.3-6.3,3.9-15.1
		c-0.4-8.8,8.8-44.8,8.8-54.8C593.9,582.5,561.8,587.7,561.8,587.7z"/>
	<path class="st6" d="M572.6,721.1c0,0,2.1,5.2,3.7,6.7c1.7,1.5,9.1,11.3,11.7,11.8c2.6,0.5,7.9,1,8.1,2.1c0.2,1.1,0.2,6.4-7.3,6.4
		c-7.5,0-9.5-0.2-11.2-2c-1.8-1.8-8.8-7.1-10.8-7.1v9.1h-2c0,0-1.9-11.3-3.4-13.5c-1.5-2.2,0.1-10.2,3.9-13.5
		S572.6,721.1,572.6,721.1z"/>
	<path class="st24" d="M588.1,739.6c0,0-8.3,0.9-11.8-1.8c-3.5-2.7-7.7-9.4-14.8-9.7c0,0-2.6,3.1,1.4,10.4c0,0,1.4,7.2,2,9.7h2v-9.1
		c0,0,7,3.2,11.7,8.6c0,0,14.3,2.6,17.1-1.7c0,0,1.5-2.1,0.9-4.3C596,739.3,588.1,739.6,588.1,739.6z"/>
	<path class="st6" d="M560.1,587.6c0,0-9,10.2,1.5,28.9c0,0,0.7,9.5,0.8,13c0.1,3.6,2.1,16.9,0.7,23.3c-1.4,6.4-5.8,16-4.5,25.3
		c1.3,9.3,8.3,36.1,6.7,42.9l7.3,0.1c0,0,4.2-56.5,5.1-58.5c0.9-2,4.5-6.2,4.3-15c-0.2-8.8,12.5-42.5,12.7-52.5
		C594.9,585.2,560.1,587.6,560.1,587.6z"/>
	<path class="st25" d="M594.7,597.8c0,0-10.1,56.3-7.8,64.4c0,0-17-1.5-30.4-6.6c0,0,6.7-22,4.4-33.7c-2.3-11.7-7.4-18.1-4-29.9
		C560.3,580.3,594.7,597.8,594.7,597.8z"/>
	<g>
		<g>
			<g>
				<path class="st6" d="M644.4,570.2c0,0,3.2,0.9,4.5-0.5c1.1-1.2,3.3-2,4-2.3c0.9-0.3,3.4-2.4,3.9-1.3c0.4,1.1-3.9,3.6-4.7,4.3
					c-0.8,0.7,4,1.4,4.7,2.2c0.8,0.8-0.9,8.4-4.1,7.5c-3.2-0.9-6-3.9-6.6-3.9c-0.6,0-2.4-0.5-2.4-0.5L644.4,570.2z"/>
			</g>
		</g>
	</g>
	<g>
		<g>
			<g>
				<path class="st6" d="M656.1,572.3c0,0,9.6,3.3,10.1,4c0.5,0.7,0.2,1.2-0.7,1c-0.9-0.3-9.4-2.9-9.4-2.9s10.7,5.8,11.2,6.3
					c0.3,0.3-0.1,1.3-0.6,1.2c-0.5-0.1-11.5-5.2-11.5-5.2s10,5.4,10.3,6c0.3,0.5-0.3,1.3-1.1,1c-0.8-0.3-10.4-4.8-10.4-4.8
					s7,4.4,7,5c0,0.4-0.3,1.2-2.1,0.1c-1.8-1.2-6.3-3.5-6.3-3.5L656.1,572.3z"/>
			</g>
		</g>
	</g>
	<path class="st6" d="M587.8,472.4c4.6-0.1,14.6,2.4,15.8,14.2c0,0-0.5,3.2-1.3,5.6c-0.9,2.5,1.2,9.9,0.6,10.2
		c-0.6,0.3-3.1,0.7-3.1,0.7s-2.9,8-5.8,7.8c-2.9-0.1-13.8-2.7-18.7-12.8C570.5,488.1,569.4,472.8,587.8,472.4z"/>
	<path class="st13" d="M603.6,486.6c0,0-7.5,4.7-14.9,5.5c-7.4,0.8-12.3,8-12.3,8s-10.8-14-1.5-24.8
		C584.3,464.6,605.6,472.9,603.6,486.6z"/>
	<path class="st17" d="M578.6,511c0,0,8.1,7.5,11.2,10.9c3,3.4,13,15.5,13.9,19.2c0.9,3.7-2.7,8.9-5.2,11.5
		c-2.3,2.3-0.4,7.7-0.7,10.8c-0.3,3.1-1.9,31.5-3,34.6c-1.1,3.1-28.8,4.2-38.6-6.1c0,0,10.4-18.1,13.4-21.5c3-3.5-2.3-25.6-4.2-30.8
		C563.5,534.1,567,510.8,578.6,511z"/>
	<path class="st6" d="M577.8,511c0.7-3.7,0-8.9,0-8.9s13.7,6.2,11.4,7.9c-0.6,0.4-1,1.3-1.3,2.3c-0.8,2.9-0.6,7-0.6,7l4.6,5.3
		C595.7,529.9,577.4,512.8,577.8,511z"/>
	<path class="st6" d="M585.7,491.7c0-1.4-1.5-3.5-3.9-1.7c-2.4,1.8,0.6,8.5,2.5,7.9C586.2,497.3,585.7,493.1,585.7,491.7z"/>
	<path class="st12" d="M589.1,509.9c-0.6,0.4-1.1,1.6-1.4,2.6c-5.3-3.1-7.9-8.1-7.9-8.2C582.6,507.8,589.1,509.9,589.1,509.9z"/>
	<g>
		<path class="st17" d="M568.8,519.6c0,0,6.8-5.2,11.5-1.7c4.7,3.5,5.6,7,7.1,9.1c1.4,2.1,18.3,20.5,19.2,20.8
			c0.8,0.3,14.9,8,22.5,11.7c7.5,3.7,18.7,10.4,18.7,10.4l-3.5,6.8c0,0-37.5-15.1-44.4-20c-6.7-4.8-26.4-20.2-26.4-20.2
			S561.2,530.7,568.8,519.6z"/>
	</g>
	<g>
		<g>
			<path class="st22" d="M618.9,577.3c0,0-4.7-2.3-6.3-1.6c-1.6,0.7,0,1.6,0,1.6s-1.6-0.9-2.5,0.2c-0.9,1.1,1.1,2.1,1.1,2.1
				s-1.4-0.4-1.8,1c-0.4,1.4,1.4,1.9,1.4,1.9s-2.3,0.5-1.1,2c1.9,2.6,5.6,2.8,5.6,2.8s1,0,1.3-1.5c0,0,2.3,0,2-2.5
				c0,0,2.2-1.4,0.7-2.9C619.4,580.5,621.5,578.7,618.9,577.3z"/>
		</g>
	</g>
	<path class="st13" d="M587.5,492.3c0,0-4.2,18,1.6,21.5c0,0-12.5-3.3-18.2-10.3c0,0-6.3-29.2,13.2-32.5
		C603.5,467.8,587.5,492.3,587.5,492.3z"/>
</g>
<linearGradient id="SVGID_4_" gradientUnits="userSpaceOnUse" x1="723.755" y1="282.8439" x2="945.1737" y2="282.8439">
	<stop  offset="5.208330e-03" style="stop-color:#571911"/>
	<stop  offset="1" style="stop-color:#F24584"/>
</linearGradient>
<ellipse class="st26" cx="834.5" cy="282.8" rx="110.7" ry="107.8"/>
</svg>
